<svg width="112" height="43" viewBox="0 0 112 43" fill="none" xmlns="http://www.w3.org/2000/svg">
<path d="M0 20C0 8.9543 8.95431 0 20 0H92C103.046 0 112 8.95431 112 20V23C112 34.0457 103.046 43 92 43H20C8.9543 43 0 34.0457 0 23V20Z" fill="#4F723D"/>
<path d="M39.94 20.86C40.6867 20.9933 41.32 21.3867 41.84 22.04C42.36 22.6933 42.62 23.4333 42.62 24.26C42.62 24.9667 42.4333 25.6067 42.06 26.18C41.7 26.74 41.1733 27.1867 40.48 27.52C39.7867 27.84 38.98 28 38.06 28H32.5V14.1H37.8C38.7467 14.1 39.56 14.26 40.24 14.58C40.92 14.9 41.4333 15.3333 41.78 15.88C42.1267 16.4133 42.3 17.0133 42.3 17.68C42.3 18.48 42.0867 19.1467 41.66 19.68C41.2333 20.2133 40.66 20.6067 39.94 20.86ZM34.78 19.94H37.6C38.3467 19.94 38.9267 19.7733 39.34 19.44C39.7667 19.0933 39.98 18.6 39.98 17.96C39.98 17.3333 39.7667 16.8467 39.34 16.5C38.9267 16.14 38.3467 15.96 37.6 15.96H34.78V19.94ZM37.86 26.14C38.6333 26.14 39.24 25.9533 39.68 25.58C40.12 25.2067 40.34 24.6867 40.34 24.02C40.34 23.34 40.1067 22.8 39.64 22.4C39.1733 22 38.5533 21.8 37.78 21.8H34.78V26.14H37.86ZM49.8777 28.18C48.8377 28.18 47.8977 27.9467 47.0577 27.48C46.2177 27 45.5577 26.3333 45.0777 25.48C44.5977 24.6133 44.3577 23.6133 44.3577 22.48C44.3577 21.36 44.6043 20.3667 45.0977 19.5C45.591 18.6333 46.2643 17.9667 47.1177 17.5C47.971 17.0333 48.9243 16.8 49.9777 16.8C51.031 16.8 51.9843 17.0333 52.8377 17.5C53.691 17.9667 54.3643 18.6333 54.8577 19.5C55.351 20.3667 55.5977 21.36 55.5977 22.48C55.5977 23.6 55.3443 24.5933 54.8377 25.46C54.331 26.3267 53.6377 27 52.7577 27.48C51.891 27.9467 50.931 28.18 49.8777 28.18ZM49.8777 26.2C50.4643 26.2 51.011 26.06 51.5177 25.78C52.0377 25.5 52.4577 25.08 52.7777 24.52C53.0977 23.96 53.2577 23.28 53.2577 22.48C53.2577 21.68 53.1043 21.0067 52.7977 20.46C52.491 19.9 52.0843 19.48 51.5777 19.2C51.071 18.92 50.5243 18.78 49.9377 18.78C49.351 18.78 48.8043 18.92 48.2977 19.2C47.8043 19.48 47.411 19.9 47.1177 20.46C46.8243 21.0067 46.6777 21.68 46.6777 22.48C46.6777 23.6667 46.9777 24.5867 47.5777 25.24C48.191 25.88 48.9577 26.2 49.8777 26.2ZM62.6316 28.18C61.5916 28.18 60.6516 27.9467 59.8116 27.48C58.9716 27 58.3116 26.3333 57.8316 25.48C57.3516 24.6133 57.1116 23.6133 57.1116 22.48C57.1116 21.36 57.3582 20.3667 57.8516 19.5C58.3449 18.6333 59.0182 17.9667 59.8716 17.5C60.7249 17.0333 61.6782 16.8 62.7316 16.8C63.7849 16.8 64.7382 17.0333 65.5916 17.5C66.4449 17.9667 67.1182 18.6333 67.6116 19.5C68.1049 20.3667 68.3516 21.36 68.3516 22.48C68.3516 23.6 68.0982 24.5933 67.5916 25.46C67.0849 26.3267 66.3916 27 65.5116 27.48C64.6449 27.9467 63.6849 28.18 62.6316 28.18ZM62.6316 26.2C63.2182 26.2 63.7649 26.06 64.2716 25.78C64.7916 25.5 65.2116 25.08 65.5316 24.52C65.8516 23.96 66.0116 23.28 66.0116 22.48C66.0116 21.68 65.8582 21.0067 65.5516 20.46C65.2449 19.9 64.8382 19.48 64.3316 19.2C63.8249 18.92 63.2782 18.78 62.6916 18.78C62.1049 18.78 61.5582 18.92 61.0516 19.2C60.5582 19.48 60.1649 19.9 59.8716 20.46C59.5782 21.0067 59.4316 21.68 59.4316 22.48C59.4316 23.6667 59.7316 24.5867 60.3316 25.24C60.9449 25.88 61.7116 26.2 62.6316 26.2ZM74.9655 22.5L80.0455 28H76.9655L72.8855 23.26V28H70.6055V13.2H72.8855V21.8L76.8855 16.98H80.0455L74.9655 22.5Z" fill="white"/>
</svg>
