<svg width="40" height="30" viewBox="0 0 57 30"
 fill="none" xmlns="http://www.w3.org/000/svg">
<g id="Group">
<path id="Vector" fill-rule="evenodd" clip-rule="evenodd" d="M39.5954 8.31461e-08C40.6115 -0.000156254 41.6139 0.220158 42.5253 0.643904C43.4366 1.06765 44.2325 1.68347 44.8512 2.44375L45.1074 2.78333L47.4703 6.12708C48.104 7.02336 48.4813 8.05894 48.5657 9.13333L48.5833 9.59583V22.9167C48.5837 23.9679 48.1628 24.9803 47.4052 25.7511C46.6475 26.5219 45.609 26.9941 44.4979 27.0729L44.1667 27.0833H43.7912C43.346 28.2714 42.5307 29.3049 41.452 30.0482C40.3734 30.7915 39.0818 31.2099 37.7467 31.2487C36.4116 31.2874 35.0952 30.9446 33.9702 30.2653C32.8452 29.5859 31.964 28.6017 31.4422 27.4417L31.2921 27.0833H17.289C16.8434 28.2708 16.028 29.3035 14.9496 30.0463C13.8712 30.7891 12.5802 31.2073 11.2455 31.246C9.91094 31.2847 8.59506 30.9422 7.4703 30.2634C6.34554 29.5846 5.46438 28.601 4.94225 27.4417L4.79208 27.0833H4.41667C3.30239 27.0837 2.22917 26.6867 1.41212 25.9719C0.595081 25.2571 0.0946121 24.2774 0.0110417 23.2292L1.02918e-08 22.9167V6.25C-9.4123e-05 4.65581 0.645552 3.12184 1.80483 1.96196C2.96412 0.802069 4.5494 0.103943 6.23633 0.010417L6.625 8.31461e-08H39.5954ZM37.5417 22.9167C36.956 22.9167 36.3943 23.1362 35.9801 23.5269C35.566 23.9176 35.3333 24.4475 35.3333 25C35.3333 25.5525 35.566 26.0824 35.9801 26.4731C36.3943 26.8638 36.956 27.0833 37.5417 27.0833C38.1273 27.0833 38.6891 26.8638 39.1032 26.4731C39.5173 26.0824 39.75 25.5525 39.75 25C39.75 24.4475 39.5173 23.9176 39.1032 23.5269C38.6891 23.1362 38.1273 22.9167 37.5417 22.9167ZM11.0417 22.9167C10.456 22.9167 9.89428 23.1362 9.48014 23.5269C9.066 23.9176 8.83333 24.4475 8.83333 25C8.83333 25.5525 9.066 26.0824 9.48014 26.4731C9.89428 26.8638 10.456 27.0833 11.0417 27.0833C11.6274 27.0833 12.1891 26.8638 12.6032 26.4731C13.0173 26.0824 13.25 25.5525 13.25 25C13.25 24.4475 13.0173 23.9176 12.6032 23.5269C12.1891 23.1362 11.6274 22.9167 11.0417 22.9167ZM39.5954 4.16667H37.5417V12.5H44.1667V9.59583C44.1668 9.18431 44.0377 8.78197 43.7957 8.43958L41.4327 5.09375C41.231 4.80851 40.9578 4.57465 40.6373 4.41293C40.3168 4.2512 39.9589 4.16662 39.5954 4.16667ZM11.0417 4.16667H6.625C6.08411 4.16673 5.56205 4.35407 5.15785 4.69316C4.75364 5.03224 4.49541 5.49948 4.43212 6.00625L4.41667 6.25V10.4167H11.0417V4.16667ZM22.0833 4.16667H15.4583V10.4167H22.0833V4.16667ZM33.125 4.16667H26.5V10.4167H33.125V4.16667Z" fill="black"/>
</g>
</svg>
