<svg width="72" height="44" viewBox="20 12 35 20"
 fill="none" xmlns="http://www.w3.org/2000/svg">
<rect width="72" height="44" rx="20" />
<path d="M27 32.5V34C27 34.425 26.8563 34.7812 26.5688 35.0688C26.2813 35.3563 25.925 35.5 25.5 35.5H24C23.575 35.5 23.2188 35.3563 22.9312 35.0688C22.6437 34.7812 22.5 34.425 22.5 34V22L25.65 13C25.8 12.55 26.0688 12.1875 26.4563 11.9125C26.8438 11.6375 27.275 11.5 27.75 11.5H44.25C44.725 11.5 45.1562 11.6375 45.5438 11.9125C45.9312 12.1875 46.2 12.55 46.35 13L49.5 22V34C49.5 34.425 49.3562 34.7812 49.0687 35.0688C48.7812 35.3563 48.425 35.5 48 35.5H46.5C46.075 35.5 45.7188 35.3563 45.4313 35.0688C45.1438 34.7812 45 34.425 45 34V32.5H27ZM26.7 19H45.3L43.725 14.5H28.275L26.7 19ZM29.25 28C29.875 28 30.4062 27.7812 30.8438 27.3438C31.2812 26.9062 31.5 26.375 31.5 25.75C31.5 25.125 31.2812 24.5938 30.8438 24.1562C30.4062 23.7188 29.875 23.5 29.25 23.5C28.625 23.5 28.0938 23.7188 27.6562 24.1562C27.2188 24.5938 27 25.125 27 25.75C27 26.375 27.2188 26.9062 27.6562 27.3438C28.0938 27.7812 28.625 28 29.25 28ZM42.75 28C43.375 28 43.9062 27.7812 44.3438 27.3438C44.7812 26.9062 45 26.375 45 25.75C45 25.125 44.7812 24.5938 44.3438 24.1562C43.9062 23.7188 43.375 23.5 42.75 23.5C42.125 23.5 41.5938 23.7188 41.1562 24.1562C40.7188 24.5938 40.5 25.125 40.5 25.75C40.5 26.375 40.7188 26.9062 41.1562 27.3438C41.5938 27.7812 42.125 28 42.75 28ZM25.5 29.5H46.5V22H25.5V29.5Z" fill="#1D1B20"/>
</svg>
