<svg width="264" height="61" viewBox="0 0 264 61" fill="none" xmlns="http://www.w3.org/2000/svg">
<rect width="263.667" height="60.5415" rx="30.2707" fill="#92A2C7"/>
<path d="M57.774 30.718C57.774 29.494 58.05 28.396 58.602 27.424C59.154 26.44 59.904 25.672 60.852 25.12C61.812 24.568 62.874 24.292 64.038 24.292C65.406 24.292 66.6 24.622 67.62 25.282C68.64 25.942 69.384 26.878 69.852 28.09H67.89C67.542 27.334 67.038 26.752 66.378 26.344C65.73 25.936 64.95 25.732 64.038 25.732C63.162 25.732 62.376 25.936 61.68 26.344C60.984 26.752 60.438 27.334 60.042 28.09C59.646 28.834 59.448 29.71 59.448 30.718C59.448 31.714 59.646 32.59 60.042 33.346C60.438 34.09 60.984 34.666 61.68 35.074C62.376 35.482 63.162 35.686 64.038 35.686C64.95 35.686 65.73 35.488 66.378 35.092C67.038 34.684 67.542 34.102 67.89 33.346H69.852C69.384 34.546 68.64 35.476 67.62 36.136C66.6 36.784 65.406 37.108 64.038 37.108C62.874 37.108 61.812 36.838 60.852 36.298C59.904 35.746 59.154 34.984 58.602 34.012C58.05 33.04 57.774 31.942 57.774 30.718ZM77.1863 26.956C77.9303 26.956 78.6023 27.118 79.2023 27.442C79.8023 27.754 80.2703 28.228 80.6063 28.864C80.9543 29.5 81.1283 30.274 81.1283 31.186V37H79.5083V31.42C79.5083 30.436 79.2623 29.686 78.7703 29.17C78.2783 28.642 77.6063 28.378 76.7543 28.378C75.8903 28.378 75.2003 28.648 74.6843 29.188C74.1803 29.728 73.9283 30.514 73.9283 31.546V37H72.2903V23.68H73.9283V28.54C74.2523 28.036 74.6963 27.646 75.2603 27.37C75.8363 27.094 76.4783 26.956 77.1863 26.956ZM83.192 32.032C83.192 31.024 83.396 30.142 83.804 29.386C84.212 28.618 84.77 28.024 85.478 27.604C86.198 27.184 86.996 26.974 87.872 26.974C88.736 26.974 89.486 27.16 90.122 27.532C90.758 27.904 91.232 28.372 91.544 28.936V27.136H93.2V37H91.544V35.164C91.22 35.74 90.734 36.22 90.086 36.604C89.45 36.976 88.706 37.162 87.854 37.162C86.978 37.162 86.186 36.946 85.478 36.514C84.77 36.082 84.212 35.476 83.804 34.696C83.396 33.916 83.192 33.028 83.192 32.032ZM91.544 32.05C91.544 31.306 91.394 30.658 91.094 30.106C90.794 29.554 90.386 29.134 89.87 28.846C89.366 28.546 88.808 28.396 88.196 28.396C87.584 28.396 87.026 28.54 86.522 28.828C86.018 29.116 85.616 29.536 85.316 30.088C85.016 30.64 84.866 31.288 84.866 32.032C84.866 32.788 85.016 33.448 85.316 34.012C85.616 34.564 86.018 34.99 86.522 35.29C87.026 35.578 87.584 35.722 88.196 35.722C88.808 35.722 89.366 35.578 89.87 35.29C90.386 34.99 90.794 34.564 91.094 34.012C91.394 33.448 91.544 32.794 91.544 32.05ZM100.774 26.956C101.974 26.956 102.946 27.322 103.69 28.054C104.434 28.774 104.806 29.818 104.806 31.186V37H103.186V31.42C103.186 30.436 102.94 29.686 102.448 29.17C101.956 28.642 101.284 28.378 100.432 28.378C99.568 28.378 98.878 28.648 98.362 29.188C97.858 29.728 97.606 30.514 97.606 31.546V37H95.968V27.136H97.606V28.54C97.93 28.036 98.368 27.646 98.92 27.37C99.484 27.094 100.102 26.956 100.774 26.956ZM111.55 26.974C112.402 26.974 113.146 27.16 113.782 27.532C114.43 27.904 114.91 28.372 115.222 28.936V27.136H116.878V37.216C116.878 38.116 116.686 38.914 116.302 39.61C115.918 40.318 115.366 40.87 114.646 41.266C113.938 41.662 113.11 41.86 112.162 41.86C110.866 41.86 109.786 41.554 108.922 40.942C108.058 40.33 107.548 39.496 107.392 38.44H109.012C109.192 39.04 109.564 39.52 110.128 39.88C110.692 40.252 111.37 40.438 112.162 40.438C113.062 40.438 113.794 40.156 114.358 39.592C114.934 39.028 115.222 38.236 115.222 37.216V35.146C114.898 35.722 114.418 36.202 113.782 36.586C113.146 36.97 112.402 37.162 111.55 37.162C110.674 37.162 109.876 36.946 109.156 36.514C108.448 36.082 107.89 35.476 107.482 34.696C107.074 33.916 106.87 33.028 106.87 32.032C106.87 31.024 107.074 30.142 107.482 29.386C107.89 28.618 108.448 28.024 109.156 27.604C109.876 27.184 110.674 26.974 111.55 26.974ZM115.222 32.05C115.222 31.306 115.072 30.658 114.772 30.106C114.472 29.554 114.064 29.134 113.548 28.846C113.044 28.546 112.486 28.396 111.874 28.396C111.262 28.396 110.704 28.54 110.2 28.828C109.696 29.116 109.294 29.536 108.994 30.088C108.694 30.64 108.544 31.288 108.544 32.032C108.544 32.788 108.694 33.448 108.994 34.012C109.294 34.564 109.696 34.99 110.2 35.29C110.704 35.578 111.262 35.722 111.874 35.722C112.486 35.722 113.044 35.578 113.548 35.29C114.064 34.99 114.472 34.564 114.772 34.012C115.072 33.448 115.222 32.794 115.222 32.05ZM128.646 31.69C128.646 32.002 128.628 32.332 128.592 32.68H120.708C120.768 33.652 121.098 34.414 121.698 34.966C122.31 35.506 123.048 35.776 123.912 35.776C124.62 35.776 125.208 35.614 125.676 35.29C126.156 34.954 126.492 34.51 126.684 33.958H128.448C128.184 34.906 127.656 35.68 126.864 36.28C126.072 36.868 125.088 37.162 123.912 37.162C122.976 37.162 122.136 36.952 121.392 36.532C120.66 36.112 120.084 35.518 119.664 34.75C119.244 33.97 119.034 33.07 119.034 32.05C119.034 31.03 119.238 30.136 119.646 29.368C120.054 28.6 120.624 28.012 121.356 27.604C122.1 27.184 122.952 26.974 123.912 26.974C124.848 26.974 125.676 27.178 126.396 27.586C127.116 27.994 127.668 28.558 128.052 29.278C128.448 29.986 128.646 30.79 128.646 31.69ZM126.954 31.348C126.954 30.724 126.816 30.19 126.54 29.746C126.264 29.29 125.886 28.948 125.406 28.72C124.938 28.48 124.416 28.36 123.84 28.36C123.012 28.36 122.304 28.624 121.716 29.152C121.14 29.68 120.81 30.412 120.726 31.348H126.954ZM141.889 30.538C142.345 30.61 142.759 30.796 143.131 31.096C143.515 31.396 143.815 31.768 144.031 32.212C144.259 32.656 144.373 33.13 144.373 33.634C144.373 34.27 144.211 34.846 143.887 35.362C143.563 35.866 143.089 36.268 142.465 36.568C141.853 36.856 141.127 37 140.287 37H135.607V24.454H140.107C140.959 24.454 141.685 24.598 142.285 24.886C142.885 25.162 143.335 25.54 143.635 26.02C143.935 26.5 144.085 27.04 144.085 27.64C144.085 28.384 143.881 29.002 143.473 29.494C143.077 29.974 142.549 30.322 141.889 30.538ZM137.245 29.872H139.999C140.767 29.872 141.361 29.692 141.781 29.332C142.201 28.972 142.411 28.474 142.411 27.838C142.411 27.202 142.201 26.704 141.781 26.344C141.361 25.984 140.755 25.804 139.963 25.804H137.245V29.872ZM140.143 35.65C140.959 35.65 141.595 35.458 142.051 35.074C142.507 34.69 142.735 34.156 142.735 33.472C142.735 32.776 142.495 32.23 142.015 31.834C141.535 31.426 140.893 31.222 140.089 31.222H137.245V35.65H140.143ZM150.948 37.162C150.024 37.162 149.184 36.952 148.428 36.532C147.684 36.112 147.096 35.518 146.664 34.75C146.244 33.97 146.034 33.07 146.034 32.05C146.034 31.042 146.25 30.154 146.682 29.386C147.126 28.606 147.726 28.012 148.482 27.604C149.238 27.184 150.084 26.974 151.02 26.974C151.956 26.974 152.802 27.184 153.558 27.604C154.314 28.012 154.908 28.6 155.34 29.368C155.784 30.136 156.006 31.03 156.006 32.05C156.006 33.07 155.778 33.97 155.322 34.75C154.878 35.518 154.272 36.112 153.504 36.532C152.736 36.952 151.884 37.162 150.948 37.162ZM150.948 35.722C151.536 35.722 152.088 35.584 152.604 35.308C153.12 35.032 153.534 34.618 153.846 34.066C154.17 33.514 154.332 32.842 154.332 32.05C154.332 31.258 154.176 30.586 153.864 30.034C153.552 29.482 153.144 29.074 152.64 28.81C152.136 28.534 151.59 28.396 151.002 28.396C150.402 28.396 149.85 28.534 149.346 28.81C148.854 29.074 148.458 29.482 148.158 30.034C147.858 30.586 147.708 31.258 147.708 32.05C147.708 32.854 147.852 33.532 148.14 34.084C148.44 34.636 148.836 35.05 149.328 35.326C149.82 35.59 150.36 35.722 150.948 35.722ZM162.461 37.162C161.537 37.162 160.697 36.952 159.941 36.532C159.197 36.112 158.609 35.518 158.177 34.75C157.757 33.97 157.547 33.07 157.547 32.05C157.547 31.042 157.763 30.154 158.195 29.386C158.639 28.606 159.239 28.012 159.995 27.604C160.751 27.184 161.597 26.974 162.533 26.974C163.469 26.974 164.315 27.184 165.071 27.604C165.827 28.012 166.421 28.6 166.853 29.368C167.297 30.136 167.519 31.03 167.519 32.05C167.519 33.07 167.291 33.97 166.835 34.75C166.391 35.518 165.785 36.112 165.017 36.532C164.249 36.952 163.397 37.162 162.461 37.162ZM162.461 35.722C163.049 35.722 163.601 35.584 164.117 35.308C164.633 35.032 165.047 34.618 165.359 34.066C165.683 33.514 165.845 32.842 165.845 32.05C165.845 31.258 165.689 30.586 165.377 30.034C165.065 29.482 164.657 29.074 164.153 28.81C163.649 28.534 163.103 28.396 162.515 28.396C161.915 28.396 161.363 28.534 160.859 28.81C160.367 29.074 159.971 29.482 159.671 30.034C159.371 30.586 159.221 31.258 159.221 32.05C159.221 32.854 159.365 33.532 159.653 34.084C159.953 34.636 160.349 35.05 160.841 35.326C161.333 35.59 161.873 35.722 162.461 35.722ZM175.181 37L171.311 32.644V37H169.673V23.68H171.311V31.51L175.109 27.136H177.395L172.751 32.05L177.413 37H175.181ZM179.783 25.534C179.471 25.534 179.207 25.426 178.991 25.21C178.775 24.994 178.667 24.73 178.667 24.418C178.667 24.106 178.775 23.842 178.991 23.626C179.207 23.41 179.471 23.302 179.783 23.302C180.083 23.302 180.335 23.41 180.539 23.626C180.755 23.842 180.863 24.106 180.863 24.418C180.863 24.73 180.755 24.994 180.539 25.21C180.335 25.426 180.083 25.534 179.783 25.534ZM180.575 27.136V37H178.937V27.136H180.575ZM188.172 26.956C189.372 26.956 190.344 27.322 191.088 28.054C191.832 28.774 192.204 29.818 192.204 31.186V37H190.584V31.42C190.584 30.436 190.338 29.686 189.846 29.17C189.354 28.642 188.682 28.378 187.83 28.378C186.966 28.378 186.276 28.648 185.76 29.188C185.256 29.728 185.004 30.514 185.004 31.546V37H183.366V27.136H185.004V28.54C185.328 28.036 185.766 27.646 186.318 27.37C186.882 27.094 187.5 26.956 188.172 26.956ZM198.948 26.974C199.8 26.974 200.544 27.16 201.18 27.532C201.828 27.904 202.308 28.372 202.62 28.936V27.136H204.276V37.216C204.276 38.116 204.084 38.914 203.7 39.61C203.316 40.318 202.764 40.87 202.044 41.266C201.336 41.662 200.508 41.86 199.56 41.86C198.264 41.86 197.184 41.554 196.32 40.942C195.456 40.33 194.946 39.496 194.79 38.44H196.41C196.59 39.04 196.962 39.52 197.526 39.88C198.09 40.252 198.768 40.438 199.56 40.438C200.46 40.438 201.192 40.156 201.756 39.592C202.332 39.028 202.62 38.236 202.62 37.216V35.146C202.296 35.722 201.816 36.202 201.18 36.586C200.544 36.97 199.8 37.162 198.948 37.162C198.072 37.162 197.274 36.946 196.554 36.514C195.846 36.082 195.288 35.476 194.88 34.696C194.472 33.916 194.268 33.028 194.268 32.032C194.268 31.024 194.472 30.142 194.88 29.386C195.288 28.618 195.846 28.024 196.554 27.604C197.274 27.184 198.072 26.974 198.948 26.974ZM202.62 32.05C202.62 31.306 202.47 30.658 202.17 30.106C201.87 29.554 201.462 29.134 200.946 28.846C200.442 28.546 199.884 28.396 199.272 28.396C198.66 28.396 198.102 28.54 197.598 28.828C197.094 29.116 196.692 29.536 196.392 30.088C196.092 30.64 195.942 31.288 195.942 32.032C195.942 32.788 196.092 33.448 196.392 34.012C196.692 34.564 197.094 34.99 197.598 35.29C198.102 35.578 198.66 35.722 199.272 35.722C199.884 35.722 200.442 35.578 200.946 35.29C201.462 34.99 201.87 34.564 202.17 34.012C202.47 33.448 202.62 32.794 202.62 32.05Z" fill="white"/>
</svg>
