<svg width="264" height="61" viewBox="0 0 264 61" fill="none" xmlns="http://www.w3.org/2000/svg">
<rect width="263.667" height="60.5415" rx="30.2707" fill="#4F723D"/>
<path d="M61.774 30.718C61.774 29.494 62.05 28.396 62.602 27.424C63.154 26.44 63.904 25.672 64.852 25.12C65.812 24.568 66.874 24.292 68.038 24.292C69.406 24.292 70.6 24.622 71.62 25.282C72.64 25.942 73.384 26.878 73.852 28.09H71.89C71.542 27.334 71.038 26.752 70.378 26.344C69.73 25.936 68.95 25.732 68.038 25.732C67.162 25.732 66.376 25.936 65.68 26.344C64.984 26.752 64.438 27.334 64.042 28.09C63.646 28.834 63.448 29.71 63.448 30.718C63.448 31.714 63.646 32.59 64.042 33.346C64.438 34.09 64.984 34.666 65.68 35.074C66.376 35.482 67.162 35.686 68.038 35.686C68.95 35.686 69.73 35.488 70.378 35.092C71.038 34.684 71.542 34.102 71.89 33.346H73.852C73.384 34.546 72.64 35.476 71.62 36.136C70.6 36.784 69.406 37.108 68.038 37.108C66.874 37.108 65.812 36.838 64.852 36.298C63.904 35.746 63.154 34.984 62.602 34.012C62.05 33.04 61.774 31.942 61.774 30.718ZM80.5923 37.162C79.6683 37.162 78.8283 36.952 78.0723 36.532C77.3283 36.112 76.7403 35.518 76.3083 34.75C75.8883 33.97 75.6783 33.07 75.6783 32.05C75.6783 31.042 75.8943 30.154 76.3263 29.386C76.7703 28.606 77.3703 28.012 78.1263 27.604C78.8823 27.184 79.7283 26.974 80.6643 26.974C81.6003 26.974 82.4463 27.184 83.2023 27.604C83.9583 28.012 84.5523 28.6 84.9843 29.368C85.4283 30.136 85.6503 31.03 85.6503 32.05C85.6503 33.07 85.4223 33.97 84.9663 34.75C84.5223 35.518 83.9163 36.112 83.1483 36.532C82.3803 36.952 81.5283 37.162 80.5923 37.162ZM80.5923 35.722C81.1803 35.722 81.7323 35.584 82.2483 35.308C82.7643 35.032 83.1783 34.618 83.4903 34.066C83.8143 33.514 83.9763 32.842 83.9763 32.05C83.9763 31.258 83.8203 30.586 83.5083 30.034C83.1963 29.482 82.7883 29.074 82.2843 28.81C81.7803 28.534 81.2343 28.396 80.6463 28.396C80.0463 28.396 79.4943 28.534 78.9903 28.81C78.4983 29.074 78.1023 29.482 77.8023 30.034C77.5023 30.586 77.3523 31.258 77.3523 32.05C77.3523 32.854 77.4963 33.532 77.7843 34.084C78.0843 34.636 78.4803 35.05 78.9723 35.326C79.4643 35.59 80.0043 35.722 80.5923 35.722ZM99.666 26.956C100.434 26.956 101.118 27.118 101.718 27.442C102.318 27.754 102.792 28.228 103.14 28.864C103.488 29.5 103.662 30.274 103.662 31.186V37H102.042V31.42C102.042 30.436 101.796 29.686 101.304 29.17C100.824 28.642 100.17 28.378 99.342 28.378C98.49 28.378 97.812 28.654 97.308 29.206C96.804 29.746 96.552 30.532 96.552 31.564V37H94.932V31.42C94.932 30.436 94.686 29.686 94.194 29.17C93.714 28.642 93.06 28.378 92.232 28.378C91.38 28.378 90.702 28.654 90.198 29.206C89.694 29.746 89.442 30.532 89.442 31.564V37H87.804V27.136H89.442V28.558C89.766 28.042 90.198 27.646 90.738 27.37C91.29 27.094 91.896 26.956 92.556 26.956C93.384 26.956 94.116 27.142 94.752 27.514C95.388 27.886 95.862 28.432 96.174 29.152C96.45 28.456 96.906 27.916 97.542 27.532C98.178 27.148 98.886 26.956 99.666 26.956ZM107.987 28.954C108.311 28.39 108.791 27.922 109.427 27.55C110.075 27.166 110.825 26.974 111.677 26.974C112.553 26.974 113.345 27.184 114.053 27.604C114.773 28.024 115.337 28.618 115.745 29.386C116.153 30.142 116.357 31.024 116.357 32.032C116.357 33.028 116.153 33.916 115.745 34.696C115.337 35.476 114.773 36.082 114.053 36.514C113.345 36.946 112.553 37.162 111.677 37.162C110.837 37.162 110.093 36.976 109.445 36.604C108.809 36.22 108.323 35.746 107.987 35.182V41.68H106.349V27.136H107.987V28.954ZM114.683 32.032C114.683 31.288 114.533 30.64 114.233 30.088C113.933 29.536 113.525 29.116 113.009 28.828C112.505 28.54 111.947 28.396 111.335 28.396C110.735 28.396 110.177 28.546 109.661 28.846C109.157 29.134 108.749 29.56 108.437 30.124C108.137 30.676 107.987 31.318 107.987 32.05C107.987 32.794 108.137 33.448 108.437 34.012C108.749 34.564 109.157 34.99 109.661 35.29C110.177 35.578 110.735 35.722 111.335 35.722C111.947 35.722 112.505 35.578 113.009 35.29C113.525 34.99 113.933 34.564 114.233 34.012C114.533 33.448 114.683 32.788 114.683 32.032ZM127.261 27.136V37H125.623V35.542C125.311 36.046 124.873 36.442 124.309 36.73C123.757 37.006 123.145 37.144 122.473 37.144C121.705 37.144 121.015 36.988 120.403 36.676C119.791 36.352 119.305 35.872 118.945 35.236C118.597 34.6 118.423 33.826 118.423 32.914V27.136H120.043V32.698C120.043 33.67 120.289 34.42 120.781 34.948C121.273 35.464 121.945 35.722 122.797 35.722C123.673 35.722 124.363 35.452 124.867 34.912C125.371 34.372 125.623 33.586 125.623 32.554V27.136H127.261ZM132.025 28.486V34.3C132.025 34.78 132.127 35.122 132.331 35.326C132.535 35.518 132.889 35.614 133.393 35.614H134.599V37H133.123C132.211 37 131.527 36.79 131.071 36.37C130.615 35.95 130.387 35.26 130.387 34.3V28.486H129.109V27.136H130.387V24.652H132.025V27.136H134.599V28.486H132.025ZM145.583 31.69C145.583 32.002 145.565 32.332 145.529 32.68H137.645C137.705 33.652 138.035 34.414 138.635 34.966C139.247 35.506 139.985 35.776 140.849 35.776C141.557 35.776 142.145 35.614 142.613 35.29C143.093 34.954 143.429 34.51 143.621 33.958H145.385C145.121 34.906 144.593 35.68 143.801 36.28C143.009 36.868 142.025 37.162 140.849 37.162C139.913 37.162 139.073 36.952 138.329 36.532C137.597 36.112 137.021 35.518 136.601 34.75C136.181 33.97 135.971 33.07 135.971 32.05C135.971 31.03 136.175 30.136 136.583 29.368C136.991 28.6 137.561 28.012 138.293 27.604C139.037 27.184 139.889 26.974 140.849 26.974C141.785 26.974 142.613 27.178 143.333 27.586C144.053 27.994 144.605 28.558 144.989 29.278C145.385 29.986 145.583 30.79 145.583 31.69ZM143.891 31.348C143.891 30.724 143.753 30.19 143.477 29.746C143.201 29.29 142.823 28.948 142.343 28.72C141.875 28.48 141.353 28.36 140.777 28.36C139.949 28.36 139.241 28.624 138.653 29.152C138.077 29.68 137.747 30.412 137.663 31.348H143.891ZM159.15 37L156.162 31.87H154.182V37H152.544V24.454H156.594C157.542 24.454 158.34 24.616 158.988 24.94C159.648 25.264 160.14 25.702 160.464 26.254C160.788 26.806 160.95 27.436 160.95 28.144C160.95 29.008 160.698 29.77 160.194 30.43C159.702 31.09 158.958 31.528 157.962 31.744L161.112 37H159.15ZM154.182 30.556H156.594C157.482 30.556 158.148 30.34 158.592 29.908C159.036 29.464 159.258 28.876 159.258 28.144C159.258 27.4 159.036 26.824 158.592 26.416C158.16 26.008 157.494 25.804 156.594 25.804H154.182V30.556ZM167.797 37.162C166.873 37.162 166.033 36.952 165.277 36.532C164.533 36.112 163.945 35.518 163.513 34.75C163.093 33.97 162.883 33.07 162.883 32.05C162.883 31.042 163.099 30.154 163.531 29.386C163.975 28.606 164.575 28.012 165.331 27.604C166.087 27.184 166.933 26.974 167.869 26.974C168.805 26.974 169.651 27.184 170.407 27.604C171.163 28.012 171.757 28.6 172.189 29.368C172.633 30.136 172.855 31.03 172.855 32.05C172.855 33.07 172.627 33.97 172.171 34.75C171.727 35.518 171.121 36.112 170.353 36.532C169.585 36.952 168.733 37.162 167.797 37.162ZM167.797 35.722C168.385 35.722 168.937 35.584 169.453 35.308C169.969 35.032 170.383 34.618 170.695 34.066C171.019 33.514 171.181 32.842 171.181 32.05C171.181 31.258 171.025 30.586 170.713 30.034C170.401 29.482 169.993 29.074 169.489 28.81C168.985 28.534 168.439 28.396 167.851 28.396C167.251 28.396 166.699 28.534 166.195 28.81C165.703 29.074 165.307 29.482 165.007 30.034C164.707 30.586 164.557 31.258 164.557 32.05C164.557 32.854 164.701 33.532 164.989 34.084C165.289 34.636 165.685 35.05 166.177 35.326C166.669 35.59 167.209 35.722 167.797 35.722ZM183.757 27.136V37H182.119V35.542C181.807 36.046 181.369 36.442 180.805 36.73C180.253 37.006 179.641 37.144 178.969 37.144C178.201 37.144 177.511 36.988 176.899 36.676C176.287 36.352 175.801 35.872 175.441 35.236C175.093 34.6 174.919 33.826 174.919 32.914V27.136H176.539V32.698C176.539 33.67 176.785 34.42 177.277 34.948C177.769 35.464 178.441 35.722 179.293 35.722C180.169 35.722 180.859 35.452 181.363 34.912C181.867 34.372 182.119 33.586 182.119 32.554V27.136H183.757ZM188.521 28.486V34.3C188.521 34.78 188.623 35.122 188.827 35.326C189.031 35.518 189.385 35.614 189.889 35.614H191.095V37H189.619C188.707 37 188.023 36.79 187.567 36.37C187.111 35.95 186.883 35.26 186.883 34.3V28.486H185.605V27.136H186.883V24.652H188.521V27.136H191.095V28.486H188.521ZM202.079 31.69C202.079 32.002 202.061 32.332 202.025 32.68H194.141C194.201 33.652 194.531 34.414 195.131 34.966C195.743 35.506 196.481 35.776 197.345 35.776C198.053 35.776 198.641 35.614 199.109 35.29C199.589 34.954 199.925 34.51 200.117 33.958H201.881C201.617 34.906 201.089 35.68 200.297 36.28C199.505 36.868 198.521 37.162 197.345 37.162C196.409 37.162 195.569 36.952 194.825 36.532C194.093 36.112 193.517 35.518 193.097 34.75C192.677 33.97 192.467 33.07 192.467 32.05C192.467 31.03 192.671 30.136 193.079 29.368C193.487 28.6 194.057 28.012 194.789 27.604C195.533 27.184 196.385 26.974 197.345 26.974C198.281 26.974 199.109 27.178 199.829 27.586C200.549 27.994 201.101 28.558 201.485 29.278C201.881 29.986 202.079 30.79 202.079 31.69ZM200.387 31.348C200.387 30.724 200.249 30.19 199.973 29.746C199.697 29.29 199.319 28.948 198.839 28.72C198.371 28.48 197.849 28.36 197.273 28.36C196.445 28.36 195.737 28.624 195.149 29.152C194.573 29.68 194.243 30.412 194.159 31.348H200.387Z" fill="white"/>
</svg>
