<svg width="264" height="61" viewBox="0 0 264 61" fill="none" xmlns="http://www.w3.org/2000/svg">
<rect width="263.667" height="60.5415" rx="30.2707" fill="#FF2D2D"/>
<path d="M70.292 24.454C71.66 24.454 72.842 24.712 73.838 25.228C74.846 25.732 75.614 26.458 76.142 27.406C76.682 28.354 76.952 29.47 76.952 30.754C76.952 32.038 76.682 33.154 76.142 34.102C75.614 35.038 74.846 35.758 73.838 36.262C72.842 36.754 71.66 37 70.292 37H66.386V24.454H70.292ZM70.292 35.65C71.912 35.65 73.148 35.224 74 34.372C74.852 33.508 75.278 32.302 75.278 30.754C75.278 29.194 74.846 27.976 73.982 27.1C73.13 26.224 71.9 25.786 70.292 25.786H68.024V35.65H70.292ZM88.1126 31.69C88.1126 32.002 88.0946 32.332 88.0586 32.68H80.1746C80.2346 33.652 80.5646 34.414 81.1646 34.966C81.7766 35.506 82.5146 35.776 83.3786 35.776C84.0866 35.776 84.6746 35.614 85.1426 35.29C85.6226 34.954 85.9586 34.51 86.1506 33.958H87.9146C87.6506 34.906 87.1226 35.68 86.3306 36.28C85.5386 36.868 84.5546 37.162 83.3786 37.162C82.4426 37.162 81.6026 36.952 80.8586 36.532C80.1266 36.112 79.5506 35.518 79.1306 34.75C78.7106 33.97 78.5006 33.07 78.5006 32.05C78.5006 31.03 78.7046 30.136 79.1126 29.368C79.5206 28.6 80.0906 28.012 80.8226 27.604C81.5666 27.184 82.4186 26.974 83.3786 26.974C84.3146 26.974 85.1426 27.178 85.8626 27.586C86.5826 27.994 87.1346 28.558 87.5186 29.278C87.9146 29.986 88.1126 30.79 88.1126 31.69ZM86.4206 31.348C86.4206 30.724 86.2826 30.19 86.0066 29.746C85.7306 29.29 85.3526 28.948 84.8726 28.72C84.4046 28.48 83.8826 28.36 83.3066 28.36C82.4786 28.36 81.7706 28.624 81.1826 29.152C80.6066 29.68 80.2766 30.412 80.1926 31.348H86.4206ZM91.9127 23.68V37H90.2747V23.68H91.9127ZM103.704 31.69C103.704 32.002 103.686 32.332 103.65 32.68H95.7664C95.8264 33.652 96.1564 34.414 96.7564 34.966C97.3684 35.506 98.1064 35.776 98.9704 35.776C99.6784 35.776 100.266 35.614 100.734 35.29C101.214 34.954 101.55 34.51 101.742 33.958H103.506C103.242 34.906 102.714 35.68 101.922 36.28C101.13 36.868 100.146 37.162 98.9704 37.162C98.0344 37.162 97.1944 36.952 96.4504 36.532C95.7184 36.112 95.1424 35.518 94.7224 34.75C94.3024 33.97 94.0924 33.07 94.0924 32.05C94.0924 31.03 94.2964 30.136 94.7044 29.368C95.1124 28.6 95.6824 28.012 96.4144 27.604C97.1584 27.184 98.0104 26.974 98.9704 26.974C99.9064 26.974 100.734 27.178 101.454 27.586C102.174 27.994 102.726 28.558 103.11 29.278C103.506 29.986 103.704 30.79 103.704 31.69ZM102.012 31.348C102.012 30.724 101.874 30.19 101.598 29.746C101.322 29.29 100.944 28.948 100.464 28.72C99.9964 28.48 99.4744 28.36 98.8984 28.36C98.0704 28.36 97.3624 28.624 96.7744 29.152C96.1984 29.68 95.8684 30.412 95.7844 31.348H102.012ZM107.864 28.486V34.3C107.864 34.78 107.966 35.122 108.17 35.326C108.374 35.518 108.728 35.614 109.232 35.614H110.438V37H108.962C108.05 37 107.366 36.79 106.91 36.37C106.454 35.95 106.226 35.26 106.226 34.3V28.486H104.948V27.136H106.226V24.652H107.864V27.136H110.438V28.486H107.864ZM121.423 31.69C121.423 32.002 121.405 32.332 121.369 32.68H113.485C113.545 33.652 113.875 34.414 114.475 34.966C115.087 35.506 115.825 35.776 116.689 35.776C117.397 35.776 117.985 35.614 118.453 35.29C118.933 34.954 119.269 34.51 119.461 33.958H121.225C120.961 34.906 120.433 35.68 119.641 36.28C118.849 36.868 117.865 37.162 116.689 37.162C115.753 37.162 114.913 36.952 114.169 36.532C113.437 36.112 112.861 35.518 112.441 34.75C112.021 33.97 111.811 33.07 111.811 32.05C111.811 31.03 112.015 30.136 112.423 29.368C112.831 28.6 113.401 28.012 114.133 27.604C114.877 27.184 115.729 26.974 116.689 26.974C117.625 26.974 118.453 27.178 119.173 27.586C119.893 27.994 120.445 28.558 120.829 29.278C121.225 29.986 121.423 30.79 121.423 31.69ZM119.731 31.348C119.731 30.724 119.593 30.19 119.317 29.746C119.041 29.29 118.663 28.948 118.183 28.72C117.715 28.48 117.193 28.36 116.617 28.36C115.789 28.36 115.081 28.624 114.493 29.152C113.917 29.68 113.587 30.412 113.503 31.348H119.731ZM134.666 30.538C135.122 30.61 135.536 30.796 135.908 31.096C136.292 31.396 136.592 31.768 136.808 32.212C137.036 32.656 137.15 33.13 137.15 33.634C137.15 34.27 136.988 34.846 136.664 35.362C136.34 35.866 135.866 36.268 135.242 36.568C134.63 36.856 133.904 37 133.064 37H128.384V24.454H132.884C133.736 24.454 134.462 24.598 135.062 24.886C135.662 25.162 136.112 25.54 136.412 26.02C136.712 26.5 136.862 27.04 136.862 27.64C136.862 28.384 136.658 29.002 136.25 29.494C135.854 29.974 135.326 30.322 134.666 30.538ZM130.022 29.872H132.776C133.544 29.872 134.138 29.692 134.558 29.332C134.978 28.972 135.188 28.474 135.188 27.838C135.188 27.202 134.978 26.704 134.558 26.344C134.138 25.984 133.532 25.804 132.74 25.804H130.022V29.872ZM132.92 35.65C133.736 35.65 134.372 35.458 134.828 35.074C135.284 34.69 135.512 34.156 135.512 33.472C135.512 32.776 135.272 32.23 134.792 31.834C134.312 31.426 133.67 31.222 132.866 31.222H130.022V35.65H132.92ZM143.725 37.162C142.801 37.162 141.961 36.952 141.205 36.532C140.461 36.112 139.873 35.518 139.441 34.75C139.021 33.97 138.811 33.07 138.811 32.05C138.811 31.042 139.027 30.154 139.459 29.386C139.903 28.606 140.503 28.012 141.259 27.604C142.015 27.184 142.861 26.974 143.797 26.974C144.733 26.974 145.579 27.184 146.335 27.604C147.091 28.012 147.685 28.6 148.117 29.368C148.561 30.136 148.783 31.03 148.783 32.05C148.783 33.07 148.555 33.97 148.099 34.75C147.655 35.518 147.049 36.112 146.281 36.532C145.513 36.952 144.661 37.162 143.725 37.162ZM143.725 35.722C144.313 35.722 144.865 35.584 145.381 35.308C145.897 35.032 146.311 34.618 146.623 34.066C146.947 33.514 147.109 32.842 147.109 32.05C147.109 31.258 146.953 30.586 146.641 30.034C146.329 29.482 145.921 29.074 145.417 28.81C144.913 28.534 144.367 28.396 143.779 28.396C143.179 28.396 142.627 28.534 142.123 28.81C141.631 29.074 141.235 29.482 140.935 30.034C140.635 30.586 140.485 31.258 140.485 32.05C140.485 32.854 140.629 33.532 140.917 34.084C141.217 34.636 141.613 35.05 142.105 35.326C142.597 35.59 143.137 35.722 143.725 35.722ZM155.239 37.162C154.315 37.162 153.475 36.952 152.719 36.532C151.975 36.112 151.387 35.518 150.955 34.75C150.535 33.97 150.325 33.07 150.325 32.05C150.325 31.042 150.541 30.154 150.973 29.386C151.417 28.606 152.017 28.012 152.773 27.604C153.529 27.184 154.375 26.974 155.311 26.974C156.247 26.974 157.093 27.184 157.849 27.604C158.605 28.012 159.199 28.6 159.631 29.368C160.075 30.136 160.297 31.03 160.297 32.05C160.297 33.07 160.069 33.97 159.613 34.75C159.169 35.518 158.563 36.112 157.795 36.532C157.027 36.952 156.175 37.162 155.239 37.162ZM155.239 35.722C155.827 35.722 156.379 35.584 156.895 35.308C157.411 35.032 157.825 34.618 158.137 34.066C158.461 33.514 158.623 32.842 158.623 32.05C158.623 31.258 158.467 30.586 158.155 30.034C157.843 29.482 157.435 29.074 156.931 28.81C156.427 28.534 155.881 28.396 155.293 28.396C154.693 28.396 154.141 28.534 153.637 28.81C153.145 29.074 152.749 29.482 152.449 30.034C152.149 30.586 151.999 31.258 151.999 32.05C151.999 32.854 152.143 33.532 152.431 34.084C152.731 34.636 153.127 35.05 153.619 35.326C154.111 35.59 154.651 35.722 155.239 35.722ZM167.958 37L164.088 32.644V37H162.45V23.68H164.088V31.51L167.886 27.136H170.172L165.528 32.05L170.19 37H167.958ZM172.56 25.534C172.248 25.534 171.984 25.426 171.768 25.21C171.552 24.994 171.444 24.73 171.444 24.418C171.444 24.106 171.552 23.842 171.768 23.626C171.984 23.41 172.248 23.302 172.56 23.302C172.86 23.302 173.112 23.41 173.316 23.626C173.532 23.842 173.64 24.106 173.64 24.418C173.64 24.73 173.532 24.994 173.316 25.21C173.112 25.426 172.86 25.534 172.56 25.534ZM173.352 27.136V37H171.714V27.136H173.352ZM180.95 26.956C182.15 26.956 183.122 27.322 183.866 28.054C184.61 28.774 184.982 29.818 184.982 31.186V37H183.362V31.42C183.362 30.436 183.116 29.686 182.624 29.17C182.132 28.642 181.46 28.378 180.608 28.378C179.744 28.378 179.054 28.648 178.538 29.188C178.034 29.728 177.782 30.514 177.782 31.546V37H176.144V27.136H177.782V28.54C178.106 28.036 178.544 27.646 179.096 27.37C179.66 27.094 180.278 26.956 180.95 26.956ZM191.725 26.974C192.577 26.974 193.321 27.16 193.957 27.532C194.605 27.904 195.085 28.372 195.397 28.936V27.136H197.053V37.216C197.053 38.116 196.861 38.914 196.477 39.61C196.093 40.318 195.541 40.87 194.821 41.266C194.113 41.662 193.285 41.86 192.337 41.86C191.041 41.86 189.961 41.554 189.097 40.942C188.233 40.33 187.723 39.496 187.567 38.44H189.187C189.367 39.04 189.739 39.52 190.303 39.88C190.867 40.252 191.545 40.438 192.337 40.438C193.237 40.438 193.969 40.156 194.533 39.592C195.109 39.028 195.397 38.236 195.397 37.216V35.146C195.073 35.722 194.593 36.202 193.957 36.586C193.321 36.97 192.577 37.162 191.725 37.162C190.849 37.162 190.051 36.946 189.331 36.514C188.623 36.082 188.065 35.476 187.657 34.696C187.249 33.916 187.045 33.028 187.045 32.032C187.045 31.024 187.249 30.142 187.657 29.386C188.065 28.618 188.623 28.024 189.331 27.604C190.051 27.184 190.849 26.974 191.725 26.974ZM195.397 32.05C195.397 31.306 195.247 30.658 194.947 30.106C194.647 29.554 194.239 29.134 193.723 28.846C193.219 28.546 192.661 28.396 192.049 28.396C191.437 28.396 190.879 28.54 190.375 28.828C189.871 29.116 189.469 29.536 189.169 30.088C188.869 30.64 188.719 31.288 188.719 32.032C188.719 32.788 188.869 33.448 189.169 34.012C189.469 34.564 189.871 34.99 190.375 35.29C190.879 35.578 191.437 35.722 192.049 35.722C192.661 35.722 193.219 35.578 193.723 35.29C194.239 34.99 194.647 34.564 194.947 34.012C195.247 33.448 195.397 32.794 195.397 32.05Z" fill="white"/>
</svg>
