<svg width="225" height="56" viewBox="0 0 225 56" fill="none" xmlns="http://www.w3.org/2000/svg">
<rect x="1" y="1" width="223" height="54" rx="19" fill="#F5F1EC" stroke="black" stroke-width="2"/>
<rect x="1" y="1" width="223" height="54" rx="19" fill="#F5F1EC" stroke="black" stroke-width="2"/>
<mask id="path-3-inside-1_543_76" fill="white">
<path d="M43.26 21.04C44.7267 21.04 46.0133 21.3267 47.12 21.9C48.24 22.4733 49.1 23.2933 49.7 24.36C50.3133 25.4133 50.62 26.64 50.62 28.04C50.62 29.44 50.3133 30.6667 49.7 31.72C49.1 32.76 48.24 33.5667 47.12 34.14C46.0133 34.7133 44.7267 35 43.26 35H38.38V21.04H43.26ZM43.16 32.62C44.6267 32.62 45.76 32.22 46.56 31.42C47.36 30.62 47.76 29.4933 47.76 28.04C47.76 26.5867 47.36 25.4533 46.56 24.64C45.76 23.8133 44.6267 23.4 43.16 23.4H41.18V32.62H43.16ZM63.0159 29.22C63.0159 29.62 62.9893 29.98 62.9359 30.3H54.8359C54.9026 31.1 55.1826 31.7267 55.6759 32.18C56.1693 32.6333 56.7759 32.86 57.4959 32.86C58.5359 32.86 59.2759 32.4133 59.7159 31.52H62.7359C62.4159 32.5867 61.8026 33.4667 60.8959 34.16C59.9893 34.84 58.8759 35.18 57.5559 35.18C56.4893 35.18 55.5293 34.9467 54.6759 34.48C53.8359 34 53.1759 33.3267 52.6959 32.46C52.2293 31.5933 51.9959 30.5933 51.9959 29.46C51.9959 28.3133 52.2293 27.3067 52.6959 26.44C53.1626 25.5733 53.8159 24.9067 54.6559 24.44C55.4959 23.9733 56.4626 23.74 57.5559 23.74C58.6093 23.74 59.5493 23.9667 60.3759 24.42C61.2159 24.8733 61.8626 25.52 62.3159 26.36C62.7826 27.1867 63.0159 28.14 63.0159 29.22ZM60.1159 28.42C60.1026 27.7 59.8426 27.1267 59.3359 26.7C58.8293 26.26 58.2093 26.04 57.4759 26.04C56.7826 26.04 56.1959 26.2533 55.7159 26.68C55.2493 27.0933 54.9626 27.6733 54.8559 28.42H60.1159ZM67.8597 20.2V35H65.0597V20.2H67.8597ZM80.9261 29.22C80.9261 29.62 80.8994 29.98 80.8461 30.3H72.7461C72.8128 31.1 73.0928 31.7267 73.5861 32.18C74.0794 32.6333 74.6861 32.86 75.4061 32.86C76.4461 32.86 77.1861 32.4133 77.6261 31.52H80.6461C80.3261 32.5867 79.7128 33.4667 78.8061 34.16C77.8994 34.84 76.7861 35.18 75.4661 35.18C74.3994 35.18 73.4394 34.9467 72.5861 34.48C71.7461 34 71.0861 33.3267 70.6061 32.46C70.1394 31.5933 69.9061 30.5933 69.9061 29.46C69.9061 28.3133 70.1394 27.3067 70.6061 26.44C71.0728 25.5733 71.7261 24.9067 72.5661 24.44C73.4061 23.9733 74.3728 23.74 75.4661 23.74C76.5194 23.74 77.4594 23.9667 78.2861 24.42C79.1261 24.8733 79.7728 25.52 80.2261 26.36C80.6928 27.1867 80.9261 28.14 80.9261 29.22ZM78.0261 28.42C78.0128 27.7 77.7528 27.1267 77.2461 26.7C76.7394 26.26 76.1194 26.04 75.3861 26.04C74.6928 26.04 74.1061 26.2533 73.6261 26.68C73.1594 27.0933 72.8728 27.6733 72.7661 28.42H78.0261ZM86.2298 26.22V31.58C86.2298 31.9533 86.3165 32.2267 86.4898 32.4C86.6765 32.56 86.9832 32.64 87.4098 32.64H88.7098V35H86.9498C84.5898 35 83.4098 33.8533 83.4098 31.56V26.22H82.0898V23.92H83.4098V21.18H86.2298V23.92H88.7098V26.22H86.2298ZM101.024 29.22C101.024 29.62 100.997 29.98 100.944 30.3H92.8438C92.9104 31.1 93.1904 31.7267 93.6838 32.18C94.1771 32.6333 94.7838 32.86 95.5038 32.86C96.5438 32.86 97.2838 32.4133 97.7238 31.52H100.744C100.424 32.5867 99.8104 33.4667 98.9038 34.16C97.9971 34.84 96.8838 35.18 95.5638 35.18C94.4971 35.18 93.5371 34.9467 92.6838 34.48C91.8438 34 91.1838 33.3267 90.7038 32.46C90.2371 31.5933 90.0037 30.5933 90.0037 29.46C90.0037 28.3133 90.2371 27.3067 90.7038 26.44C91.1704 25.5733 91.8238 24.9067 92.6638 24.44C93.5038 23.9733 94.4704 23.74 95.5638 23.74C96.6171 23.74 97.5571 23.9667 98.3838 24.42C99.2238 24.8733 99.8704 25.52 100.324 26.36C100.79 27.1867 101.024 28.14 101.024 29.22ZM98.1238 28.42C98.1104 27.7 97.8504 27.1267 97.3438 26.7C96.8371 26.26 96.2171 26.04 95.4838 26.04C94.7904 26.04 94.2038 26.2533 93.7238 26.68C93.2571 27.0933 92.9704 27.6733 92.8638 28.42H98.1238ZM116.393 32.34H110.833L109.913 35H106.973L111.993 21.02H115.253L120.273 35H117.313L116.393 32.34ZM115.633 30.1L113.613 24.26L111.593 30.1H115.633ZM121.43 29.46C121.43 28.3133 121.663 27.3133 122.13 26.46C122.596 25.5933 123.243 24.9267 124.07 24.46C124.896 23.98 125.843 23.74 126.91 23.74C128.283 23.74 129.416 24.0867 130.31 24.78C131.216 25.46 131.823 26.42 132.13 27.66H129.11C128.95 27.18 128.676 26.8067 128.29 26.54C127.916 26.26 127.45 26.12 126.89 26.12C126.09 26.12 125.456 26.4133 124.99 27C124.523 27.5733 124.29 28.3933 124.29 29.46C124.29 30.5133 124.523 31.3333 124.99 31.92C125.456 32.4933 126.09 32.78 126.89 32.78C128.023 32.78 128.763 32.2733 129.11 31.26H132.13C131.823 32.46 131.216 33.4133 130.31 34.12C129.403 34.8267 128.27 35.18 126.91 35.18C125.843 35.18 124.896 34.9467 124.07 34.48C123.243 34 122.596 33.3333 122.13 32.48C121.663 31.6133 121.43 30.6067 121.43 29.46ZM133.461 29.46C133.461 28.3133 133.694 27.3133 134.161 26.46C134.627 25.5933 135.274 24.9267 136.101 24.46C136.927 23.98 137.874 23.74 138.941 23.74C140.314 23.74 141.447 24.0867 142.341 24.78C143.247 25.46 143.854 26.42 144.161 27.66H141.141C140.981 27.18 140.707 26.8067 140.321 26.54C139.947 26.26 139.481 26.12 138.921 26.12C138.121 26.12 137.487 26.4133 137.021 27C136.554 27.5733 136.321 28.3933 136.321 29.46C136.321 30.5133 136.554 31.3333 137.021 31.92C137.487 32.4933 138.121 32.78 138.921 32.78C140.054 32.78 140.794 32.2733 141.141 31.26H144.161C143.854 32.46 143.247 33.4133 142.341 34.12C141.434 34.8267 140.301 35.18 138.941 35.18C137.874 35.18 136.927 34.9467 136.101 34.48C135.274 34 134.627 33.3333 134.161 32.48C133.694 31.6133 133.461 30.6067 133.461 29.46ZM151.132 35.18C150.065 35.18 149.105 34.9467 148.252 34.48C147.399 34 146.725 33.3267 146.232 32.46C145.752 31.5933 145.512 30.5933 145.512 29.46C145.512 28.3267 145.759 27.3267 146.252 26.46C146.759 25.5933 147.445 24.9267 148.312 24.46C149.179 23.98 150.145 23.74 151.212 23.74C152.279 23.74 153.245 23.98 154.112 24.46C154.979 24.9267 155.659 25.5933 156.152 26.46C156.659 27.3267 156.912 28.3267 156.912 29.46C156.912 30.5933 156.652 31.5933 156.132 32.46C155.625 33.3267 154.932 34 154.052 34.48C153.185 34.9467 152.212 35.18 151.132 35.18ZM151.132 32.74C151.639 32.74 152.112 32.62 152.552 32.38C153.005 32.1267 153.365 31.7533 153.632 31.26C153.899 30.7667 154.032 30.1667 154.032 29.46C154.032 28.4067 153.752 27.6 153.192 27.04C152.645 26.4667 151.972 26.18 151.172 26.18C150.372 26.18 149.699 26.4667 149.152 27.04C148.619 27.6 148.352 28.4067 148.352 29.46C148.352 30.5133 148.612 31.3267 149.132 31.9C149.665 32.46 150.332 32.74 151.132 32.74ZM169.426 23.92V35H166.606V33.6C166.246 34.08 165.773 34.46 165.186 34.74C164.613 35.0067 163.986 35.14 163.306 35.14C162.439 35.14 161.673 34.96 161.006 34.6C160.339 34.2267 159.813 33.6867 159.426 32.98C159.053 32.26 158.866 31.4067 158.866 30.42V23.92H161.666V30.02C161.666 30.9 161.886 31.58 162.326 32.06C162.766 32.5267 163.366 32.76 164.126 32.76C164.899 32.76 165.506 32.5267 165.946 32.06C166.386 31.58 166.606 30.9 166.606 30.02V23.92H169.426ZM178.329 23.76C179.649 23.76 180.715 24.18 181.529 25.02C182.342 25.8467 182.749 27.0067 182.749 28.5V35H179.949V28.88C179.949 28 179.729 27.3267 179.289 26.86C178.849 26.38 178.249 26.14 177.489 26.14C176.715 26.14 176.102 26.38 175.649 26.86C175.209 27.3267 174.989 28 174.989 28.88V35H172.189V23.92H174.989V25.3C175.362 24.82 175.835 24.4467 176.409 24.18C176.995 23.9 177.635 23.76 178.329 23.76ZM188.671 26.22V31.58C188.671 31.9533 188.758 32.2267 188.931 32.4C189.118 32.56 189.425 32.64 189.851 32.64H191.151V35H189.391C187.031 35 185.851 33.8533 185.851 31.56V26.22H184.531V23.92H185.851V21.18H188.671V23.92H191.151V26.22H188.671Z"/>
</mask>
<path d="M43.26 21.04C44.7267 21.04 46.0133 21.3267 47.12 21.9C48.24 22.4733 49.1 23.2933 49.7 24.36C50.3133 25.4133 50.62 26.64 50.62 28.04C50.62 29.44 50.3133 30.6667 49.7 31.72C49.1 32.76 48.24 33.5667 47.12 34.14C46.0133 34.7133 44.7267 35 43.26 35H38.38V21.04H43.26ZM43.16 32.62C44.6267 32.62 45.76 32.22 46.56 31.42C47.36 30.62 47.76 29.4933 47.76 28.04C47.76 26.5867 47.36 25.4533 46.56 24.64C45.76 23.8133 44.6267 23.4 43.16 23.4H41.18V32.62H43.16ZM63.0159 29.22C63.0159 29.62 62.9893 29.98 62.9359 30.3H54.8359C54.9026 31.1 55.1826 31.7267 55.6759 32.18C56.1693 32.6333 56.7759 32.86 57.4959 32.86C58.5359 32.86 59.2759 32.4133 59.7159 31.52H62.7359C62.4159 32.5867 61.8026 33.4667 60.8959 34.16C59.9893 34.84 58.8759 35.18 57.5559 35.18C56.4893 35.18 55.5293 34.9467 54.6759 34.48C53.8359 34 53.1759 33.3267 52.6959 32.46C52.2293 31.5933 51.9959 30.5933 51.9959 29.46C51.9959 28.3133 52.2293 27.3067 52.6959 26.44C53.1626 25.5733 53.8159 24.9067 54.6559 24.44C55.4959 23.9733 56.4626 23.74 57.5559 23.74C58.6093 23.74 59.5493 23.9667 60.3759 24.42C61.2159 24.8733 61.8626 25.52 62.3159 26.36C62.7826 27.1867 63.0159 28.14 63.0159 29.22ZM60.1159 28.42C60.1026 27.7 59.8426 27.1267 59.3359 26.7C58.8293 26.26 58.2093 26.04 57.4759 26.04C56.7826 26.04 56.1959 26.2533 55.7159 26.68C55.2493 27.0933 54.9626 27.6733 54.8559 28.42H60.1159ZM67.8597 20.2V35H65.0597V20.2H67.8597ZM80.9261 29.22C80.9261 29.62 80.8994 29.98 80.8461 30.3H72.7461C72.8128 31.1 73.0928 31.7267 73.5861 32.18C74.0794 32.6333 74.6861 32.86 75.4061 32.86C76.4461 32.86 77.1861 32.4133 77.6261 31.52H80.6461C80.3261 32.5867 79.7128 33.4667 78.8061 34.16C77.8994 34.84 76.7861 35.18 75.4661 35.18C74.3994 35.18 73.4394 34.9467 72.5861 34.48C71.7461 34 71.0861 33.3267 70.6061 32.46C70.1394 31.5933 69.9061 30.5933 69.9061 29.46C69.9061 28.3133 70.1394 27.3067 70.6061 26.44C71.0728 25.5733 71.7261 24.9067 72.5661 24.44C73.4061 23.9733 74.3728 23.74 75.4661 23.74C76.5194 23.74 77.4594 23.9667 78.2861 24.42C79.1261 24.8733 79.7728 25.52 80.2261 26.36C80.6928 27.1867 80.9261 28.14 80.9261 29.22ZM78.0261 28.42C78.0128 27.7 77.7528 27.1267 77.2461 26.7C76.7394 26.26 76.1194 26.04 75.3861 26.04C74.6928 26.04 74.1061 26.2533 73.6261 26.68C73.1594 27.0933 72.8728 27.6733 72.7661 28.42H78.0261ZM86.2298 26.22V31.58C86.2298 31.9533 86.3165 32.2267 86.4898 32.4C86.6765 32.56 86.9832 32.64 87.4098 32.64H88.7098V35H86.9498C84.5898 35 83.4098 33.8533 83.4098 31.56V26.22H82.0898V23.92H83.4098V21.18H86.2298V23.92H88.7098V26.22H86.2298ZM101.024 29.22C101.024 29.62 100.997 29.98 100.944 30.3H92.8438C92.9104 31.1 93.1904 31.7267 93.6838 32.18C94.1771 32.6333 94.7838 32.86 95.5038 32.86C96.5438 32.86 97.2838 32.4133 97.7238 31.52H100.744C100.424 32.5867 99.8104 33.4667 98.9038 34.16C97.9971 34.84 96.8838 35.18 95.5638 35.18C94.4971 35.18 93.5371 34.9467 92.6838 34.48C91.8438 34 91.1838 33.3267 90.7038 32.46C90.2371 31.5933 90.0037 30.5933 90.0037 29.46C90.0037 28.3133 90.2371 27.3067 90.7038 26.44C91.1704 25.5733 91.8238 24.9067 92.6638 24.44C93.5038 23.9733 94.4704 23.74 95.5638 23.74C96.6171 23.74 97.5571 23.9667 98.3838 24.42C99.2238 24.8733 99.8704 25.52 100.324 26.36C100.79 27.1867 101.024 28.14 101.024 29.22ZM98.1238 28.42C98.1104 27.7 97.8504 27.1267 97.3438 26.7C96.8371 26.26 96.2171 26.04 95.4838 26.04C94.7904 26.04 94.2038 26.2533 93.7238 26.68C93.2571 27.0933 92.9704 27.6733 92.8638 28.42H98.1238ZM116.393 32.34H110.833L109.913 35H106.973L111.993 21.02H115.253L120.273 35H117.313L116.393 32.34ZM115.633 30.1L113.613 24.26L111.593 30.1H115.633ZM121.43 29.46C121.43 28.3133 121.663 27.3133 122.13 26.46C122.596 25.5933 123.243 24.9267 124.07 24.46C124.896 23.98 125.843 23.74 126.91 23.74C128.283 23.74 129.416 24.0867 130.31 24.78C131.216 25.46 131.823 26.42 132.13 27.66H129.11C128.95 27.18 128.676 26.8067 128.29 26.54C127.916 26.26 127.45 26.12 126.89 26.12C126.09 26.12 125.456 26.4133 124.99 27C124.523 27.5733 124.29 28.3933 124.29 29.46C124.29 30.5133 124.523 31.3333 124.99 31.92C125.456 32.4933 126.09 32.78 126.89 32.78C128.023 32.78 128.763 32.2733 129.11 31.26H132.13C131.823 32.46 131.216 33.4133 130.31 34.12C129.403 34.8267 128.27 35.18 126.91 35.18C125.843 35.18 124.896 34.9467 124.07 34.48C123.243 34 122.596 33.3333 122.13 32.48C121.663 31.6133 121.43 30.6067 121.43 29.46ZM133.461 29.46C133.461 28.3133 133.694 27.3133 134.161 26.46C134.627 25.5933 135.274 24.9267 136.101 24.46C136.927 23.98 137.874 23.74 138.941 23.74C140.314 23.74 141.447 24.0867 142.341 24.78C143.247 25.46 143.854 26.42 144.161 27.66H141.141C140.981 27.18 140.707 26.8067 140.321 26.54C139.947 26.26 139.481 26.12 138.921 26.12C138.121 26.12 137.487 26.4133 137.021 27C136.554 27.5733 136.321 28.3933 136.321 29.46C136.321 30.5133 136.554 31.3333 137.021 31.92C137.487 32.4933 138.121 32.78 138.921 32.78C140.054 32.78 140.794 32.2733 141.141 31.26H144.161C143.854 32.46 143.247 33.4133 142.341 34.12C141.434 34.8267 140.301 35.18 138.941 35.18C137.874 35.18 136.927 34.9467 136.101 34.48C135.274 34 134.627 33.3333 134.161 32.48C133.694 31.6133 133.461 30.6067 133.461 29.46ZM151.132 35.18C150.065 35.18 149.105 34.9467 148.252 34.48C147.399 34 146.725 33.3267 146.232 32.46C145.752 31.5933 145.512 30.5933 145.512 29.46C145.512 28.3267 145.759 27.3267 146.252 26.46C146.759 25.5933 147.445 24.9267 148.312 24.46C149.179 23.98 150.145 23.74 151.212 23.74C152.279 23.74 153.245 23.98 154.112 24.46C154.979 24.9267 155.659 25.5933 156.152 26.46C156.659 27.3267 156.912 28.3267 156.912 29.46C156.912 30.5933 156.652 31.5933 156.132 32.46C155.625 33.3267 154.932 34 154.052 34.48C153.185 34.9467 152.212 35.18 151.132 35.18ZM151.132 32.74C151.639 32.74 152.112 32.62 152.552 32.38C153.005 32.1267 153.365 31.7533 153.632 31.26C153.899 30.7667 154.032 30.1667 154.032 29.46C154.032 28.4067 153.752 27.6 153.192 27.04C152.645 26.4667 151.972 26.18 151.172 26.18C150.372 26.18 149.699 26.4667 149.152 27.04C148.619 27.6 148.352 28.4067 148.352 29.46C148.352 30.5133 148.612 31.3267 149.132 31.9C149.665 32.46 150.332 32.74 151.132 32.74ZM169.426 23.92V35H166.606V33.6C166.246 34.08 165.773 34.46 165.186 34.74C164.613 35.0067 163.986 35.14 163.306 35.14C162.439 35.14 161.673 34.96 161.006 34.6C160.339 34.2267 159.813 33.6867 159.426 32.98C159.053 32.26 158.866 31.4067 158.866 30.42V23.92H161.666V30.02C161.666 30.9 161.886 31.58 162.326 32.06C162.766 32.5267 163.366 32.76 164.126 32.76C164.899 32.76 165.506 32.5267 165.946 32.06C166.386 31.58 166.606 30.9 166.606 30.02V23.92H169.426ZM178.329 23.76C179.649 23.76 180.715 24.18 181.529 25.02C182.342 25.8467 182.749 27.0067 182.749 28.5V35H179.949V28.88C179.949 28 179.729 27.3267 179.289 26.86C178.849 26.38 178.249 26.14 177.489 26.14C176.715 26.14 176.102 26.38 175.649 26.86C175.209 27.3267 174.989 28 174.989 28.88V35H172.189V23.92H174.989V25.3C175.362 24.82 175.835 24.4467 176.409 24.18C176.995 23.9 177.635 23.76 178.329 23.76ZM188.671 26.22V31.58C188.671 31.9533 188.758 32.2267 188.931 32.4C189.118 32.56 189.425 32.64 189.851 32.64H191.151V35H189.391C187.031 35 185.851 33.8533 185.851 31.56V26.22H184.531V23.92H185.851V21.18H188.671V23.92H191.151V26.22H188.671Z" fill="black"/>
<path d="M47.12 21.9L46.2 23.6759L46.2087 23.6803L47.12 21.9ZM49.7 24.36L47.9568 25.3405L47.9642 25.3535L47.9717 25.3664L49.7 24.36ZM49.7 31.72L47.9716 30.7136L47.9676 30.7206L49.7 31.72ZM47.12 34.14L46.2086 32.3597L46.2 32.3642L47.12 34.14ZM38.38 35H36.38V37H38.38V35ZM38.38 21.04V19.04H36.38V21.04H38.38ZM46.56 31.42L45.1458 30.0058L45.1458 30.0058L46.56 31.42ZM46.56 24.64L45.1228 26.0308L45.1284 26.0367L45.1341 26.0425L46.56 24.64ZM41.18 23.4V21.4H39.18V23.4H41.18ZM41.18 32.62H39.18V34.62H41.18V32.62ZM43.26 23.04C44.463 23.04 45.4239 23.2738 46.2 23.6758L48.04 20.1242C46.6028 19.3796 44.9904 19.04 43.26 19.04V23.04ZM46.2087 23.6803C46.9893 24.0799 47.5552 24.6264 47.9568 25.3405L51.4432 23.3795C50.6448 21.9602 49.4907 20.8668 48.0313 20.1197L46.2087 23.6803ZM47.9717 25.3664C48.382 26.0712 48.62 26.9402 48.62 28.04H52.62C52.62 26.3398 52.2446 24.7555 51.4284 23.3536L47.9717 25.3664ZM48.62 28.04C48.62 29.1398 48.382 30.0088 47.9717 30.7136L51.4284 32.7264C52.2446 31.3245 52.62 29.7402 52.62 28.04H48.62ZM47.9676 30.7206C47.5698 31.4101 47.0027 31.9532 46.2087 32.3597L48.0313 35.9203C49.4773 35.1801 50.6302 34.1099 51.4324 32.7194L47.9676 30.7206ZM46.2 32.3642C45.4239 32.7662 44.463 33 43.26 33V37C44.9904 37 46.6028 36.6604 48.04 35.9158L46.2 32.3642ZM43.26 33H38.38V37H43.26V33ZM40.38 35V21.04H36.38V35H40.38ZM38.38 23.04H43.26V19.04H38.38V23.04ZM43.16 34.62C44.9931 34.62 46.6972 34.1112 47.9742 32.8342L45.1458 30.0058C44.8228 30.3288 44.2602 30.62 43.16 30.62V34.62ZM47.9742 32.8342C49.2479 31.5605 49.76 29.8658 49.76 28.04H45.76C45.76 29.1209 45.4721 29.6795 45.1458 30.0058L47.9742 32.8342ZM49.76 28.04C49.76 26.2124 49.2473 24.52 47.9859 23.2375L45.1341 26.0425C45.4727 26.3866 45.76 26.9609 45.76 28.04H49.76ZM47.9972 23.2492C46.7236 21.9331 45.0114 21.4 43.16 21.4V25.4C44.242 25.4 44.7964 25.6936 45.1228 26.0308L47.9972 23.2492ZM43.16 21.4H41.18V25.4H43.16V21.4ZM39.18 23.4V32.62H43.18V23.4H39.18ZM41.18 34.62H43.16V30.62H41.18V34.62ZM62.9359 30.3V32.3H64.6302L64.9087 30.6288L62.9359 30.3ZM54.8359 30.3V28.3H52.6623L52.8428 30.4661L54.8359 30.3ZM55.6759 32.18L54.3227 33.6527L54.3227 33.6527L55.6759 32.18ZM59.7159 31.52V29.52H58.4716L57.9218 30.6363L59.7159 31.52ZM62.7359 31.52L64.6516 32.0947L65.424 29.52H62.7359V31.52ZM60.8959 34.16L62.0959 35.76L62.1034 35.7544L62.1108 35.7487L60.8959 34.16ZM54.6759 34.48L53.6837 36.2165L53.6999 36.2258L53.7163 36.2347L54.6759 34.48ZM52.6959 32.46L50.935 33.4082L50.9406 33.4186L50.9464 33.429L52.6959 32.46ZM52.6959 26.44L50.935 25.4918L50.935 25.4918L52.6959 26.44ZM54.6559 24.44L55.6272 26.1883L55.6272 26.1883L54.6559 24.44ZM60.3759 24.42L59.4143 26.1737L59.4261 26.18L60.3759 24.42ZM62.3159 26.36L60.5559 27.3099L60.5649 27.3266L60.5743 27.3432L62.3159 26.36ZM60.1159 28.42V30.42H62.1533L62.1156 28.383L60.1159 28.42ZM59.3359 26.7L58.0246 28.2101L58.036 28.22L58.0477 28.2298L59.3359 26.7ZM55.7159 26.68L57.042 28.1772L57.0447 28.1748L55.7159 26.68ZM54.8559 28.42L52.876 28.1372L52.5499 30.42H54.8559V28.42ZM61.0159 29.22C61.0159 29.5341 60.9948 29.7815 60.9632 29.9712L64.9087 30.6288C64.9838 30.1785 65.0159 29.7059 65.0159 29.22H61.0159ZM62.9359 28.3H54.8359V32.3H62.9359V28.3ZM52.8428 30.4661C52.9425 31.6616 53.3888 32.7945 54.3227 33.6527L57.0292 30.7073C56.9764 30.6588 56.8627 30.5384 56.829 30.1339L52.8428 30.4661ZM54.3227 33.6527C55.2141 34.4718 56.3156 34.86 57.4959 34.86V30.86C57.2363 30.86 57.1244 30.7949 57.0292 30.7073L54.3227 33.6527ZM57.4959 34.86C58.3059 34.86 59.1246 34.6839 59.8645 34.2373C60.6096 33.7875 61.1474 33.1402 61.5101 32.4037L57.9218 30.6363C57.8809 30.7193 57.847 30.7637 57.8287 30.7845C57.8117 30.8038 57.8019 30.8101 57.7974 30.8127C57.7973 30.8128 57.726 30.86 57.4959 30.86V34.86ZM59.7159 33.52H62.7359V29.52H59.7159V33.52ZM60.8203 30.9453C60.6245 31.598 60.2621 32.1269 59.681 32.5713L62.1108 35.7487C63.3431 34.8064 64.2074 33.5753 64.6516 32.0947L60.8203 30.9453ZM59.6959 32.56C59.1903 32.9392 58.5172 33.18 57.5559 33.18V37.18C59.2347 37.18 60.7882 36.7408 62.0959 35.76L59.6959 32.56ZM57.5559 33.18C56.7915 33.18 56.1668 33.0158 55.6356 32.7253L53.7163 36.2347C54.8917 36.8775 56.1871 37.18 57.5559 37.18V33.18ZM55.6682 32.7435C55.1541 32.4497 54.7526 32.0454 54.4455 31.491L50.9464 33.429C51.5993 34.6079 52.5178 35.5503 53.6837 36.2165L55.6682 32.7435ZM54.4569 31.5118C54.1694 30.978 53.9959 30.3129 53.9959 29.46H49.9959C49.9959 30.8738 50.2891 32.2087 50.935 33.4082L54.4569 31.5118ZM53.9959 29.46C53.9959 28.5895 54.1712 27.9187 54.4569 27.3882L50.935 25.4918C50.2873 26.6946 49.9959 28.0372 49.9959 29.46H53.9959ZM54.4569 27.3882C54.7469 26.8496 55.13 26.4645 55.6272 26.1883L53.6847 22.6917C52.5018 23.3488 51.5783 24.2971 50.935 25.4918L54.4569 27.3882ZM55.6272 26.1883C56.1312 25.9083 56.755 25.74 57.5559 25.74V21.74C56.1702 21.74 54.8607 22.0383 53.6847 22.6917L55.6272 26.1883ZM57.5559 25.74C58.3132 25.74 58.9156 25.9002 59.4143 26.1736L61.3376 22.6664C60.1829 22.0331 58.9053 21.74 57.5559 21.74V25.74ZM59.4261 26.18C59.9228 26.4481 60.2878 26.8132 60.5559 27.3099L64.076 25.4101C63.4374 24.2268 62.5091 23.2986 61.3258 22.66L59.4261 26.18ZM60.5743 27.3432C60.8494 27.8305 61.0159 28.4363 61.0159 29.22H65.0159C65.0159 27.8437 64.7158 26.5428 64.0576 25.3768L60.5743 27.3432ZM62.1156 28.383C62.0926 27.1427 61.6138 26.0035 60.6242 25.1702L58.0477 28.2298C58.0693 28.2481 58.0791 28.2599 58.0825 28.2644C58.0857 28.2685 58.0875 28.2716 58.0895 28.276C58.0919 28.2814 58.1139 28.3304 58.1163 28.457L62.1156 28.383ZM60.6473 25.1899C59.742 24.4037 58.6429 24.04 57.4759 24.04V28.04C57.7756 28.04 57.9165 28.1163 58.0246 28.2101L60.6473 25.1899ZM57.4759 24.04C56.3351 24.04 55.2637 24.406 54.3872 25.1852L57.0447 28.1748C57.1281 28.1006 57.2301 28.04 57.4759 28.04V24.04ZM54.3899 25.1828C53.4975 25.9732 53.0351 27.0237 52.876 28.1372L56.8358 28.7028C56.8901 28.323 57.001 28.2135 57.042 28.1772L54.3899 25.1828ZM54.8559 30.42H60.1159V26.42H54.8559V30.42ZM67.8597 20.2H69.8597V18.2H67.8597V20.2ZM67.8597 35V37H69.8597V35H67.8597ZM65.0597 35H63.0597V37H65.0597V35ZM65.0597 20.2V18.2H63.0597V20.2H65.0597ZM65.8597 20.2V35H69.8597V20.2H65.8597ZM67.8597 33H65.0597V37H67.8597V33ZM67.0597 35V20.2H63.0597V35H67.0597ZM65.0597 22.2H67.8597V18.2H65.0597V22.2ZM80.8461 30.3V32.3H82.5403L82.8189 30.6288L80.8461 30.3ZM72.7461 30.3V28.3H70.5725L70.753 30.4661L72.7461 30.3ZM73.5861 32.18L72.2328 33.6527L72.2328 33.6527L73.5861 32.18ZM77.6261 31.52V29.52H76.3817L75.8319 30.6363L77.6261 31.52ZM80.6461 31.52L82.5617 32.0947L83.3342 29.52H80.6461V31.52ZM78.8061 34.16L80.0061 35.76L80.0136 35.7544L80.021 35.7487L78.8061 34.16ZM72.5861 34.48L71.5938 36.2165L71.6101 36.2258L71.6265 36.2347L72.5861 34.48ZM70.6061 32.46L68.8452 33.4082L68.8508 33.4186L68.8565 33.429L70.6061 32.46ZM70.6061 26.44L68.8452 25.4918L68.8452 25.4918L70.6061 26.44ZM72.5661 24.44L73.5374 26.1883L73.5374 26.1883L72.5661 24.44ZM78.2861 24.42L77.3244 26.1737L77.3362 26.18L78.2861 24.42ZM80.2261 26.36L78.466 27.3099L78.4751 27.3266L78.4844 27.3432L80.2261 26.36ZM78.0261 28.42V30.42H80.0635L80.0258 28.383L78.0261 28.42ZM77.2461 26.7L75.9347 28.2101L75.9462 28.22L75.9578 28.2298L77.2461 26.7ZM73.6261 26.68L74.9522 28.1772L74.9548 28.1748L73.6261 26.68ZM72.7661 28.42L70.7862 28.1372L70.4601 30.42H72.7661V28.42ZM78.9261 29.22C78.9261 29.5341 78.9049 29.7815 78.8733 29.9712L82.8189 30.6288C82.8939 30.1785 82.9261 29.7059 82.9261 29.22H78.9261ZM80.8461 28.3H72.7461V32.3H80.8461V28.3ZM70.753 30.4661C70.8526 31.6616 71.299 32.7945 72.2328 33.6527L74.9393 30.7073C74.8866 30.6588 74.7729 30.5384 74.7392 30.1339L70.753 30.4661ZM72.2328 33.6527C73.1243 34.4718 74.2257 34.86 75.4061 34.86V30.86C75.1465 30.86 75.0346 30.7949 74.9393 30.7073L72.2328 33.6527ZM75.4061 34.86C76.216 34.86 77.0347 34.6839 77.7746 34.2373C78.5197 33.7875 79.0575 33.1402 79.4203 32.4037L75.8319 30.6363C75.791 30.7193 75.7572 30.7637 75.7389 30.7845C75.7219 30.8038 75.712 30.8101 75.7076 30.8127C75.7075 30.8128 75.6361 30.86 75.4061 30.86V34.86ZM77.6261 33.52H80.6461V29.52H77.6261V33.52ZM78.7304 30.9453C78.5346 31.598 78.1723 32.1269 77.5912 32.5713L80.021 35.7487C81.2532 34.8064 82.1176 33.5753 82.5617 32.0947L78.7304 30.9453ZM77.6061 32.56C77.1005 32.9392 76.4273 33.18 75.4661 33.18V37.18C77.1449 37.18 78.6984 36.7408 80.0061 35.76L77.6061 32.56ZM75.4661 33.18C74.7016 33.18 74.077 33.0158 73.5457 32.7253L71.6265 36.2347C72.8019 36.8775 74.0972 37.18 75.4661 37.18V33.18ZM73.5784 32.7435C73.0642 32.4497 72.6627 32.0454 72.3557 31.491L68.8565 33.429C69.5094 34.6079 70.4279 35.5503 71.5938 36.2165L73.5784 32.7435ZM72.367 31.5118C72.0796 30.978 71.9061 30.3129 71.9061 29.46H67.9061C67.9061 30.8738 68.1993 32.2087 68.8452 33.4082L72.367 31.5118ZM71.9061 29.46C71.9061 28.5895 72.0814 27.9187 72.367 27.3882L68.8452 25.4918C68.1975 26.6946 67.9061 28.0372 67.9061 29.46H71.9061ZM72.367 27.3882C72.6571 26.8496 73.0402 26.4645 73.5374 26.1883L71.5948 22.6917C70.412 23.3488 69.4885 24.2971 68.8452 25.4918L72.367 27.3882ZM73.5374 26.1883C74.0413 25.9083 74.6652 25.74 75.4661 25.74V21.74C74.0804 21.74 72.7708 22.0383 71.5948 22.6917L73.5374 26.1883ZM75.4661 25.74C76.2234 25.74 76.8258 25.9002 77.3244 26.1736L79.2478 22.6664C78.093 22.0331 76.8155 21.74 75.4661 21.74V25.74ZM77.3362 26.18C77.8329 26.4481 78.198 26.8132 78.466 27.3099L81.9861 25.4101C81.3475 24.2268 80.4193 23.2986 79.236 22.66L77.3362 26.18ZM78.4844 27.3432C78.7596 27.8305 78.9261 28.4363 78.9261 29.22H82.9261C82.9261 27.8437 82.626 26.5428 81.9677 25.3768L78.4844 27.3432ZM80.0258 28.383C80.0028 27.1427 79.524 26.0035 78.5344 25.1702L75.9578 28.2298C75.9795 28.2481 75.9892 28.2599 75.9926 28.2644C75.9958 28.2685 75.9976 28.2716 75.9996 28.276C76.0021 28.2814 76.0241 28.3304 76.0264 28.457L80.0258 28.383ZM78.5575 25.1899C77.6522 24.4037 76.5531 24.04 75.3861 24.04V28.04C75.6858 28.04 75.8267 28.1163 75.9347 28.2101L78.5575 25.1899ZM75.3861 24.04C74.2452 24.04 73.1739 24.406 72.2974 25.1852L74.9548 28.1748C75.0383 28.1006 75.1403 28.04 75.3861 28.04V24.04ZM72.3 25.1828C71.4077 25.9732 70.9453 27.0237 70.7862 28.1372L74.746 28.7028C74.8003 28.323 74.9112 28.2135 74.9522 28.1772L72.3 25.1828ZM72.7661 30.42H78.0261V26.42H72.7661V30.42ZM86.2298 26.22V24.22H84.2298V26.22H86.2298ZM86.4898 32.4L85.0756 33.8142L85.1299 33.8685L85.1883 33.9185L86.4898 32.4ZM88.7098 32.64H90.7098V30.64H88.7098V32.64ZM88.7098 35V37H90.7098V35H88.7098ZM83.4098 26.22H85.4098V24.22H83.4098V26.22ZM82.0898 26.22H80.0898V28.22H82.0898V26.22ZM82.0898 23.92V21.92H80.0898V23.92H82.0898ZM83.4098 23.92V25.92H85.4098V23.92H83.4098ZM83.4098 21.18V19.18H81.4098V21.18H83.4098ZM86.2298 21.18H88.2298V19.18H86.2298V21.18ZM86.2298 23.92H84.2298V25.92H86.2298V23.92ZM88.7098 23.92H90.7098V21.92H88.7098V23.92ZM88.7098 26.22V28.22H90.7098V26.22H88.7098ZM84.2298 26.22V31.58H88.2298V26.22H84.2298ZM84.2298 31.58C84.2298 32.2113 84.3707 33.1093 85.0756 33.8142L87.9041 30.9858C88.0795 31.1613 88.1642 31.3436 88.2013 31.4605C88.2354 31.5681 88.2298 31.6199 88.2298 31.58H84.2298ZM85.1883 33.9185C85.9224 34.5478 86.8249 34.64 87.4098 34.64V30.64C87.3122 30.64 87.3076 30.6299 87.3647 30.6448C87.4231 30.66 87.5976 30.7153 87.7914 30.8815L85.1883 33.9185ZM87.4098 34.64H88.7098V30.64H87.4098V34.64ZM86.7098 32.64V35H90.7098V32.64H86.7098ZM88.7098 33H86.9498V37H88.7098V33ZM86.9498 33C86.064 33 85.7696 32.7843 85.6887 32.7057C85.6184 32.6374 85.4098 32.3836 85.4098 31.56H81.4098C81.4098 33.0297 81.7913 34.496 82.901 35.5743C84.0001 36.6424 85.4757 37 86.9498 37V33ZM85.4098 31.56V26.22H81.4098V31.56H85.4098ZM83.4098 24.22H82.0898V28.22H83.4098V24.22ZM84.0898 26.22V23.92H80.0898V26.22H84.0898ZM82.0898 25.92H83.4098V21.92H82.0898V25.92ZM85.4098 23.92V21.18H81.4098V23.92H85.4098ZM83.4098 23.18H86.2298V19.18H83.4098V23.18ZM84.2298 21.18V23.92H88.2298V21.18H84.2298ZM86.2298 25.92H88.7098V21.92H86.2298V25.92ZM86.7098 23.92V26.22H90.7098V23.92H86.7098ZM88.7098 24.22H86.2298V28.22H88.7098V24.22ZM100.944 30.3V32.3H102.638L102.917 30.6288L100.944 30.3ZM92.8438 30.3V28.3H90.6702L90.8507 30.4661L92.8438 30.3ZM93.6838 32.18L92.3305 33.6527L92.3305 33.6527L93.6838 32.18ZM97.7238 31.52V29.52H96.4794L95.9296 30.6363L97.7238 31.52ZM100.744 31.52L102.659 32.0947L103.432 29.52H100.744V31.52ZM98.9038 34.16L100.104 35.76L100.111 35.7544L100.119 35.7487L98.9038 34.16ZM92.6838 34.48L91.6915 36.2165L91.7077 36.2258L91.7241 36.2347L92.6838 34.48ZM90.7038 32.46L88.9428 33.4082L88.9484 33.4186L88.9542 33.429L90.7038 32.46ZM90.7038 26.44L88.9428 25.4918L88.9428 25.4918L90.7038 26.44ZM92.6638 24.44L93.635 26.1883L93.635 26.1883L92.6638 24.44ZM98.3838 24.42L97.4221 26.1737L97.4339 26.18L98.3838 24.42ZM100.324 26.36L98.5637 27.3099L98.5727 27.3266L98.5821 27.3432L100.324 26.36ZM98.1238 28.42V30.42H100.161L100.123 28.383L98.1238 28.42ZM97.3438 26.7L96.0324 28.2101L96.0439 28.22L96.0555 28.2298L97.3438 26.7ZM93.7238 26.68L95.0498 28.1772L95.0525 28.1748L93.7238 26.68ZM92.8638 28.42L90.8839 28.1372L90.5577 30.42H92.8638V28.42ZM99.0238 29.22C99.0238 29.5341 99.0026 29.7815 98.971 29.9712L102.917 30.6288C102.992 30.1785 103.024 29.7059 103.024 29.22H99.0238ZM100.944 28.3H92.8438V32.3H100.944V28.3ZM90.8507 30.4661C90.9503 31.6616 91.3966 32.7945 92.3305 33.6527L95.037 30.7073C94.9842 30.6588 94.8705 30.5384 94.8368 30.1339L90.8507 30.4661ZM92.3305 33.6527C93.2219 34.4718 94.3234 34.86 95.5038 34.86V30.86C95.2441 30.86 95.1323 30.7949 95.037 30.7073L92.3305 33.6527ZM95.5038 34.86C96.3137 34.86 97.1324 34.6839 97.8723 34.2373C98.6174 33.7875 99.1552 33.1402 99.5179 32.4037L95.9296 30.6363C95.8887 30.7193 95.8548 30.7637 95.8365 30.7845C95.8195 30.8038 95.8097 30.8101 95.8052 30.8127C95.8051 30.8128 95.7338 30.86 95.5038 30.86V34.86ZM97.7238 33.52H100.744V29.52H97.7238V33.52ZM98.8281 30.9453C98.6323 31.598 98.2699 32.1269 97.6888 32.5713L100.119 35.7487C101.351 34.8064 102.215 33.5753 102.659 32.0947L98.8281 30.9453ZM97.7038 32.56C97.1981 32.9392 96.525 33.18 95.5638 33.18V37.18C97.2425 37.18 98.796 36.7408 100.104 35.76L97.7038 32.56ZM95.5638 33.18C94.7993 33.18 94.1746 33.0158 93.6434 32.7253L91.7241 36.2347C92.8995 36.8775 94.1949 37.18 95.5638 37.18V33.18ZM93.676 32.7435C93.1619 32.4497 92.7604 32.0454 92.4533 31.491L88.9542 33.429C89.6071 34.6079 90.5256 35.5503 91.6915 36.2165L93.676 32.7435ZM92.4647 31.5118C92.1773 30.978 92.0037 30.3129 92.0037 29.46H88.0037C88.0037 30.8738 88.2969 32.2087 88.9428 33.4082L92.4647 31.5118ZM92.0037 29.46C92.0037 28.5895 92.179 27.9187 92.4647 27.3882L88.9428 25.4918C88.2951 26.6946 88.0037 28.0372 88.0037 29.46H92.0037ZM92.4647 27.3882C92.7547 26.8496 93.1378 26.4645 93.635 26.1883L91.6925 22.6917C90.5097 23.3488 89.5861 24.2971 88.9428 25.4918L92.4647 27.3882ZM93.635 26.1883C94.139 25.9083 94.7628 25.74 95.5638 25.74V21.74C94.178 21.74 92.8685 22.0383 91.6925 22.6917L93.635 26.1883ZM95.5638 25.74C96.321 25.74 96.9235 25.9002 97.4221 26.1736L99.3454 22.6664C98.1907 22.0331 96.9131 21.74 95.5638 21.74V25.74ZM97.4339 26.18C97.9306 26.4481 98.2956 26.8132 98.5637 27.3099L102.084 25.4101C101.445 24.2268 100.517 23.2986 99.3336 22.66L97.4339 26.18ZM98.5821 27.3432C98.8572 27.8305 99.0238 28.4363 99.0238 29.22H103.024C103.024 27.8437 102.724 26.5428 102.065 25.3768L98.5821 27.3432ZM100.123 28.383C100.1 27.1427 99.6216 26.0035 98.632 25.1702L96.0555 28.2298C96.0771 28.2481 96.0869 28.2599 96.0903 28.2644C96.0935 28.2685 96.0953 28.2716 96.0973 28.276C96.0997 28.2814 96.1217 28.3304 96.1241 28.457L100.123 28.383ZM98.6551 25.1899C97.7498 24.4037 96.6508 24.04 95.4838 24.04V28.04C95.7834 28.04 95.9244 28.1163 96.0324 28.2101L98.6551 25.1899ZM95.4838 24.04C94.3429 24.04 93.2716 24.406 92.395 25.1852L95.0525 28.1748C95.1359 28.1006 95.2379 28.04 95.4838 28.04V24.04ZM92.3977 25.1828C91.5054 25.9732 91.0429 27.0237 90.8839 28.1372L94.8436 28.7028C94.8979 28.323 95.0088 28.2135 95.0498 28.1772L92.3977 25.1828ZM92.8638 30.42H98.1238V26.42H92.8638V30.42ZM116.393 32.34L118.283 31.6863L117.818 30.34H116.393V32.34ZM110.833 32.34V30.34H109.409L108.943 31.6863L110.833 32.34ZM109.913 35V37H111.338L111.803 35.6537L109.913 35ZM106.973 35L105.091 34.3241L104.13 37H106.973V35ZM111.993 21.02V19.02H110.586L110.111 20.3441L111.993 21.02ZM115.253 21.02L117.135 20.3441L116.66 19.02H115.253V21.02ZM120.273 35V37H123.116L122.155 34.3241L120.273 35ZM117.313 35L115.423 35.6537L115.889 37H117.313V35ZM115.633 30.1V32.1H118.441L117.523 29.4462L115.633 30.1ZM113.613 24.26L115.503 23.6062L113.613 18.1417L111.723 23.6062L113.613 24.26ZM111.593 30.1L109.703 29.4462L108.785 32.1H111.593V30.1ZM116.393 30.34H110.833V34.34H116.393V30.34ZM108.943 31.6863L108.023 34.3463L111.803 35.6537L112.723 32.9937L108.943 31.6863ZM109.913 33H106.973V37H109.913V33ZM108.855 35.6759L113.875 21.6959L110.111 20.3441L105.091 34.3241L108.855 35.6759ZM111.993 23.02H115.253V19.02H111.993V23.02ZM113.371 21.6959L118.391 35.6759L122.155 34.3241L117.135 20.3441L113.371 21.6959ZM120.273 33H117.313V37H120.273V33ZM119.203 34.3463L118.283 31.6863L114.503 32.9937L115.423 35.6537L119.203 34.3463ZM117.523 29.4462L115.503 23.6062L111.723 24.9138L113.743 30.7538L117.523 29.4462ZM111.723 23.6062L109.703 29.4462L113.483 30.7538L115.503 24.9138L111.723 23.6062ZM111.593 32.1H115.633V28.1H111.593V32.1ZM122.13 26.46L123.884 27.4196L123.89 27.4082L122.13 26.46ZM124.07 24.46L125.053 26.2016L125.063 26.1957L125.074 26.1896L124.07 24.46ZM130.31 24.78L129.083 26.36L129.096 26.3701L129.11 26.38L130.31 24.78ZM132.13 27.66V29.66H134.684L134.071 27.1798L132.13 27.66ZM129.11 27.66L127.212 28.2925L127.668 29.66H129.11V27.66ZM128.29 26.54L127.09 28.14L127.121 28.1639L127.154 28.1864L128.29 26.54ZM124.99 27L126.541 28.2625L126.548 28.2538L126.555 28.245L124.99 27ZM124.99 31.92L123.424 33.165L123.431 33.1738L123.438 33.1825L124.99 31.92ZM129.11 31.26V29.26H127.68L127.217 30.6126L129.11 31.26ZM132.13 31.26L134.067 31.7552L134.705 29.26H132.13V31.26ZM130.31 34.12L131.539 35.6975L131.539 35.6975L130.31 34.12ZM124.07 34.48L123.065 36.2096L123.076 36.2157L123.086 36.2216L124.07 34.48ZM122.13 32.48L120.369 33.4282L120.375 33.4396L122.13 32.48ZM123.43 29.46C123.43 28.5886 123.605 27.9301 123.884 27.4196L120.375 25.5004C119.721 26.6966 119.43 28.0381 119.43 29.46H123.43ZM123.89 27.4082C124.185 26.8612 124.568 26.4755 125.053 26.2016L123.086 22.7184C121.918 23.3778 121.007 24.3254 120.369 25.5118L123.89 27.4082ZM125.074 26.1896C125.561 25.9066 126.154 25.74 126.91 25.74V21.74C125.532 21.74 124.231 22.0534 123.065 22.7304L125.074 26.1896ZM126.91 25.74C127.937 25.74 128.611 25.9934 129.083 26.36L131.536 23.2C130.221 22.1799 128.629 21.74 126.91 21.74V25.74ZM129.11 26.38C129.601 26.7483 129.977 27.2875 130.188 28.1402L134.071 27.1798C133.669 25.5525 132.832 24.1717 131.51 23.18L129.11 26.38ZM132.13 25.66H129.11V29.66H132.13V25.66ZM131.007 27.0275C130.721 26.1696 130.197 25.4261 129.425 24.8936L127.154 28.1864C127.166 28.1946 127.168 28.1982 127.171 28.2015C127.174 28.2061 127.192 28.2308 127.212 28.2925L131.007 27.0275ZM129.49 24.94C128.705 24.3516 127.793 24.12 126.89 24.12V28.12C127.003 28.12 127.063 28.1342 127.085 28.1407C127.103 28.1461 127.099 28.1473 127.09 28.14L129.49 24.94ZM126.89 24.12C125.527 24.12 124.299 24.6556 123.424 25.755L126.555 28.245C126.609 28.177 126.642 28.161 126.655 28.1548C126.672 28.1468 126.737 28.12 126.89 28.12V24.12ZM123.438 25.7375C122.577 26.7959 122.29 28.1319 122.29 29.46H126.29C126.29 28.6547 126.469 28.3508 126.541 28.2625L123.438 25.7375ZM122.29 29.46C122.29 30.7857 122.582 32.1056 123.424 33.165L126.555 30.675C126.464 30.5611 126.29 30.2409 126.29 29.46H122.29ZM123.438 33.1825C124.319 34.2646 125.544 34.78 126.89 34.78V30.78C126.731 30.78 126.661 30.7526 126.639 30.743C126.623 30.7354 126.591 30.7195 126.541 30.6575L123.438 33.1825ZM126.89 34.78C127.753 34.78 128.644 34.5849 129.424 34.0502C130.215 33.5089 130.717 32.7402 131.002 31.9074L127.217 30.6126C127.184 30.7084 127.156 30.7511 127.149 30.7618C127.143 30.7697 127.149 30.7606 127.165 30.7498C127.206 30.7217 127.159 30.78 126.89 30.78V34.78ZM129.11 33.26H132.13V29.26H129.11V33.26ZM130.192 30.7648C129.986 31.571 129.609 32.1299 129.08 32.5425L131.539 35.6975C132.823 34.6968 133.66 33.349 134.067 31.7552L130.192 30.7648ZM129.08 32.5425C128.586 32.9275 127.909 33.18 126.91 33.18V37.18C128.63 37.18 130.22 36.7258 131.539 35.6975L129.08 32.5425ZM126.91 33.18C126.144 33.18 125.544 33.0155 125.053 32.7384L123.086 36.2216C124.249 36.8778 125.542 37.18 126.91 37.18V33.18ZM125.074 32.7504C124.569 32.4571 124.179 32.0593 123.884 31.5204L120.375 33.4396C121.013 34.6074 121.917 35.5429 123.065 36.2096L125.074 32.7504ZM123.89 31.5318C123.605 31.0013 123.43 30.3305 123.43 29.46H119.43C119.43 30.8828 119.721 32.2254 120.369 33.4282L123.89 31.5318ZM134.161 26.46L135.916 27.4196L135.922 27.4082L134.161 26.46ZM136.101 24.46L137.084 26.2016L137.095 26.1957L137.105 26.1896L136.101 24.46ZM142.341 24.78L141.115 26.36L141.128 26.3701L141.141 26.38L142.341 24.78ZM144.161 27.66V29.66H146.716L146.102 27.1798L144.161 27.66ZM141.141 27.66L139.243 28.2925L139.699 29.66H141.141V27.66ZM140.321 26.54L139.121 28.14L139.153 28.1639L139.185 28.1864L140.321 26.54ZM137.021 27L138.572 28.2625L138.579 28.2538L138.586 28.245L137.021 27ZM137.021 31.92L135.456 33.165L135.463 33.1738L135.47 33.1825L137.021 31.92ZM141.141 31.26V29.26H139.711L139.248 30.6126L141.141 31.26ZM144.161 31.26L146.099 31.7552L146.736 29.26H144.161V31.26ZM142.341 34.12L143.57 35.6975L143.57 35.6975L142.341 34.12ZM136.101 34.48L135.097 36.2096L135.107 36.2157L135.118 36.2216L136.101 34.48ZM134.161 32.48L132.4 33.4282L132.406 33.4396L134.161 32.48ZM135.461 29.46C135.461 28.5886 135.636 27.9301 135.916 27.4196L132.406 25.5004C131.752 26.6966 131.461 28.0381 131.461 29.46H135.461ZM135.922 27.4082C136.216 26.8612 136.599 26.4755 137.084 26.2016L135.118 22.7184C133.949 23.3778 133.039 24.3254 132.4 25.5118L135.922 27.4082ZM137.105 26.1896C137.592 25.9066 138.185 25.74 138.941 25.74V21.74C137.563 21.74 136.262 22.0534 135.097 22.7304L137.105 26.1896ZM138.941 25.74C139.968 25.74 140.642 25.9934 141.115 26.36L143.567 23.2C142.253 22.1799 140.66 21.74 138.941 21.74V25.74ZM141.141 26.38C141.632 26.7483 142.008 27.2875 142.219 28.1402L146.102 27.1798C145.7 25.5525 144.863 24.1717 143.541 23.18L141.141 26.38ZM144.161 25.66H141.141V29.66H144.161V25.66ZM143.038 27.0275C142.752 26.1696 142.228 25.4261 141.456 24.8936L139.185 28.1864C139.197 28.1946 139.2 28.1982 139.202 28.2015C139.205 28.2061 139.223 28.2308 139.243 28.2925L143.038 27.0275ZM141.521 24.94C140.736 24.3516 139.825 24.12 138.921 24.12V28.12C139.035 28.12 139.095 28.1342 139.116 28.1407C139.134 28.1461 139.131 28.1473 139.121 28.14L141.521 24.94ZM138.921 24.12C137.558 24.12 136.33 24.6556 135.456 25.755L138.586 28.245C138.64 28.177 138.673 28.161 138.686 28.1548C138.704 28.1468 138.769 28.12 138.921 28.12V24.12ZM135.47 25.7375C134.608 26.7959 134.321 28.1319 134.321 29.46H138.321C138.321 28.6547 138.5 28.3508 138.572 28.2625L135.47 25.7375ZM134.321 29.46C134.321 30.7857 134.613 32.1056 135.456 33.165L138.586 30.675C138.495 30.5611 138.321 30.2409 138.321 29.46H134.321ZM135.47 33.1825C136.35 34.2646 137.576 34.78 138.921 34.78V30.78C138.763 30.78 138.692 30.7526 138.67 30.743C138.654 30.7354 138.622 30.7195 138.572 30.6575L135.47 33.1825ZM138.921 34.78C139.784 34.78 140.675 34.5849 141.456 34.0502C142.246 33.5089 142.748 32.7402 143.033 31.9074L139.248 30.6126C139.216 30.7084 139.188 30.7511 139.18 30.7618C139.174 30.7697 139.18 30.7606 139.196 30.7498C139.237 30.7217 139.191 30.78 138.921 30.78V34.78ZM141.141 33.26H144.161V29.26H141.141V33.26ZM142.223 30.7648C142.017 31.571 141.641 32.1299 141.111 32.5425L143.57 35.6975C144.854 34.6968 145.691 33.349 146.099 31.7552L142.223 30.7648ZM141.111 32.5425C140.617 32.9275 139.94 33.18 138.941 33.18V37.18C140.662 37.18 142.251 36.7258 143.57 35.6975L141.111 32.5425ZM138.941 33.18C138.175 33.18 137.575 33.0155 137.084 32.7384L135.118 36.2216C136.28 36.8778 137.573 37.18 138.941 37.18V33.18ZM137.105 32.7504C136.6 32.4571 136.21 32.0593 135.916 31.5204L132.406 33.4396C133.045 34.6074 133.948 35.5429 135.097 36.2096L137.105 32.7504ZM135.922 31.5318C135.636 31.0013 135.461 30.3305 135.461 29.46H131.461C131.461 30.8828 131.752 32.2254 132.4 33.4282L135.922 31.5318ZM148.252 34.48L147.272 36.2232L147.282 36.229L147.292 36.2347L148.252 34.48ZM146.232 32.46L144.482 33.429L144.488 33.4392L144.494 33.4494L146.232 32.46ZM146.252 26.46L144.525 25.4506L144.52 25.4606L144.514 25.4706L146.252 26.46ZM148.312 24.46L149.26 26.2209L149.271 26.2153L149.281 26.2096L148.312 24.46ZM154.112 24.46L153.143 26.2096L153.153 26.2153L153.164 26.2209L154.112 24.46ZM156.152 26.46L154.414 27.4494L154.42 27.4594L154.425 27.4694L156.152 26.46ZM156.132 32.46L154.417 31.431L154.411 31.4408L154.405 31.4506L156.132 32.46ZM154.052 34.48L155 36.241L155.01 36.2358L154.052 34.48ZM152.552 32.38L153.51 34.1358L153.519 34.1309L153.528 34.1259L152.552 32.38ZM153.632 31.26L155.391 32.211L155.391 32.211L153.632 31.26ZM153.192 27.04L151.745 28.4202L151.761 28.4374L151.778 28.4542L153.192 27.04ZM149.152 27.04L147.705 25.6598L147.704 25.6607L149.152 27.04ZM149.132 31.9L147.651 33.2436L147.667 33.2617L147.684 33.2793L149.132 31.9ZM151.132 33.18C150.368 33.18 149.743 33.0158 149.212 32.7253L147.292 36.2347C148.468 36.8775 149.763 37.18 151.132 37.18V33.18ZM149.233 32.7368C148.702 32.4382 148.288 32.0281 147.97 31.4706L144.494 33.4494C145.163 34.6252 146.096 35.5618 147.272 36.2232L149.233 32.7368ZM147.982 31.491C147.688 30.9613 147.512 30.3037 147.512 29.46H143.512C143.512 30.8829 143.816 32.2254 144.482 33.429L147.982 31.491ZM147.512 29.46C147.512 28.6255 147.691 27.9753 147.99 27.4494L144.514 25.4706C143.827 26.678 143.512 28.0279 143.512 29.46H147.512ZM147.979 27.4694C148.304 26.9134 148.724 26.5098 149.26 26.2209L147.364 22.6991C146.167 23.3436 145.214 24.2733 144.525 25.4506L147.979 27.4694ZM149.281 26.2096C149.829 25.9063 150.458 25.74 151.212 25.74V21.74C149.833 21.74 148.529 22.0537 147.343 22.7104L149.281 26.2096ZM151.212 25.74C151.966 25.74 152.595 25.9063 153.143 26.2096L155.081 22.7104C153.895 22.0537 152.591 21.74 151.212 21.74V25.74ZM153.164 26.2209C153.695 26.5072 154.104 26.9044 154.414 27.4494L157.89 25.4706C157.214 24.2823 156.262 23.3461 155.06 22.6991L153.164 26.2209ZM154.425 27.4694C154.731 27.9919 154.912 28.6347 154.912 29.46H158.912C158.912 28.0186 158.587 26.6615 157.879 25.4506L154.425 27.4694ZM154.912 29.46C154.912 30.2759 154.729 30.9117 154.417 31.431L157.847 33.489C158.575 32.275 158.912 30.9107 158.912 29.46H154.912ZM154.405 31.4506C154.082 32.0037 153.654 32.4187 153.094 32.7242L155.01 36.2358C156.21 35.5813 157.169 34.6497 157.859 33.4694L154.405 31.4506ZM153.104 32.7191C152.556 33.0139 151.914 33.18 151.132 33.18V37.18C152.51 37.18 153.815 36.8794 155 36.2409L153.104 32.7191ZM151.132 34.74C151.97 34.74 152.773 34.5379 153.51 34.1358L151.594 30.6242C151.451 30.7021 151.308 30.74 151.132 30.74V34.74ZM153.528 34.1259C154.339 33.6725 154.959 33.0106 155.391 32.211L151.873 30.309C151.771 30.4961 151.672 30.5808 151.576 30.6341L153.528 34.1259ZM155.391 32.211C155.852 31.3592 156.032 30.4141 156.032 29.46H152.032C152.032 29.9193 151.946 30.1741 151.873 30.309L155.391 32.211ZM156.032 29.46C156.032 28.0573 155.652 26.6719 154.606 25.6258L151.778 28.4542C151.852 28.5281 152.032 28.7561 152.032 29.46H156.032ZM154.64 25.6598C153.711 24.6863 152.513 24.18 151.172 24.18V28.18C151.431 28.18 151.58 28.2471 151.745 28.4202L154.64 25.6598ZM151.172 24.18C149.831 24.18 148.633 24.6863 147.705 25.6598L150.6 28.4202C150.765 28.2471 150.913 28.18 151.172 28.18V24.18ZM147.704 25.6607C146.704 26.7101 146.352 28.0823 146.352 29.46H150.352C150.352 28.731 150.533 28.4899 150.6 28.4193L147.704 25.6607ZM146.352 29.46C146.352 30.8289 146.692 32.1872 147.651 33.2436L150.613 30.5564C150.532 30.4661 150.352 30.1978 150.352 29.46H146.352ZM147.684 33.2793C148.609 34.2508 149.806 34.74 151.132 34.74V30.74C150.858 30.74 150.722 30.6692 150.58 30.5207L147.684 33.2793ZM169.426 23.92H171.426V21.92H169.426V23.92ZM169.426 35V37H171.426V35H169.426ZM166.606 35H164.606V37H166.606V35ZM166.606 33.6H168.606V27.6L165.006 32.4L166.606 33.6ZM165.186 34.74L166.029 36.5534L166.038 36.5492L166.047 36.545L165.186 34.74ZM161.006 34.6L160.029 36.345L160.042 36.3525L160.056 36.3598L161.006 34.6ZM159.426 32.98L157.65 33.9006L157.661 33.9204L157.671 33.94L159.426 32.98ZM158.866 23.92V21.92H156.866V23.92H158.866ZM161.666 23.92H163.666V21.92H161.666V23.92ZM162.326 32.06L160.852 33.4114L160.861 33.4218L160.871 33.432L162.326 32.06ZM165.946 32.06L167.401 33.432L167.411 33.4218L167.42 33.4114L165.946 32.06ZM166.606 23.92V21.92H164.606V23.92H166.606ZM167.426 23.92V35H171.426V23.92H167.426ZM169.426 33H166.606V37H169.426V33ZM168.606 35V33.6H164.606V35H168.606ZM165.006 32.4C164.856 32.6005 164.645 32.7822 164.324 32.935L166.047 36.545C166.901 36.1378 167.636 35.5595 168.206 34.8L165.006 32.4ZM164.342 32.9266C164.053 33.0612 163.717 33.14 163.306 33.14V37.14C164.255 37.14 165.172 36.9521 166.029 36.5534L164.342 32.9266ZM163.306 33.14C162.723 33.14 162.291 33.0211 161.956 32.8402L160.056 36.3598C161.054 36.8989 162.156 37.14 163.306 37.14V33.14ZM161.983 32.855C161.662 32.6753 161.397 32.4159 161.18 32.02L157.671 33.94C158.228 34.9574 159.016 35.778 160.029 36.345L161.983 32.855ZM161.201 32.0594C161.004 31.679 160.866 31.1548 160.866 30.42H156.866C156.866 31.6585 157.101 32.841 157.65 33.9006L161.201 32.0594ZM160.866 30.42V23.92H156.866V30.42H160.866ZM158.866 25.92H161.666V21.92H158.866V25.92ZM159.666 23.92V30.02H163.666V23.92H159.666ZM159.666 30.02C159.666 31.2219 159.97 32.4493 160.852 33.4114L163.8 30.7086C163.793 30.7001 163.764 30.6681 163.734 30.5744C163.701 30.4731 163.666 30.2974 163.666 30.02H159.666ZM160.871 33.432C161.758 34.3733 162.926 34.76 164.126 34.76V30.76C163.95 30.76 163.862 30.7331 163.831 30.721C163.807 30.7116 163.796 30.7043 163.781 30.688L160.871 33.432ZM164.126 34.76C165.328 34.76 166.507 34.3805 167.401 33.432L164.491 30.688C164.479 30.7003 164.471 30.7077 164.443 30.7183C164.408 30.7319 164.313 30.76 164.126 30.76V34.76ZM167.42 33.4114C168.302 32.4493 168.606 31.2219 168.606 30.02H164.606C164.606 30.2974 164.571 30.4731 164.538 30.5744C164.508 30.6681 164.479 30.7001 164.472 30.7086L167.42 33.4114ZM168.606 30.02V23.92H164.606V30.02H168.606ZM166.606 25.92H169.426V21.92H166.606V25.92ZM181.529 25.02L180.092 26.4112L180.097 26.417L180.103 26.4227L181.529 25.02ZM182.749 35V37H184.749V35H182.749ZM179.949 35H177.949V37H179.949V35ZM179.289 26.86L177.814 28.2114L177.824 28.2218L177.833 28.232L179.289 26.86ZM175.649 26.86L174.195 25.4868L174.193 25.488L175.649 26.86ZM174.989 35V37H176.989V35H174.989ZM172.189 35H170.189V37H172.189V35ZM172.189 23.92V21.92H170.189V23.92H172.189ZM174.989 23.92H176.989V21.92H174.989V23.92ZM174.989 25.3H172.989V31.1291L176.567 26.5279L174.989 25.3ZM176.409 24.18L177.252 25.9934L177.261 25.9892L177.27 25.985L176.409 24.18ZM178.329 25.76C179.184 25.76 179.705 26.0121 180.092 26.4112L182.965 23.6288C181.725 22.3479 180.114 21.76 178.329 21.76V25.76ZM180.103 26.4227C180.451 26.7762 180.749 27.374 180.749 28.5H184.749C184.749 26.6394 184.233 24.9171 182.954 23.6173L180.103 26.4227ZM180.749 28.5V35H184.749V28.5H180.749ZM182.749 33H179.949V37H182.749V33ZM181.949 35V28.88H177.949V35H181.949ZM181.949 28.88C181.949 27.6822 181.646 26.4454 180.744 25.488L177.833 28.232C177.835 28.2334 177.839 28.2383 177.846 28.2508C177.854 28.2639 177.868 28.2905 177.882 28.3362C177.913 28.4305 177.949 28.602 177.949 28.88H181.949ZM180.763 25.5086C179.88 24.5453 178.707 24.14 177.489 24.14V28.14C177.658 28.14 177.74 28.1665 177.766 28.177C177.785 28.1846 177.796 28.191 177.814 28.2114L180.763 25.5086ZM177.489 24.14C176.268 24.14 175.091 24.5378 174.195 25.4868L177.103 28.2332C177.127 28.2073 177.146 28.1946 177.177 28.1825C177.215 28.1677 177.309 28.14 177.489 28.14V24.14ZM174.193 25.488C173.291 26.4454 172.989 27.6822 172.989 28.88H176.989C176.989 28.602 177.024 28.4305 177.055 28.3362C177.07 28.2905 177.083 28.2639 177.091 28.2508C177.098 28.2383 177.102 28.2334 177.104 28.232L174.193 25.488ZM172.989 28.88V35H176.989V28.88H172.989ZM174.989 33H172.189V37H174.989V33ZM174.189 35V23.92H170.189V35H174.189ZM172.189 25.92H174.989V21.92H172.189V25.92ZM172.989 23.92V25.3H176.989V23.92H172.989ZM176.567 26.5279C176.738 26.3088 176.955 26.1316 177.252 25.9934L175.565 22.3666C174.716 22.7617 173.986 23.3312 173.41 24.0721L176.567 26.5279ZM177.27 25.985C177.57 25.8418 177.913 25.76 178.329 25.76V21.76C177.357 21.76 176.421 21.9582 175.547 22.375L177.27 25.985ZM188.671 26.22V24.22H186.671V26.22H188.671ZM188.931 32.4L187.517 33.8142L187.571 33.8685L187.63 33.9185L188.931 32.4ZM191.151 32.64H193.151V30.64H191.151V32.64ZM191.151 35V37H193.151V35H191.151ZM185.851 26.22H187.851V24.22H185.851V26.22ZM184.531 26.22H182.531V28.22H184.531V26.22ZM184.531 23.92V21.92H182.531V23.92H184.531ZM185.851 23.92V25.92H187.851V23.92H185.851ZM185.851 21.18V19.18H183.851V21.18H185.851ZM188.671 21.18H190.671V19.18H188.671V21.18ZM188.671 23.92H186.671V25.92H188.671V23.92ZM191.151 23.92H193.151V21.92H191.151V23.92ZM191.151 26.22V28.22H193.151V26.22H191.151ZM186.671 26.22V31.58H190.671V26.22H186.671ZM186.671 31.58C186.671 32.2113 186.812 33.1093 187.517 33.8142L190.345 30.9858C190.521 31.1613 190.606 31.3436 190.643 31.4605C190.677 31.5681 190.671 31.6199 190.671 31.58H186.671ZM187.63 33.9185C188.364 34.5478 189.266 34.64 189.851 34.64V30.64C189.754 30.64 189.749 30.6299 189.806 30.6448C189.865 30.66 190.039 30.7153 190.233 30.8815L187.63 33.9185ZM189.851 34.64H191.151V30.64H189.851V34.64ZM189.151 32.64V35H193.151V32.64H189.151ZM191.151 33H189.391V37H191.151V33ZM189.391 33C188.505 33 188.211 32.7843 188.13 32.7057C188.06 32.6374 187.851 32.3836 187.851 31.56H183.851C183.851 33.0297 184.233 34.496 185.342 35.5743C186.442 36.6424 187.917 37 189.391 37V33ZM187.851 31.56V26.22H183.851V31.56H187.851ZM185.851 24.22H184.531V28.22H185.851V24.22ZM186.531 26.22V23.92H182.531V26.22H186.531ZM184.531 25.92H185.851V21.92H184.531V25.92ZM187.851 23.92V21.18H183.851V23.92H187.851ZM185.851 23.18H188.671V19.18H185.851V23.18ZM186.671 21.18V23.92H190.671V21.18H186.671ZM188.671 25.92H191.151V21.92H188.671V25.92ZM189.151 23.92V26.22H193.151V23.92H189.151ZM191.151 24.22H188.671V28.22H191.151V24.22Z" fill="black" mask="url(#path-3-inside-1_543_76)"/>
</svg>
