<svg width="346" height="56" viewBox="0 0 346 56" fill="none" xmlns="http://www.w3.org/2000/svg">
<rect x="0.5" y="0.5" width="345" height="55" rx="19.5" fill="black" stroke="black"/>
<path d="M124.18 23.3V26.8H128.88V29.02H124.18V32.72H129.48V35H121.38V21.02H129.48V23.3H124.18ZM131.305 29.42C131.305 28.3 131.525 27.3067 131.965 26.44C132.418 25.5733 133.031 24.9067 133.805 24.44C134.578 23.9733 135.438 23.74 136.385 23.74C137.105 23.74 137.791 23.9 138.445 24.22C139.098 24.5267 139.618 24.94 140.005 25.46V20.2H142.845V35H140.005V33.36C139.658 33.9067 139.171 34.3467 138.545 34.68C137.918 35.0133 137.191 35.18 136.365 35.18C135.431 35.18 134.578 34.94 133.805 34.46C133.031 33.98 132.418 33.3067 131.965 32.44C131.525 31.56 131.305 30.5533 131.305 29.42ZM140.025 29.46C140.025 28.78 139.891 28.2 139.625 27.72C139.358 27.2267 138.998 26.8533 138.545 26.6C138.091 26.3333 137.605 26.2 137.085 26.2C136.565 26.2 136.085 26.3267 135.645 26.58C135.205 26.8333 134.845 27.2067 134.565 27.7C134.298 28.18 134.165 28.7533 134.165 29.42C134.165 30.0867 134.298 30.6733 134.565 31.18C134.845 31.6733 135.205 32.0533 135.645 32.32C136.098 32.5867 136.578 32.72 137.085 32.72C137.605 32.72 138.091 32.5933 138.545 32.34C138.998 32.0733 139.358 31.7 139.625 31.22C139.891 30.7267 140.025 30.14 140.025 29.46ZM146.999 22.6C146.506 22.6 146.093 22.4467 145.759 22.14C145.439 21.82 145.279 21.4267 145.279 20.96C145.279 20.4933 145.439 20.1067 145.759 19.8C146.093 19.48 146.506 19.32 146.999 19.32C147.493 19.32 147.899 19.48 148.219 19.8C148.553 20.1067 148.719 20.4933 148.719 20.96C148.719 21.4267 148.553 21.82 148.219 22.14C147.899 22.4467 147.493 22.6 146.999 22.6ZM148.379 23.92V35H145.579V23.92H148.379ZM154.406 26.22V31.58C154.406 31.9533 154.492 32.2267 154.666 32.4C154.852 32.56 155.159 32.64 155.586 32.64H156.886V35H155.126C152.766 35 151.586 33.8533 151.586 31.56V26.22H150.266V23.92H151.586V21.18H154.406V23.92H156.886V26.22H154.406ZM173.845 25.36C173.845 26.1067 173.665 26.8067 173.305 27.46C172.958 28.1133 172.405 28.64 171.645 29.04C170.898 29.44 169.952 29.64 168.805 29.64H166.465V35H163.665V21.04H168.805C169.885 21.04 170.805 21.2267 171.565 21.6C172.325 21.9733 172.892 22.4867 173.265 23.14C173.652 23.7933 173.845 24.5333 173.845 25.36ZM168.685 27.38C169.458 27.38 170.032 27.2067 170.405 26.86C170.778 26.5 170.965 26 170.965 25.36C170.965 24 170.205 23.32 168.685 23.32H166.465V27.38H168.685ZM178.633 25.64C178.993 25.0533 179.46 24.5933 180.033 24.26C180.62 23.9267 181.286 23.76 182.033 23.76V26.7H181.293C180.413 26.7 179.746 26.9067 179.293 27.32C178.853 27.7333 178.633 28.4533 178.633 29.48V35H175.833V23.92H178.633V25.64ZM188.839 35.18C187.772 35.18 186.812 34.9467 185.959 34.48C185.106 34 184.432 33.3267 183.939 32.46C183.459 31.5933 183.219 30.5933 183.219 29.46C183.219 28.3267 183.466 27.3267 183.959 26.46C184.466 25.5933 185.152 24.9267 186.019 24.46C186.886 23.98 187.852 23.74 188.919 23.74C189.986 23.74 190.952 23.98 191.819 24.46C192.686 24.9267 193.366 25.5933 193.859 26.46C194.366 27.3267 194.619 28.3267 194.619 29.46C194.619 30.5933 194.359 31.5933 193.839 32.46C193.332 33.3267 192.639 34 191.759 34.48C190.892 34.9467 189.919 35.18 188.839 35.18ZM188.839 32.74C189.346 32.74 189.819 32.62 190.259 32.38C190.712 32.1267 191.072 31.7533 191.339 31.26C191.606 30.7667 191.739 30.1667 191.739 29.46C191.739 28.4067 191.459 27.6 190.899 27.04C190.352 26.4667 189.679 26.18 188.879 26.18C188.079 26.18 187.406 26.4667 186.859 27.04C186.326 27.6 186.059 28.4067 186.059 29.46C186.059 30.5133 186.319 31.3267 186.839 31.9C187.372 32.46 188.039 32.74 188.839 32.74ZM201.753 26.22H199.813V35H196.973V26.22H195.713V23.92H196.973V23.36C196.973 22 197.36 21 198.133 20.36C198.906 19.72 200.073 19.42 201.633 19.46V21.82C200.953 21.8067 200.48 21.92 200.213 22.16C199.946 22.4 199.813 22.8333 199.813 23.46V23.92H201.753V26.22ZM204.988 22.6C204.494 22.6 204.081 22.4467 203.748 22.14C203.428 21.82 203.268 21.4267 203.268 20.96C203.268 20.4933 203.428 20.1067 203.748 19.8C204.081 19.48 204.494 19.32 204.988 19.32C205.481 19.32 205.888 19.48 206.208 19.8C206.541 20.1067 206.708 20.4933 206.708 20.96C206.708 21.4267 206.541 21.82 206.208 22.14C205.888 22.4467 205.481 22.6 204.988 22.6ZM206.368 23.92V35H203.568V23.92H206.368ZM211.934 20.2V35H209.134V20.2H211.934ZM225 29.22C225 29.62 224.974 29.98 224.92 30.3H216.82C216.887 31.1 217.167 31.7267 217.66 32.18C218.154 32.6333 218.76 32.86 219.48 32.86C220.52 32.86 221.26 32.4133 221.7 31.52H224.72C224.4 32.5867 223.787 33.4667 222.88 34.16C221.974 34.84 220.86 35.18 219.54 35.18C218.474 35.18 217.514 34.9467 216.66 34.48C215.82 34 215.16 33.3267 214.68 32.46C214.214 31.5933 213.98 30.5933 213.98 29.46C213.98 28.3133 214.214 27.3067 214.68 26.44C215.147 25.5733 215.8 24.9067 216.64 24.44C217.48 23.9733 218.447 23.74 219.54 23.74C220.594 23.74 221.534 23.9667 222.36 24.42C223.2 24.8733 223.847 25.52 224.3 26.36C224.767 27.1867 225 28.14 225 29.22ZM222.1 28.42C222.087 27.7 221.827 27.1267 221.32 26.7C220.814 26.26 220.194 26.04 219.46 26.04C218.767 26.04 218.18 26.2533 217.7 26.68C217.234 27.0933 216.947 27.6733 216.84 28.42H222.1Z" fill="white"/>
</svg>
