<svg width="285" height="62" viewBox="0 0 285 62" fill="none" xmlns="http://www.w3.org/2000/svg">
<rect width="285" height="62" rx="30" fill="#92A2C7"/>
<path d="M84.78 25.94V30.02H89.58V31.88H84.78V36.14H90.18V38H82.5V24.08H90.18V25.94H84.78ZM98.5483 26.8C99.4149 26.8 100.188 26.98 100.868 27.34C101.562 27.7 102.102 28.2333 102.488 28.94C102.875 29.6467 103.068 30.5 103.068 31.5V38H100.808V31.84C100.808 30.8533 100.562 30.1 100.068 29.58C99.5749 29.0467 98.9016 28.78 98.0483 28.78C97.1949 28.78 96.5149 29.0467 96.0083 29.58C95.5149 30.1 95.2683 30.8533 95.2683 31.84V38H92.9883V26.98H95.2683V28.24C95.6416 27.7867 96.1149 27.4333 96.6883 27.18C97.2749 26.9267 97.8949 26.8 98.5483 26.8ZM105.217 32.44C105.217 31.3333 105.443 30.3533 105.897 29.5C106.363 28.6467 106.99 27.9867 107.777 27.52C108.577 27.04 109.463 26.8 110.437 26.8C111.157 26.8 111.863 26.96 112.557 27.28C113.263 27.5867 113.823 28 114.237 28.52V23.2H116.537V38H114.237V36.34C113.863 36.8733 113.343 37.3133 112.677 37.66C112.023 38.0067 111.27 38.18 110.417 38.18C109.457 38.18 108.577 37.94 107.777 37.46C106.99 36.9667 106.363 36.2867 105.897 35.42C105.443 34.54 105.217 33.5467 105.217 32.44ZM114.237 32.48C114.237 31.72 114.077 31.06 113.757 30.5C113.45 29.94 113.043 29.5133 112.537 29.22C112.03 28.9267 111.483 28.78 110.897 28.78C110.31 28.78 109.763 28.9267 109.257 29.22C108.75 29.5 108.337 29.92 108.017 30.48C107.71 31.0267 107.557 31.68 107.557 32.44C107.557 33.2 107.71 33.8667 108.017 34.44C108.337 35.0133 108.75 35.4533 109.257 35.76C109.777 36.0533 110.323 36.2 110.897 36.2C111.483 36.2 112.03 36.0533 112.537 35.76C113.043 35.4667 113.45 35.04 113.757 34.48C114.077 33.9067 114.237 33.24 114.237 32.48ZM132.307 24.1V34.12C132.307 35.36 131.927 36.34 131.167 37.06C130.42 37.78 129.433 38.14 128.207 38.14C126.98 38.14 125.987 37.78 125.227 37.06C124.48 36.34 124.107 35.36 124.107 34.12H126.407C126.42 34.7333 126.573 35.22 126.867 35.58C127.173 35.94 127.62 36.12 128.207 36.12C128.793 36.12 129.24 35.94 129.547 35.58C129.853 35.2067 130.007 34.72 130.007 34.12V24.1H132.307ZM140.796 38.18C139.756 38.18 138.816 37.9467 137.976 37.48C137.136 37 136.476 36.3333 135.996 35.48C135.516 34.6133 135.276 33.6133 135.276 32.48C135.276 31.36 135.522 30.3667 136.016 29.5C136.509 28.6333 137.182 27.9667 138.036 27.5C138.889 27.0333 139.842 26.8 140.896 26.8C141.949 26.8 142.902 27.0333 143.756 27.5C144.609 27.9667 145.282 28.6333 145.776 29.5C146.269 30.3667 146.516 31.36 146.516 32.48C146.516 33.6 146.262 34.5933 145.756 35.46C145.249 36.3267 144.556 37 143.676 37.48C142.809 37.9467 141.849 38.18 140.796 38.18ZM140.796 36.2C141.382 36.2 141.929 36.06 142.436 35.78C142.956 35.5 143.376 35.08 143.696 34.52C144.016 33.96 144.176 33.28 144.176 32.48C144.176 31.68 144.022 31.0067 143.716 30.46C143.409 29.9 143.002 29.48 142.496 29.2C141.989 28.92 141.442 28.78 140.856 28.78C140.269 28.78 139.722 28.92 139.216 29.2C138.722 29.48 138.329 29.9 138.036 30.46C137.742 31.0067 137.596 31.68 137.596 32.48C137.596 33.6667 137.896 34.5867 138.496 35.24C139.109 35.88 139.876 36.2 140.796 36.2ZM158.75 26.98V38H156.47V36.7C156.11 37.1533 155.636 37.5133 155.05 37.78C154.476 38.0333 153.863 38.16 153.21 38.16C152.343 38.16 151.563 37.98 150.87 37.62C150.19 37.26 149.65 36.7267 149.25 36.02C148.863 35.3133 148.67 34.46 148.67 33.46V26.98H150.93V33.12C150.93 34.1067 151.176 34.8667 151.67 35.4C152.163 35.92 152.836 36.18 153.69 36.18C154.543 36.18 155.216 35.92 155.71 35.4C156.216 34.8667 156.47 34.1067 156.47 33.12V26.98H158.75ZM164.038 28.58C164.371 28.02 164.811 27.5867 165.358 27.28C165.918 26.96 166.578 26.8 167.338 26.8V29.16H166.758C165.864 29.16 165.184 29.3867 164.718 29.84C164.264 30.2933 164.038 31.08 164.038 32.2V38H161.758V26.98H164.038V28.58ZM174.994 26.8C175.86 26.8 176.634 26.98 177.314 27.34C178.007 27.7 178.547 28.2333 178.934 28.94C179.32 29.6467 179.514 30.5 179.514 31.5V38H177.254V31.84C177.254 30.8533 177.007 30.1 176.514 29.58C176.02 29.0467 175.347 28.78 174.494 28.78C173.64 28.78 172.96 29.0467 172.454 29.58C171.96 30.1 171.714 30.8533 171.714 31.84V38H169.434V26.98H171.714V28.24C172.087 27.7867 172.56 27.4333 173.134 27.18C173.72 26.9267 174.34 26.8 174.994 26.8ZM192.522 32.22C192.522 32.6333 192.495 33.0067 192.442 33.34H184.022C184.089 34.22 184.415 34.9267 185.002 35.46C185.589 35.9933 186.309 36.26 187.162 36.26C188.389 36.26 189.255 35.7467 189.762 34.72H192.222C191.889 35.7333 191.282 36.5667 190.402 37.22C189.535 37.86 188.455 38.18 187.162 38.18C186.109 38.18 185.162 37.9467 184.322 37.48C183.495 37 182.842 36.3333 182.362 35.48C181.895 34.6133 181.662 33.6133 181.662 32.48C181.662 31.3467 181.889 30.3533 182.342 29.5C182.809 28.6333 183.455 27.9667 184.282 27.5C185.122 27.0333 186.082 26.8 187.162 26.8C188.202 26.8 189.129 27.0267 189.942 27.48C190.755 27.9333 191.389 28.5733 191.842 29.4C192.295 30.2133 192.522 31.1533 192.522 32.22ZM190.142 31.5C190.129 30.66 189.829 29.9867 189.242 29.48C188.655 28.9733 187.929 28.72 187.062 28.72C186.275 28.72 185.602 28.9733 185.042 29.48C184.482 29.9733 184.149 30.6467 184.042 31.5H190.142ZM204.686 26.98L197.926 43.18H195.566L197.806 37.82L193.466 26.98H196.006L199.106 35.38L202.326 26.98H204.686Z" fill="white"/>
</svg>
