<svg width="67" height="67" viewBox="0 0 67 67" fill="none" xmlns="http://www.w3.org/2000/svg">
<path d="M30.7084 11.1667H18.9834C14.2929 11.1667 11.9477 11.1667 10.1562 12.0795C8.58035 12.8824 7.29913 14.1636 6.49619 15.7395C5.58337 17.531 5.58337 19.8762 5.58337 24.5667V48.0167C5.58337 52.7071 5.58337 55.0523 6.49619 56.8438C7.29913 58.4197 8.58035 59.7009 10.1562 60.5038C11.9477 61.4167 14.2929 61.4167 18.9834 61.4167H42.4334C47.1238 61.4167 49.469 61.4167 51.2605 60.5038C52.8364 59.7009 54.1176 58.4197 54.9206 56.8438C55.8334 55.0523 55.8334 52.7071 55.8334 48.0167V36.2917M22.3333 44.6667H27.0081C28.3737 44.6667 29.0565 44.6667 29.6991 44.5124C30.2688 44.3756 30.8134 44.15 31.313 43.8439C31.8764 43.4986 32.3592 43.0158 33.3249 42.0501L60.0209 15.3542C62.3336 13.0415 62.3336 9.29184 60.0209 6.97915C57.7082 4.66646 53.9586 4.66645 51.6459 6.97914L24.9498 33.6751C23.9842 34.6408 23.5013 35.1236 23.1561 35.6871C22.8499 36.1866 22.6243 36.7312 22.4876 37.3009C22.3333 37.9435 22.3333 38.6263 22.3333 39.992V44.6667Z" stroke="black" stroke-width="2" stroke-linecap="round" stroke-linejoin="round"/>
</svg>
