<svg width="235" height="233" viewBox="0 0 235 233" fill="none" xmlns="http://www.w3.org/2000/svg">
<path d="M114.651 218.954C114.651 218.976 114.652 218.998 114.652 219.02C114.749 221.56 114.161 224.655 112.431 227.063C110.766 229.382 107.915 231.25 103.022 231.25C97.8484 231.25 94.9348 230.016 93.2553 228.141C91.5389 226.224 90.755 223.251 90.755 218.954C90.755 217.331 90.2176 215.958 89.206 215.01C88.213 214.079 86.9281 213.716 85.7231 213.782C83.3364 213.914 80.8838 215.789 80.8838 218.954C80.8838 220.915 79.8157 224.029 77.4971 226.665C75.2296 229.242 71.8641 231.25 67.3429 231.25C61.4921 231.25 57.9042 229.03 55.7101 225.931C53.4484 222.737 52.5277 218.402 52.5277 214.037V136.08C52.5277 94.2151 83.2781 60.5746 120.861 60.5746C158.444 60.5746 189.194 94.2151 189.194 136.08V214.037C189.194 219.798 187.959 224.067 185.618 226.875C183.327 229.624 179.741 231.25 174.379 231.25C167.478 231.25 164.476 228.983 163.048 226.662C161.51 224.162 161.475 221.138 161.475 218.954C161.475 217.22 160.776 215.82 159.608 214.908C158.493 214.037 157.1 213.723 155.822 213.782C153.411 213.892 150.33 215.531 150.33 218.954C150.33 221.023 150.158 224.138 148.722 226.702C148.022 227.95 147.026 229.061 145.58 229.871C144.127 230.685 142.125 231.25 139.338 231.25C133.15 231.25 130.461 229.028 129.157 226.702C127.739 224.17 127.708 221.11 127.708 218.954C127.708 214.615 124.711 211.525 121.371 211.157C119.67 210.969 117.909 211.509 116.605 212.931C115.324 214.327 114.651 216.384 114.651 218.954Z" fill="white" stroke="black" stroke-width="3.5" stroke-linecap="round" stroke-linejoin="round"/>
<ellipse cx="99.836" cy="111.499" rx="3.18561" ry="3.5116" fill="black"/>
<ellipse cx="143.16" cy="111.499" rx="3.18561" ry="3.5116" fill="black"/>
<path d="M190.076 65.418L189.077 64.1932C189.343 63.9345 189.589 63.7314 189.814 63.5839C190.044 63.4367 190.28 63.3388 190.522 63.2903C190.766 63.245 191.038 63.2363 191.337 63.2643C191.583 63.2926 191.807 63.3076 192.01 63.3091C192.213 63.3106 192.4 63.2852 192.569 63.2328C192.742 63.1776 192.902 63.0772 193.048 62.9317C193.219 62.763 193.336 62.5945 193.4 62.4263C193.471 62.2584 193.489 62.0893 193.456 61.919C193.426 61.7519 193.343 61.5851 193.207 61.4186C193.095 61.2809 192.963 61.1805 192.81 61.1173C192.661 61.0512 192.499 61.035 192.325 61.0687C192.153 61.1056 191.975 61.2126 191.79 61.3898L190.654 59.9968C191.064 59.6078 191.478 59.3799 191.896 59.3131C192.319 59.2466 192.727 59.3141 193.12 59.5156C193.516 59.7142 193.879 60.0168 194.211 60.4235C194.577 60.8718 194.823 61.323 194.949 61.7771C195.078 62.2283 195.083 62.6667 194.963 63.0925C194.846 63.5154 194.605 63.9087 194.238 64.2724C193.982 64.5255 193.71 64.6966 193.422 64.7855C193.137 64.8716 192.837 64.911 192.523 64.9036C192.209 64.8962 191.875 64.8771 191.52 64.8461C191.222 64.812 190.963 64.8427 190.744 64.9384C190.527 65.0373 190.305 65.1972 190.076 65.418ZM187.599 65.3977C187.787 65.2115 188 65.1277 188.238 65.1464C188.479 65.1622 188.696 65.2886 188.89 65.5255C189.08 65.7593 189.17 66.0092 189.159 66.2752C189.153 66.5415 189.056 66.7678 188.868 66.954C188.686 67.1344 188.474 67.2151 188.23 67.1961C187.989 67.1803 187.773 67.0555 187.582 66.8218C187.389 66.5848 187.298 66.3333 187.309 66.0673C187.32 65.8013 187.417 65.5781 187.599 65.3977Z" fill="#FF2D2D"/>
<path d="M178.78 31.9522L175.982 31.6884C176.041 31.0298 176.136 30.467 176.268 29.9998C176.408 29.526 176.614 29.1063 176.885 28.7409C177.164 28.3761 177.523 28.0225 177.962 27.6803C178.33 27.405 178.653 27.1403 178.93 26.8861C179.208 26.6319 179.431 26.3651 179.6 26.0859C179.77 25.7994 179.869 25.473 179.897 25.1067C179.93 24.6819 179.892 24.3241 179.782 24.0333C179.679 23.7359 179.506 23.5018 179.261 23.3312C179.024 23.1612 178.715 23.0583 178.335 23.0225C178.02 22.9928 177.722 23.0348 177.441 23.1485C177.16 23.2548 176.921 23.4389 176.724 23.7007C176.534 23.9632 176.418 24.3211 176.375 24.7746L173.193 24.4746C173.293 23.4731 173.588 22.6671 174.077 22.0565C174.575 21.4393 175.209 21.0084 175.979 20.7638C176.75 20.5118 177.6 20.4296 178.529 20.5172C179.553 20.6138 180.418 20.8651 181.123 21.271C181.829 21.6696 182.351 22.2095 182.689 22.8907C183.027 23.5645 183.16 24.3593 183.089 25.2749C183.04 25.9122 182.872 26.4682 182.584 26.9429C182.297 27.4102 181.936 27.8373 181.501 28.2243C181.066 28.6112 180.589 29.009 180.071 29.4176C179.625 29.7519 179.31 30.1169 179.124 30.5126C178.946 30.909 178.831 31.3889 178.78 31.9522ZM175.39 35.0526C175.426 34.5838 175.617 34.2107 175.963 33.9334C176.309 33.6488 176.753 33.532 177.294 33.583C177.828 33.6334 178.244 33.8312 178.541 34.1766C178.847 34.5153 178.981 34.919 178.945 35.3878C178.909 35.842 178.715 36.211 178.361 36.495C178.015 36.7796 177.575 36.8968 177.041 36.8464C176.5 36.7954 176.08 36.5972 175.783 36.2519C175.486 35.9065 175.354 35.5068 175.39 35.0526Z" fill="#FF2D2D"/>
<path d="M209.238 23.7952L206.114 21.8343C206.52 21.0683 206.92 20.4402 207.314 19.9499C207.721 19.4562 208.176 19.0669 208.68 18.782C209.192 18.5022 209.792 18.2831 210.48 18.1247C211.049 18.0058 211.561 17.8733 212.015 17.7271C212.469 17.581 212.867 17.3878 213.207 17.1477C213.552 16.8989 213.835 16.5604 214.056 16.132C214.313 15.635 214.452 15.1777 214.473 14.7598C214.507 14.3385 214.425 13.9525 214.227 13.6017C214.038 13.256 213.731 12.9499 213.307 12.6833C212.955 12.4629 212.587 12.3392 212.2 12.3123C211.819 12.2768 211.446 12.3604 211.081 12.5629C210.725 12.7706 210.406 13.1374 210.123 13.6635L206.571 11.4334C207.201 10.275 207.959 9.46837 208.843 9.01344C209.739 8.55507 210.699 8.40313 211.723 8.55763C212.75 8.70357 213.783 9.10207 214.82 9.75315C215.964 10.4709 216.842 11.2831 217.455 12.1899C218.073 13.0881 218.403 14.05 218.447 15.0757C218.495 16.0928 218.242 17.1369 217.689 18.2078C217.304 18.9532 216.822 19.5301 216.243 19.9384C215.669 20.3381 215.029 20.6454 214.323 20.8604C213.617 21.0754 212.857 21.2793 212.044 21.4721C211.353 21.6169 210.797 21.8753 210.378 22.2474C209.967 22.6247 209.587 23.1406 209.238 23.7952ZM203.695 25.5747C203.978 25.0264 204.392 24.6851 204.938 24.5508C205.487 24.408 206.064 24.5262 206.669 24.9056C207.265 25.2798 207.648 25.764 207.817 26.3579C207.998 26.9485 207.948 27.5179 207.664 28.0663C207.39 28.5975 206.974 28.9319 206.416 29.0696C205.866 29.2125 205.293 29.0968 204.697 28.7225C204.093 28.3432 203.706 27.8565 203.537 27.2625C203.368 26.6685 203.421 26.1059 203.695 25.5747Z" fill="#FF2D2D"/>
<path d="M130.267 133.427L114.008 133.427" stroke="black" stroke-width="2.5" stroke-linecap="round" stroke-linejoin="round"/>
<path d="M47.8013 122.474C51.7848 117.366 54.8425 110.023 54.8425 102.809C54.8425 86.7228 43.0139 73.6837 28.4212 73.6837C13.8286 73.6837 2 86.7228 2 102.809C2 118.895 13.8286 131.934 28.4212 131.934C34.9656 131.934 41.3608 128.857 45.9947 124.466L66.2277 148.628C66.9922 149.541 68.3869 149.568 69.1869 148.687V148.687C69.8658 147.938 69.8658 146.797 69.1869 146.048L47.8013 122.474ZM28.4212 128.449C18.2999 128.449 4.70987 120.483 4.70987 102.809C4.70987 91.6516 13.4763 76.6709 28.4212 76.6709C38.5426 76.6709 51.681 85.6325 51.681 102.809C51.681 113.966 43.2849 128.449 28.4212 128.449Z" fill="#3865E0" stroke="#FF2D2D" stroke-width="4"/>
</svg>
