<svg width="928" height="60" viewBox="0 0 928 60" fill="none" xmlns="http://www.w3.org/2000/svg">
<path d="M15 0.25H913C921.146 0.25 927.75 6.8538 927.75 15V45C927.75 53.1462 921.146 59.75 913 59.75H15C6.85378 59.75 0.25 53.1462 0.25 45V15C0.25 6.8538 6.8538 0.25 15 0.25Z" stroke="black" stroke-width="0.5"/>
<path d="M15 0.25H913C921.146 0.25 927.75 6.8538 927.75 15V45C927.75 53.1462 921.146 59.75 913 59.75H15C6.85378 59.75 0.25 53.1462 0.25 45V15C0.25 6.8538 6.8538 0.25 15 0.25Z" stroke="black" stroke-opacity="0.2" stroke-width="0.5"/>
</svg>
