<svg width="225" height="56" viewBox="0 0 225 56" fill="none" xmlns="http://www.w3.org/2000/svg">
<rect x="1" y="1" width="223" height="54" rx="19" fill="#F5F1EC" stroke="black" stroke-width="2"/>
<rect x="1" y="1" width="223" height="54" rx="19" fill="#F5F1EC" stroke="black" stroke-width="2"/>
<mask id="path-3-inside-1_543_67" fill="white">
<path d="M78.18 32.78H82.78V35H75.38V21.04H78.18V32.78ZM89.4797 35.18C88.413 35.18 87.453 34.9467 86.5997 34.48C85.7464 34 85.073 33.3267 84.5797 32.46C84.0997 31.5933 83.8597 30.5933 83.8597 29.46C83.8597 28.3267 84.1064 27.3267 84.5997 26.46C85.1064 25.5933 85.793 24.9267 86.6597 24.46C87.5264 23.98 88.493 23.74 89.5597 23.74C90.6264 23.74 91.593 23.98 92.4597 24.46C93.3264 24.9267 94.0064 25.5933 94.4997 26.46C95.0064 27.3267 95.2597 28.3267 95.2597 29.46C95.2597 30.5933 94.9997 31.5933 94.4797 32.46C93.973 33.3267 93.2797 34 92.3997 34.48C91.533 34.9467 90.5597 35.18 89.4797 35.18ZM89.4797 32.74C89.9864 32.74 90.4597 32.62 90.8997 32.38C91.353 32.1267 91.713 31.7533 91.9797 31.26C92.2464 30.7667 92.3797 30.1667 92.3797 29.46C92.3797 28.4067 92.0997 27.6 91.5397 27.04C90.993 26.4667 90.3197 26.18 89.5197 26.18C88.7197 26.18 88.0464 26.4667 87.4997 27.04C86.9664 27.6 86.6997 28.4067 86.6997 29.46C86.6997 30.5133 86.9597 31.3267 87.4797 31.9C88.013 32.46 88.6797 32.74 89.4797 32.74ZM101.654 23.74C102.48 23.74 103.207 23.9067 103.834 24.24C104.46 24.56 104.954 24.98 105.314 25.5V23.92H108.134V35.08C108.134 36.1067 107.927 37.02 107.514 37.82C107.1 38.6333 106.48 39.2733 105.654 39.74C104.827 40.22 103.827 40.46 102.654 40.46C101.08 40.46 99.7869 40.0933 98.7736 39.36C97.7736 38.6267 97.2069 37.6267 97.0736 36.36H99.8536C100 36.8667 100.314 37.2667 100.794 37.56C101.287 37.8667 101.88 38.02 102.574 38.02C103.387 38.02 104.047 37.7733 104.554 37.28C105.06 36.8 105.314 36.0667 105.314 35.08V33.36C104.954 33.88 104.454 34.3133 103.814 34.66C103.187 35.0067 102.467 35.18 101.654 35.18C100.72 35.18 99.8669 34.94 99.0936 34.46C98.3203 33.98 97.7069 33.3067 97.2536 32.44C96.8136 31.56 96.5936 30.5533 96.5936 29.42C96.5936 28.3 96.8136 27.3067 97.2536 26.44C97.7069 25.5733 98.3136 24.9067 99.0736 24.44C99.8469 23.9733 100.707 23.74 101.654 23.74ZM105.314 29.46C105.314 28.78 105.18 28.2 104.914 27.72C104.647 27.2267 104.287 26.8533 103.834 26.6C103.38 26.3333 102.894 26.2 102.374 26.2C101.854 26.2 101.374 26.3267 100.934 26.58C100.494 26.8333 100.134 27.2067 99.8536 27.7C99.5869 28.18 99.4536 28.7533 99.4536 29.42C99.4536 30.0867 99.5869 30.6733 99.8536 31.18C100.134 31.6733 100.494 32.0533 100.934 32.32C101.387 32.5867 101.867 32.72 102.374 32.72C102.894 32.72 103.38 32.5933 103.834 32.34C104.287 32.0733 104.647 31.7 104.914 31.22C105.18 30.7267 105.314 30.14 105.314 29.46ZM122.114 35.14C120.807 35.14 119.607 34.8333 118.514 34.22C117.421 33.6067 116.554 32.76 115.914 31.68C115.274 30.5867 114.954 29.3533 114.954 27.98C114.954 26.62 115.274 25.4 115.914 24.32C116.554 23.2267 117.421 22.3733 118.514 21.76C119.607 21.1467 120.807 20.84 122.114 20.84C123.434 20.84 124.634 21.1467 125.714 21.76C126.807 22.3733 127.667 23.2267 128.294 24.32C128.934 25.4 129.254 26.62 129.254 27.98C129.254 29.3533 128.934 30.5867 128.294 31.68C127.667 32.76 126.807 33.6067 125.714 34.22C124.621 34.8333 123.421 35.14 122.114 35.14ZM122.114 32.64C122.954 32.64 123.694 32.4533 124.334 32.08C124.974 31.6933 125.474 31.1467 125.834 30.44C126.194 29.7333 126.374 28.9133 126.374 27.98C126.374 27.0467 126.194 26.2333 125.834 25.54C125.474 24.8333 124.974 24.2933 124.334 23.92C123.694 23.5467 122.954 23.36 122.114 23.36C121.274 23.36 120.527 23.5467 119.874 23.92C119.234 24.2933 118.734 24.8333 118.374 25.54C118.014 26.2333 117.834 27.0467 117.834 27.98C117.834 28.9133 118.014 29.7333 118.374 30.44C118.734 31.1467 119.234 31.6933 119.874 32.08C120.527 32.4533 121.274 32.64 122.114 32.64ZM141.797 23.92V35H138.977V33.6C138.617 34.08 138.144 34.46 137.557 34.74C136.984 35.0067 136.357 35.14 135.677 35.14C134.81 35.14 134.044 34.96 133.377 34.6C132.71 34.2267 132.184 33.6867 131.797 32.98C131.424 32.26 131.237 31.4067 131.237 30.42V23.92H134.037V30.02C134.037 30.9 134.257 31.58 134.697 32.06C135.137 32.5267 135.737 32.76 136.497 32.76C137.27 32.76 137.877 32.5267 138.317 32.06C138.757 31.58 138.977 30.9 138.977 30.02V23.92H141.797ZM147.82 26.22V31.58C147.82 31.9533 147.906 32.2267 148.08 32.4C148.266 32.56 148.573 32.64 149 32.64H150.3V35H148.54C146.18 35 145 33.8533 145 31.56V26.22H143.68V23.92H145V21.18H147.82V23.92H150.3V26.22H147.82Z"/>
</mask>
<path d="M78.18 32.78H82.78V35H75.38V21.04H78.18V32.78ZM89.4797 35.18C88.413 35.18 87.453 34.9467 86.5997 34.48C85.7464 34 85.073 33.3267 84.5797 32.46C84.0997 31.5933 83.8597 30.5933 83.8597 29.46C83.8597 28.3267 84.1064 27.3267 84.5997 26.46C85.1064 25.5933 85.793 24.9267 86.6597 24.46C87.5264 23.98 88.493 23.74 89.5597 23.74C90.6264 23.74 91.593 23.98 92.4597 24.46C93.3264 24.9267 94.0064 25.5933 94.4997 26.46C95.0064 27.3267 95.2597 28.3267 95.2597 29.46C95.2597 30.5933 94.9997 31.5933 94.4797 32.46C93.973 33.3267 93.2797 34 92.3997 34.48C91.533 34.9467 90.5597 35.18 89.4797 35.18ZM89.4797 32.74C89.9864 32.74 90.4597 32.62 90.8997 32.38C91.353 32.1267 91.713 31.7533 91.9797 31.26C92.2464 30.7667 92.3797 30.1667 92.3797 29.46C92.3797 28.4067 92.0997 27.6 91.5397 27.04C90.993 26.4667 90.3197 26.18 89.5197 26.18C88.7197 26.18 88.0464 26.4667 87.4997 27.04C86.9664 27.6 86.6997 28.4067 86.6997 29.46C86.6997 30.5133 86.9597 31.3267 87.4797 31.9C88.013 32.46 88.6797 32.74 89.4797 32.74ZM101.654 23.74C102.48 23.74 103.207 23.9067 103.834 24.24C104.46 24.56 104.954 24.98 105.314 25.5V23.92H108.134V35.08C108.134 36.1067 107.927 37.02 107.514 37.82C107.1 38.6333 106.48 39.2733 105.654 39.74C104.827 40.22 103.827 40.46 102.654 40.46C101.08 40.46 99.7869 40.0933 98.7736 39.36C97.7736 38.6267 97.2069 37.6267 97.0736 36.36H99.8536C100 36.8667 100.314 37.2667 100.794 37.56C101.287 37.8667 101.88 38.02 102.574 38.02C103.387 38.02 104.047 37.7733 104.554 37.28C105.06 36.8 105.314 36.0667 105.314 35.08V33.36C104.954 33.88 104.454 34.3133 103.814 34.66C103.187 35.0067 102.467 35.18 101.654 35.18C100.72 35.18 99.8669 34.94 99.0936 34.46C98.3203 33.98 97.7069 33.3067 97.2536 32.44C96.8136 31.56 96.5936 30.5533 96.5936 29.42C96.5936 28.3 96.8136 27.3067 97.2536 26.44C97.7069 25.5733 98.3136 24.9067 99.0736 24.44C99.8469 23.9733 100.707 23.74 101.654 23.74ZM105.314 29.46C105.314 28.78 105.18 28.2 104.914 27.72C104.647 27.2267 104.287 26.8533 103.834 26.6C103.38 26.3333 102.894 26.2 102.374 26.2C101.854 26.2 101.374 26.3267 100.934 26.58C100.494 26.8333 100.134 27.2067 99.8536 27.7C99.5869 28.18 99.4536 28.7533 99.4536 29.42C99.4536 30.0867 99.5869 30.6733 99.8536 31.18C100.134 31.6733 100.494 32.0533 100.934 32.32C101.387 32.5867 101.867 32.72 102.374 32.72C102.894 32.72 103.38 32.5933 103.834 32.34C104.287 32.0733 104.647 31.7 104.914 31.22C105.18 30.7267 105.314 30.14 105.314 29.46ZM122.114 35.14C120.807 35.14 119.607 34.8333 118.514 34.22C117.421 33.6067 116.554 32.76 115.914 31.68C115.274 30.5867 114.954 29.3533 114.954 27.98C114.954 26.62 115.274 25.4 115.914 24.32C116.554 23.2267 117.421 22.3733 118.514 21.76C119.607 21.1467 120.807 20.84 122.114 20.84C123.434 20.84 124.634 21.1467 125.714 21.76C126.807 22.3733 127.667 23.2267 128.294 24.32C128.934 25.4 129.254 26.62 129.254 27.98C129.254 29.3533 128.934 30.5867 128.294 31.68C127.667 32.76 126.807 33.6067 125.714 34.22C124.621 34.8333 123.421 35.14 122.114 35.14ZM122.114 32.64C122.954 32.64 123.694 32.4533 124.334 32.08C124.974 31.6933 125.474 31.1467 125.834 30.44C126.194 29.7333 126.374 28.9133 126.374 27.98C126.374 27.0467 126.194 26.2333 125.834 25.54C125.474 24.8333 124.974 24.2933 124.334 23.92C123.694 23.5467 122.954 23.36 122.114 23.36C121.274 23.36 120.527 23.5467 119.874 23.92C119.234 24.2933 118.734 24.8333 118.374 25.54C118.014 26.2333 117.834 27.0467 117.834 27.98C117.834 28.9133 118.014 29.7333 118.374 30.44C118.734 31.1467 119.234 31.6933 119.874 32.08C120.527 32.4533 121.274 32.64 122.114 32.64ZM141.797 23.92V35H138.977V33.6C138.617 34.08 138.144 34.46 137.557 34.74C136.984 35.0067 136.357 35.14 135.677 35.14C134.81 35.14 134.044 34.96 133.377 34.6C132.71 34.2267 132.184 33.6867 131.797 32.98C131.424 32.26 131.237 31.4067 131.237 30.42V23.92H134.037V30.02C134.037 30.9 134.257 31.58 134.697 32.06C135.137 32.5267 135.737 32.76 136.497 32.76C137.27 32.76 137.877 32.5267 138.317 32.06C138.757 31.58 138.977 30.9 138.977 30.02V23.92H141.797ZM147.82 26.22V31.58C147.82 31.9533 147.906 32.2267 148.08 32.4C148.266 32.56 148.573 32.64 149 32.64H150.3V35H148.54C146.18 35 145 33.8533 145 31.56V26.22H143.68V23.92H145V21.18H147.82V23.92H150.3V26.22H147.82Z" fill="black"/>
<path d="M78.18 32.78H76.18V34.78H78.18V32.78ZM82.78 32.78H84.78V30.78H82.78V32.78ZM82.78 35V37H84.78V35H82.78ZM75.38 35H73.38V37H75.38V35ZM75.38 21.04V19.04H73.38V21.04H75.38ZM78.18 21.04H80.18V19.04H78.18V21.04ZM78.18 34.78H82.78V30.78H78.18V34.78ZM80.78 32.78V35H84.78V32.78H80.78ZM82.78 33H75.38V37H82.78V33ZM77.38 35V21.04H73.38V35H77.38ZM75.38 23.04H78.18V19.04H75.38V23.04ZM76.18 21.04V32.78H80.18V21.04H76.18ZM86.5997 34.48L85.6192 36.2232L85.6296 36.229L85.6401 36.2347L86.5997 34.48ZM84.5797 32.46L82.8301 33.429L82.8358 33.4392L82.8416 33.4494L84.5797 32.46ZM84.5997 26.46L82.8731 25.4506L82.8673 25.4606L82.8616 25.4706L84.5997 26.46ZM86.6597 24.46L87.6079 26.2209L87.6183 26.2153L87.6287 26.2096L86.6597 24.46ZM92.4597 24.46L91.4907 26.2096L91.5011 26.2153L91.5115 26.2209L92.4597 24.46ZM94.4997 26.46L92.7616 27.4494L92.7673 27.4594L92.7731 27.4694L94.4997 26.46ZM94.4797 32.46L92.7647 31.431L92.7588 31.4408L92.7531 31.4506L94.4797 32.46ZM92.3997 34.48L93.3479 36.241L93.3574 36.2358L92.3997 34.48ZM90.8997 32.38L91.8574 34.1358L91.8664 34.1309L91.8753 34.1259L90.8997 32.38ZM91.9797 31.26L93.7391 32.211L93.7391 32.211L91.9797 31.26ZM91.5397 27.04L90.0922 28.4202L90.1086 28.4374L90.1255 28.4542L91.5397 27.04ZM87.4997 27.04L86.0522 25.6598L86.0514 25.6607L87.4997 27.04ZM87.4797 31.9L85.9982 33.2436L86.0146 33.2617L86.0314 33.2793L87.4797 31.9ZM89.4797 33.18C88.7152 33.18 88.0906 33.0158 87.5593 32.7253L85.6401 36.2347C86.8155 36.8775 88.1108 37.18 89.4797 37.18V33.18ZM87.5802 32.7368C87.0492 32.4382 86.6352 32.0281 86.3178 31.4706L82.8416 33.4494C83.5109 34.6252 84.4435 35.5618 85.6192 36.2232L87.5802 32.7368ZM86.3293 31.491C86.0359 30.9613 85.8597 30.3037 85.8597 29.46H81.8597C81.8597 30.8829 82.1635 32.2254 82.8301 33.429L86.3293 31.491ZM85.8597 29.46C85.8597 28.6255 86.0384 27.9753 86.3378 27.4494L82.8616 25.4706C82.1743 26.678 81.8597 28.0279 81.8597 29.46H85.8597ZM86.3263 27.4694C86.6514 26.9134 87.0715 26.5098 87.6079 26.2209L85.7115 22.6991C84.5145 23.3436 83.5614 24.2733 82.8731 25.4506L86.3263 27.4694ZM87.6287 26.2096C88.1762 25.9063 88.8053 25.74 89.5597 25.74V21.74C88.1808 21.74 86.8765 22.0537 85.6907 22.7104L87.6287 26.2096ZM89.5597 25.74C90.3141 25.74 90.9431 25.9063 91.4907 26.2096L93.4287 22.7104C92.2429 22.0537 90.9386 21.74 89.5597 21.74V25.74ZM91.5115 26.2209C92.0431 26.5072 92.4513 26.9044 92.7616 27.4494L96.2378 25.4706C95.5614 24.2823 94.6096 23.3461 93.4079 22.6991L91.5115 26.2209ZM92.7731 27.4694C93.0785 27.9919 93.2597 28.6347 93.2597 29.46H97.2597C97.2597 28.0186 96.9342 26.6615 96.2263 25.4506L92.7731 27.4694ZM93.2597 29.46C93.2597 30.2759 93.0763 30.9117 92.7647 31.431L96.1947 33.489C96.9231 32.275 97.2597 30.9107 97.2597 29.46H93.2597ZM92.7531 31.4506C92.4298 32.0037 92.0021 32.4187 91.442 32.7242L93.3574 36.2358C94.5573 35.5813 95.5163 34.6497 96.2063 33.4694L92.7531 31.4506ZM91.4515 32.7191C90.9039 33.0139 90.2616 33.18 89.4797 33.18V37.18C90.8578 37.18 92.1622 36.8794 93.3479 36.2409L91.4515 32.7191ZM89.4797 34.74C90.3172 34.74 91.1203 34.5379 91.8574 34.1358L89.942 30.6242C89.7991 30.7021 89.6555 30.74 89.4797 30.74V34.74ZM91.8753 34.1259C92.6866 33.6725 93.3069 33.0106 93.7391 32.211L90.2203 30.309C90.1191 30.4961 90.0194 30.5808 89.924 30.6341L91.8753 34.1259ZM93.7391 32.211C94.1995 31.3592 94.3797 30.4141 94.3797 29.46H90.3797C90.3797 29.9193 90.2932 30.1741 90.2203 30.309L93.7391 32.211ZM94.3797 29.46C94.3797 28.0573 94.0001 26.6719 92.9539 25.6258L90.1255 28.4542C90.1993 28.5281 90.3797 28.7561 90.3797 29.46H94.3797ZM92.9872 25.6598C92.0589 24.6863 90.8605 24.18 89.5197 24.18V28.18C89.7789 28.18 89.9272 28.2471 90.0922 28.4202L92.9872 25.6598ZM89.5197 24.18C88.1789 24.18 86.9805 24.6863 86.0522 25.6598L88.9472 28.4202C89.1122 28.2471 89.2605 28.18 89.5197 28.18V24.18ZM86.0514 25.6607C85.052 26.7101 84.6997 28.0823 84.6997 29.46H88.6997C88.6997 28.731 88.8807 28.4899 88.948 28.4193L86.0514 25.6607ZM84.6997 29.46C84.6997 30.8289 85.0401 32.1872 85.9982 33.2436L88.9611 30.5564C88.8793 30.4661 88.6997 30.1978 88.6997 29.46H84.6997ZM86.0314 33.2793C86.9566 34.2508 88.1536 34.74 89.4797 34.74V30.74C89.2058 30.74 89.0694 30.6692 88.928 30.5207L86.0314 33.2793ZM103.834 24.24L102.894 26.0057L102.909 26.0136L102.924 26.0212L103.834 24.24ZM105.314 25.5L103.669 26.6384L107.314 31.9025V25.5H105.314ZM105.314 23.92V21.92H103.314V23.92H105.314ZM108.134 23.92H110.134V21.92H108.134V23.92ZM107.514 37.82L105.737 36.9019L105.731 36.9139L107.514 37.82ZM105.654 39.74L104.67 37.9984L104.66 38.0043L104.649 38.0104L105.654 39.74ZM98.7736 39.36L97.5908 40.9728L97.6011 40.9802L98.7736 39.36ZM97.0736 36.36V34.36H94.852L95.0846 36.5694L97.0736 36.36ZM99.8536 36.36L101.775 35.8039L101.357 34.36H99.8536V36.36ZM100.794 37.56L101.849 35.8614L101.843 35.8574L101.836 35.8534L100.794 37.56ZM104.554 37.28L103.178 35.8281L103.168 35.8375L103.158 35.8471L104.554 37.28ZM105.314 33.36H107.314V26.9575L103.669 32.2216L105.314 33.36ZM103.814 34.66L102.861 32.9014L102.853 32.9056L102.845 32.9099L103.814 34.66ZM99.0936 34.46L100.148 32.7607L100.148 32.7607L99.0936 34.46ZM97.2536 32.44L95.4647 33.3344L95.4729 33.3508L95.4814 33.367L97.2536 32.44ZM97.2536 26.44L95.4814 25.513L95.4758 25.5238L95.4703 25.5346L97.2536 26.44ZM99.0736 24.44L98.0403 22.7276L98.0337 22.7316L98.0271 22.7357L99.0736 24.44ZM104.914 27.72L103.154 28.671L103.16 28.6812L103.165 28.6913L104.914 27.72ZM103.834 26.6L102.82 28.3239L102.839 28.3351L102.858 28.3459L103.834 26.6ZM100.934 26.58L99.9357 24.8468L99.9357 24.8468L100.934 26.58ZM99.8536 27.7L98.1142 26.7128L98.1097 26.7207L98.1053 26.7287L99.8536 27.7ZM99.8536 31.18L98.0838 32.1115L98.0985 32.1396L98.1142 32.1672L99.8536 31.18ZM100.934 32.32L99.897 34.0304L99.9082 34.0372L99.9196 34.0439L100.934 32.32ZM103.834 32.34L104.809 34.0859L104.829 34.0751L104.848 34.0639L103.834 32.34ZM104.914 31.22L106.662 32.1913L106.668 32.1812L106.673 32.171L104.914 31.22ZM101.654 25.74C102.207 25.74 102.601 25.8498 102.894 26.0057L104.773 22.4743C103.813 21.9636 102.754 21.74 101.654 21.74V25.74ZM102.924 26.0212C103.29 26.2082 103.518 26.4196 103.669 26.6384L106.958 24.3616C106.389 23.5404 105.63 22.9118 104.743 22.4588L102.924 26.0212ZM107.314 25.5V23.92H103.314V25.5H107.314ZM105.314 25.92H108.134V21.92H105.314V25.92ZM106.134 23.92V35.08H110.134V23.92H106.134ZM106.134 35.08C106.134 35.8323 105.984 36.4233 105.737 36.902L109.29 38.738C109.87 37.6167 110.134 36.381 110.134 35.08H106.134ZM105.731 36.9139C105.503 37.3613 105.169 37.7171 104.67 37.9984L106.637 41.4816C107.792 40.8296 108.697 39.9054 109.297 38.7261L105.731 36.9139ZM104.649 38.0104C104.19 38.2771 103.554 38.46 102.654 38.46V42.46C104.1 42.46 105.464 42.1629 106.658 41.4696L104.649 38.0104ZM102.654 38.46C101.392 38.46 100.539 38.169 99.9461 37.7398L97.6011 40.9802C99.0346 42.0177 100.769 42.46 102.654 42.46V38.46ZM99.9563 37.7472C99.4246 37.3573 99.1388 36.874 99.0626 36.1506L95.0846 36.5694C95.2751 38.3793 96.1225 39.896 97.5909 40.9728L99.9563 37.7472ZM97.0736 38.36H99.8536V34.36H97.0736V38.36ZM97.9325 36.9161C98.2278 37.9362 98.8756 38.7318 99.7507 39.2666L101.836 35.8534C101.807 35.8352 101.789 35.8214 101.781 35.8141C101.773 35.8069 101.771 35.8043 101.773 35.8067C101.775 35.8091 101.777 35.8125 101.778 35.8151C101.78 35.8176 101.778 35.8148 101.775 35.8039L97.9325 36.9161ZM99.7377 39.2586C100.605 39.7975 101.58 40.02 102.574 40.02V36.02C102.181 36.02 101.969 35.9358 101.849 35.8614L99.7377 39.2586ZM102.574 40.02C103.824 40.02 105.012 39.6248 105.949 38.7129L103.158 35.8471C103.082 35.9218 102.95 36.02 102.574 36.02V40.02ZM105.929 38.7319C106.976 37.74 107.314 36.3842 107.314 35.08H103.314C103.314 35.4086 103.271 35.6086 103.233 35.717C103.215 35.769 103.199 35.7978 103.191 35.8108C103.183 35.8232 103.179 35.8271 103.178 35.8281L105.929 38.7319ZM107.314 35.08V33.36H103.314V35.08H107.314ZM103.669 32.2216C103.513 32.447 103.267 32.6817 102.861 32.9014L104.766 36.4186C105.64 35.945 106.394 35.313 106.958 34.4984L103.669 32.2216ZM102.845 32.9099C102.553 33.0715 102.175 33.18 101.654 33.18V37.18C102.759 37.18 103.82 36.9418 104.782 36.4101L102.845 32.9099ZM101.654 33.18C101.083 33.18 100.597 33.039 100.148 32.7607L98.0389 36.1593C99.1373 36.841 100.358 37.18 101.654 37.18V33.18ZM100.148 32.7607C99.7016 32.4834 99.3261 32.0872 99.0258 31.513L95.4814 33.367C96.0877 34.5261 96.939 35.4766 98.0389 36.1593L100.148 32.7607ZM99.0424 31.5456C98.761 30.9827 98.5936 30.2901 98.5936 29.42H94.5936C94.5936 30.8166 94.8662 32.1373 95.4647 33.3344L99.0424 31.5456ZM98.5936 29.42C98.5936 28.5666 98.7596 27.8916 99.0369 27.3454L95.4703 25.5346C94.8676 26.7218 94.5936 28.0334 94.5936 29.42H98.5936ZM99.0258 27.367C99.3285 26.7883 99.697 26.4041 100.12 26.1443L98.0271 22.7357C96.9302 23.4092 96.0854 24.3584 95.4814 25.513L99.0258 27.367ZM100.107 26.1524C100.553 25.8831 101.053 25.74 101.654 25.74V21.74C100.361 21.74 99.1407 22.0635 98.0403 22.7276L100.107 26.1524ZM107.314 29.46C107.314 28.5202 107.129 27.5887 106.662 26.7487L103.165 28.6913C103.232 28.8113 103.314 29.0398 103.314 29.46H107.314ZM106.673 26.769C106.241 25.9694 105.621 25.3075 104.809 24.8541L102.858 28.3459C102.953 28.3992 103.053 28.4839 103.154 28.671L106.673 26.769ZM104.848 24.8761C104.091 24.4308 103.254 24.2 102.374 24.2V28.2C102.533 28.2 102.67 28.2358 102.82 28.3239L104.848 24.8761ZM102.374 24.2C101.512 24.2 100.687 24.4143 99.9357 24.8468L101.932 28.3132C102.06 28.2391 102.195 28.2 102.374 28.2V24.2ZM99.9357 24.8468C99.1512 25.2984 98.5492 25.9464 98.1142 26.7128L101.593 28.6872C101.718 28.467 101.836 28.3683 101.932 28.3132L99.9357 24.8468ZM98.1053 26.7287C97.6417 27.5632 97.4536 28.4858 97.4536 29.42H101.454C101.454 29.0209 101.532 28.7968 101.602 28.6713L98.1053 26.7287ZM97.4536 29.42C97.4536 30.3577 97.6428 31.2737 98.0838 32.1115L101.623 30.2485C101.531 30.0729 101.454 29.8156 101.454 29.42H97.4536ZM98.1142 32.1672C98.5452 32.9265 99.1356 33.5689 99.897 34.0304L101.97 30.6096C101.852 30.5377 101.722 30.4202 101.593 30.1928L98.1142 32.1672ZM99.9196 34.0439C100.668 34.4841 101.496 34.72 102.374 34.72V30.72C102.237 30.72 102.106 30.6892 101.948 30.5961L99.9196 34.0439ZM102.374 34.72C103.235 34.72 104.057 34.5061 104.809 34.0859L102.858 30.5941C102.703 30.6806 102.552 30.72 102.374 30.72V34.72ZM104.848 34.0639C105.622 33.6082 106.23 32.9688 106.662 32.1913L103.165 30.2487C103.064 30.4312 102.952 30.5385 102.82 30.6161L104.848 34.0639ZM106.673 32.171C107.128 31.3296 107.314 30.402 107.314 29.46H103.314C103.314 29.878 103.233 30.1237 103.154 30.269L106.673 32.171ZM118.514 34.22L119.492 32.4757L118.514 34.22ZM115.914 31.68L114.188 32.6904L114.193 32.6996L115.914 31.68ZM115.914 24.32L117.635 25.3396L117.64 25.3304L115.914 24.32ZM118.514 21.76L117.535 20.0157L117.535 20.0157L118.514 21.76ZM125.714 21.76L124.726 23.4991L124.735 23.5043L125.714 21.76ZM128.294 24.32L126.559 25.3146L126.566 25.3271L126.573 25.3396L128.294 24.32ZM128.294 31.68L126.568 30.6696L126.564 30.6762L128.294 31.68ZM125.714 34.22L124.735 32.4757L124.735 32.4757L125.714 34.22ZM124.334 32.08L125.342 33.8076L125.355 33.7998L125.368 33.7918L124.334 32.08ZM125.834 30.44L127.616 31.3479L127.616 31.3478L125.834 30.44ZM125.834 25.54L124.052 26.4479L124.055 26.4548L124.059 26.4616L125.834 25.54ZM124.334 23.92L123.326 25.6476L123.326 25.6476L124.334 23.92ZM119.874 23.92L118.882 22.1835L118.874 22.1879L118.866 22.1924L119.874 23.92ZM118.374 25.54L120.149 26.4616L120.152 26.4548L120.156 26.4479L118.374 25.54ZM118.374 30.44L120.156 29.5321L120.156 29.5321L118.374 30.44ZM119.874 32.08L118.84 33.7918L118.861 33.8044L118.882 33.8165L119.874 32.08ZM122.114 33.14C121.135 33.14 120.274 32.9142 119.492 32.4757L117.535 35.9643C118.94 36.7525 120.48 37.14 122.114 37.14V33.14ZM119.492 32.4757C118.706 32.0347 118.095 31.4382 117.634 30.6604L114.193 32.6996C115.012 34.0818 116.135 35.1786 117.535 35.9643L119.492 32.4757ZM117.64 30.6696C117.194 29.9083 116.954 29.029 116.954 27.98H112.954C112.954 29.6777 113.354 31.265 114.188 32.6904L117.64 30.6696ZM116.954 27.98C116.954 26.9479 117.193 26.0854 117.634 25.3396L114.193 23.3004C113.355 24.7146 112.954 26.2921 112.954 27.98H116.954ZM117.64 25.3304C118.102 24.5403 118.712 23.9418 119.492 23.5043L117.535 20.0157C116.129 20.8049 115.005 21.913 114.188 23.3096L117.64 25.3304ZM119.492 23.5043C120.274 23.0658 121.135 22.84 122.114 22.84V18.84C120.48 18.84 118.94 19.2275 117.535 20.0157L119.492 23.5043ZM122.114 22.84C123.11 22.84 123.966 23.0676 124.726 23.4991L126.702 20.0209C125.301 19.2258 123.758 18.84 122.114 18.84V22.84ZM124.735 23.5043C125.512 23.9397 126.111 24.5332 126.559 25.3146L130.029 23.3254C129.224 21.9201 128.103 20.8069 126.692 20.0157L124.735 23.5043ZM126.573 25.3396C127.015 26.0854 127.254 26.9479 127.254 27.98H131.254C131.254 26.2921 130.853 24.7146 130.014 23.3004L126.573 25.3396ZM127.254 27.98C127.254 29.029 127.014 29.9083 126.568 30.6696L130.02 32.6904C130.854 31.265 131.254 29.6777 131.254 27.98H127.254ZM126.564 30.6762C126.118 31.4453 125.518 32.0368 124.735 32.4757L126.692 35.9643C128.097 35.1765 129.217 34.0747 130.024 32.6838L126.564 30.6762ZM124.735 32.4757C123.954 32.9142 123.093 33.14 122.114 33.14V37.14C123.748 37.14 125.287 36.7525 126.692 35.9643L124.735 32.4757ZM122.114 34.64C123.26 34.64 124.357 34.3822 125.342 33.8076L123.326 30.3524C123.031 30.5245 122.648 30.64 122.114 30.64V34.64ZM125.368 33.7918C126.347 33.2003 127.097 32.366 127.616 31.3479L124.052 29.5321C123.85 29.9274 123.601 30.1863 123.3 30.3682L125.368 33.7918ZM127.616 31.3478C128.143 30.3143 128.374 29.1733 128.374 27.98H124.374C124.374 28.6534 124.245 29.1524 124.052 29.5321L127.616 31.3478ZM128.374 27.98C128.374 26.7879 128.143 25.6468 127.609 24.6184L124.059 26.4616C124.245 26.8198 124.374 27.3054 124.374 27.98H128.374ZM127.616 24.6321C127.095 23.6088 126.337 22.7728 125.342 22.1924L123.326 25.6476C123.611 25.8138 123.853 26.0579 124.052 26.4479L127.616 24.6321ZM125.342 22.1924C124.357 21.6178 123.26 21.36 122.114 21.36V25.36C122.648 25.36 123.031 25.4755 123.326 25.6476L125.342 22.1924ZM122.114 21.36C120.967 21.36 119.871 21.6181 118.882 22.1835L120.866 25.6565C121.183 25.4753 121.581 25.36 122.114 25.36V21.36ZM118.866 22.1924C117.871 22.7728 117.113 23.6088 116.592 24.6321L120.156 26.4479C120.355 26.0579 120.597 25.8138 120.882 25.6476L118.866 22.1924ZM116.599 24.6184C116.065 25.6468 115.834 26.7879 115.834 27.98H119.834C119.834 27.3054 119.963 26.8198 120.149 26.4616L116.599 24.6184ZM115.834 27.98C115.834 29.1733 116.065 30.3143 116.592 31.3479L120.156 29.5321C119.963 29.1524 119.834 28.6534 119.834 27.98H115.834ZM116.592 31.3479C117.11 32.366 117.861 33.2003 118.84 33.7918L120.908 30.3682C120.607 30.1863 120.357 29.9274 120.156 29.5321L116.592 31.3479ZM118.882 33.8165C119.871 34.3819 120.967 34.64 122.114 34.64V30.64C121.581 30.64 121.183 30.5247 120.866 30.3435L118.882 33.8165ZM141.797 23.92H143.797V21.92H141.797V23.92ZM141.797 35V37H143.797V35H141.797ZM138.977 35H136.977V37H138.977V35ZM138.977 33.6H140.977V27.6L137.377 32.4L138.977 33.6ZM137.557 34.74L138.4 36.5534L138.41 36.5492L138.418 36.545L137.557 34.74ZM133.377 34.6L132.4 36.345L132.413 36.3525L132.427 36.3598L133.377 34.6ZM131.797 32.98L130.022 33.9006L130.032 33.9204L130.043 33.94L131.797 32.98ZM131.237 23.92V21.92H129.237V23.92H131.237ZM134.037 23.92H136.037V21.92H134.037V23.92ZM134.697 32.06L133.223 33.4114L133.232 33.4218L133.242 33.432L134.697 32.06ZM138.317 32.06L139.772 33.432L139.782 33.4218L139.791 33.4114L138.317 32.06ZM138.977 23.92V21.92H136.977V23.92H138.977ZM139.797 23.92V35H143.797V23.92H139.797ZM141.797 33H138.977V37H141.797V33ZM140.977 35V33.6H136.977V35H140.977ZM137.377 32.4C137.227 32.6005 137.016 32.7822 136.696 32.935L138.418 36.545C139.272 36.1378 140.007 35.5595 140.577 34.8L137.377 32.4ZM136.714 32.9266C136.424 33.0612 136.088 33.14 135.677 33.14V37.14C136.626 37.14 137.543 36.9521 138.4 36.5534L136.714 32.9266ZM135.677 33.14C135.094 33.14 134.662 33.0211 134.327 32.8402L132.427 36.3598C133.425 36.8989 134.527 37.14 135.677 37.14V33.14ZM134.354 32.855C134.033 32.6753 133.768 32.4159 133.552 32.02L130.043 33.94C130.599 34.9574 131.387 35.778 132.4 36.345L134.354 32.855ZM133.573 32.0594C133.375 31.679 133.237 31.1548 133.237 30.42H129.237C129.237 31.6585 129.472 32.841 130.022 33.9006L133.573 32.0594ZM133.237 30.42V23.92H129.237V30.42H133.237ZM131.237 25.92H134.037V21.92H131.237V25.92ZM132.037 23.92V30.02H136.037V23.92H132.037ZM132.037 30.02C132.037 31.2219 132.341 32.4493 133.223 33.4114L136.171 30.7086C136.164 30.7001 136.135 30.6681 136.105 30.5744C136.072 30.4731 136.037 30.2974 136.037 30.02H132.037ZM133.242 33.432C134.129 34.3733 135.297 34.76 136.497 34.76V30.76C136.321 30.76 136.233 30.7331 136.202 30.721C136.178 30.7116 136.168 30.7043 136.152 30.688L133.242 33.432ZM136.497 34.76C137.699 34.76 138.878 34.3805 139.772 33.432L136.862 30.688C136.85 30.7003 136.842 30.7077 136.814 30.7183C136.779 30.7319 136.684 30.76 136.497 30.76V34.76ZM139.791 33.4114C140.673 32.4493 140.977 31.2219 140.977 30.02H136.977C136.977 30.2974 136.942 30.4731 136.909 30.5744C136.879 30.6681 136.85 30.7001 136.843 30.7086L139.791 33.4114ZM140.977 30.02V23.92H136.977V30.02H140.977ZM138.977 25.92H141.797V21.92H138.977V25.92ZM147.82 26.22V24.22H145.82V26.22H147.82ZM148.08 32.4L146.665 33.8142L146.72 33.8685L146.778 33.9185L148.08 32.4ZM150.3 32.64H152.3V30.64H150.3V32.64ZM150.3 35V37H152.3V35H150.3ZM145 26.22H147V24.22H145V26.22ZM143.68 26.22H141.68V28.22H143.68V26.22ZM143.68 23.92V21.92H141.68V23.92H143.68ZM145 23.92V25.92H147V23.92H145ZM145 21.18V19.18H143V21.18H145ZM147.82 21.18H149.82V19.18H147.82V21.18ZM147.82 23.92H145.82V25.92H147.82V23.92ZM150.3 23.92H152.3V21.92H150.3V23.92ZM150.3 26.22V28.22H152.3V26.22H150.3ZM145.82 26.22V31.58H149.82V26.22H145.82ZM145.82 31.58C145.82 32.2113 145.961 33.1093 146.665 33.8142L149.494 30.9858C149.669 31.1613 149.754 31.3436 149.791 31.4605C149.825 31.5681 149.82 31.6199 149.82 31.58H145.82ZM146.778 33.9185C147.512 34.5478 148.415 34.64 149 34.64V30.64C148.902 30.64 148.897 30.6299 148.955 30.6448C149.013 30.66 149.187 30.7153 149.381 30.8815L146.778 33.9185ZM149 34.64H150.3V30.64H149V34.64ZM148.3 32.64V35H152.3V32.64H148.3ZM150.3 33H148.54V37H150.3V33ZM148.54 33C147.654 33 147.359 32.7843 147.278 32.7057C147.208 32.6374 147 32.3836 147 31.56H143C143 33.0297 143.381 34.496 144.491 35.5743C145.59 36.6424 147.066 37 148.54 37V33ZM147 31.56V26.22H143V31.56H147ZM145 24.22H143.68V28.22H145V24.22ZM145.68 26.22V23.92H141.68V26.22H145.68ZM143.68 25.92H145V21.92H143.68V25.92ZM147 23.92V21.18H143V23.92H147ZM145 23.18H147.82V19.18H145V23.18ZM145.82 21.18V23.92H149.82V21.18H145.82ZM147.82 25.92H150.3V21.92H147.82V25.92ZM148.3 23.92V26.22H152.3V23.92H148.3ZM150.3 24.22H147.82V28.22H150.3V24.22Z" fill="black" mask="url(#path-3-inside-1_543_67)"/>
</svg>
