<svg width="35" height="33" viewBox="0 0 35 33" fill="none" xmlns="http://www.w3.org/2000/svg">
<g id="map-pin">
<path id="Vector" d="M30.625 13.75C30.625 23.375 17.5 31.625 17.5 31.625C17.5 31.625 4.375 23.375 4.375 13.75C4.375 10.4679 5.75781 7.32032 8.21922 4.99955C10.6806 2.67879 14.019 1.375 17.5 1.375C20.981 1.375 24.3194 2.67879 26.7808 4.99955C29.2422 7.32032 30.625 10.4679 30.625 13.75Z" fill="black" stroke="black" stroke-width="2" stroke-linecap="round" stroke-linejoin="round"/>
<path id="Vector_2" d="M30.625 13.75C30.625 23.375 17.5 31.625 17.5 31.625C17.5 31.625 4.375 23.375 4.375 13.75C4.375 10.4679 5.75781 7.32032 8.21922 4.99955C10.6806 2.67879 14.019 1.375 17.5 1.375C20.981 1.375 24.3194 2.67879 26.7808 4.99955C29.2422 7.32032 30.625 10.4679 30.625 13.75Z" fill="black" stroke="black" stroke-width="2" stroke-linecap="round" stroke-linejoin="round"/>
<path id="Vector_3" d="M17.5 17.875C19.9162 17.875 21.875 16.0282 21.875 13.75C21.875 11.4718 19.9162 9.625 17.5 9.625C15.0838 9.625 13.125 11.4718 13.125 13.75C13.125 16.0282 15.0838 17.875 17.5 17.875Z" fill="white" stroke="black" stroke-width="2" stroke-linecap="round" stroke-linejoin="round"/>
</g>
</svg>
