<svg width="46" height="159" viewBox="0 0 46 159" fill="none" xmlns="http://www.w3.org/2000/svg">
<rect width="46" height="159" rx="10" fill="#ECE9E9"/>
<path d="M16.04 127.4H30V130.2H20.92L30 133.94V136.06L20.92 139.82H30V142.62H16.04V139.44L26.42 135L16.04 130.56V127.4ZM18.92 114.032L35.24 120.892V123.872L29.72 121.472L18.92 125.912L18.92 122.772L26.66 119.912L18.92 117.012V114.032ZM22.84 99.8367C22.9867 99.0501 23.38 98.4034 24.02 97.8967C24.66 97.3901 25.3933 97.1367 26.22 97.1367C26.9667 97.1367 27.6267 97.3234 28.2 97.6967C28.76 98.0567 29.2 98.5834 29.52 99.2767C29.84 99.9701 30 100.79 30 101.737L30 107.757H16.04V101.997C16.04 101.05 16.1933 100.237 16.5 99.5567C16.8067 98.8634 17.2333 98.3434 17.78 97.9967C18.3267 97.6367 18.9467 97.4567 19.64 97.4567C20.4533 97.4567 21.1333 97.6767 21.68 98.1167C22.2267 98.5434 22.6133 99.1167 22.84 99.8367ZM21.8 104.957V102.397C21.8 101.73 21.6533 101.217 21.36 100.857C21.0533 100.497 20.62 100.317 20.06 100.317C19.5 100.317 19.0667 100.497 18.76 100.857C18.4533 101.217 18.3 101.73 18.3 102.397V104.957H21.8ZM27.72 102.137C27.72 101.457 27.56 100.93 27.24 100.557C26.92 100.17 26.4667 99.9767 25.88 99.9767C25.28 99.9767 24.8133 100.177 24.48 100.577C24.1333 100.977 23.96 101.517 23.96 102.197V104.957H27.72L27.72 102.137ZM30.18 89.9852C30.18 91.0518 29.9467 92.0118 29.48 92.8652C29 93.7185 28.3267 94.3918 27.46 94.8852C26.5933 95.3652 25.5933 95.6052 24.46 95.6052C23.3267 95.6052 22.3267 95.3585 21.46 94.8652C20.5933 94.3585 19.9267 93.6718 19.46 92.8052C18.98 91.9385 18.74 90.9718 18.74 89.9052C18.74 88.8385 18.98 87.8718 19.46 87.0052C19.9267 86.1385 20.5933 85.4585 21.46 84.9652C22.3267 84.4585 23.3267 84.2052 24.46 84.2052C25.5933 84.2052 26.5933 84.4652 27.46 84.9852C28.3267 85.4918 29 86.1852 29.48 87.0652C29.9467 87.9318 30.18 88.9052 30.18 89.9852ZM27.74 89.9852C27.74 89.4785 27.62 89.0052 27.38 88.5652C27.1267 88.1118 26.7533 87.7518 26.26 87.4852C25.7667 87.2185 25.1667 87.0852 24.46 87.0852C23.4067 87.0852 22.6 87.3652 22.04 87.9252C21.4667 88.4718 21.18 89.1452 21.18 89.9452C21.18 90.7452 21.4667 91.4185 22.04 91.9652C22.6 92.4985 23.4067 92.7652 24.46 92.7652C25.5133 92.7652 26.3267 92.5052 26.9 91.9852C27.46 91.4518 27.74 90.7852 27.74 89.9852ZM30.18 77.2312C30.18 78.2979 29.9467 79.2579 29.48 80.1112C29 80.9646 28.3267 81.6379 27.46 82.1312C26.5933 82.6112 25.5933 82.8512 24.46 82.8512C23.3267 82.8512 22.3267 82.6046 21.46 82.1112C20.5933 81.6046 19.9267 80.9179 19.46 80.0512C18.98 79.1846 18.74 78.2179 18.74 77.1512C18.74 76.0846 18.98 75.1179 19.46 74.2512C19.9267 73.3846 20.5933 72.7046 21.46 72.2112C22.3267 71.7046 23.3267 71.4512 24.46 71.4512C25.5933 71.4512 26.5933 71.7112 27.46 72.2313C28.3267 72.7379 29 73.4312 29.48 74.3112C29.9467 75.1779 30.18 76.1512 30.18 77.2312ZM27.74 77.2312C27.74 76.7246 27.62 76.2512 27.38 75.8112C27.1267 75.3579 26.7533 74.9979 26.26 74.7312C25.7667 74.4646 25.1667 74.3312 24.46 74.3312C23.4067 74.3312 22.6 74.6112 22.04 75.1712C21.4667 75.7179 21.18 76.3912 21.18 77.1912C21.18 77.9912 21.4667 78.6646 22.04 79.2112C22.6 79.7446 23.4067 80.0112 24.46 80.0112C25.5133 80.0112 26.3267 79.7512 26.9 79.2312C27.46 78.6979 27.74 78.0312 27.74 77.2312ZM30 62.8373L25.28 66.5973H30V69.3973H15.2V66.5973H23.62L18.92 62.8773V59.2373L24.48 64.1173L30 59.1973V62.8373ZM17.6 56.2977C17.6 56.791 17.4467 57.2043 17.14 57.5377C16.82 57.8577 16.4267 58.0177 15.96 58.0177C15.4933 58.0177 15.1067 57.8577 14.8 57.5377C14.48 57.2043 14.32 56.791 14.32 56.2977C14.32 55.8043 14.48 55.3977 14.8 55.0777C15.1067 54.7443 15.4933 54.5777 15.96 54.5777C16.4267 54.5777 16.82 54.7443 17.14 55.0777C17.4467 55.3977 17.6 55.8043 17.6 56.2977ZM18.92 54.9177H30V57.7177H18.92L18.92 54.9177ZM18.76 46.0112C18.76 44.6912 19.18 43.6246 20.02 42.8112C20.8467 41.9979 22.0067 41.5912 23.5 41.5912H30V44.3912H23.88C23 44.3912 22.3267 44.6112 21.86 45.0512C21.38 45.4912 21.14 46.0912 21.14 46.8512C21.14 47.6246 21.38 48.2379 21.86 48.6912C22.3267 49.1312 23 49.3512 23.88 49.3512H30L30 52.1512H18.92V49.3512H20.3C19.82 48.9779 19.4467 48.5046 19.18 47.9312C18.9 47.3446 18.76 46.7046 18.76 46.0112ZM18.74 34.5886C18.74 33.7619 18.9067 33.0353 19.24 32.4086C19.56 31.7819 19.98 31.2886 20.5 30.9286H18.92V28.1086H30.08C31.1067 28.1086 32.02 28.3153 32.82 28.7286C33.6333 29.1419 34.2733 29.7619 34.74 30.5886C35.22 31.4153 35.46 32.4153 35.46 33.5886C35.46 35.1619 35.0933 36.4553 34.36 37.4686C33.6267 38.4686 32.6267 39.0353 31.36 39.1686V36.3886C31.8667 36.2419 32.2667 35.9286 32.56 35.4486C32.8667 34.9553 33.02 34.3619 33.02 33.6686C33.02 32.8553 32.7733 32.1953 32.28 31.6886C31.8 31.1819 31.0667 30.9286 30.08 30.9286H28.36C28.88 31.2886 29.3133 31.7886 29.66 32.4286C30.0067 33.0553 30.18 33.7753 30.18 34.5886C30.18 35.5219 29.94 36.3753 29.46 37.1486C28.98 37.9219 28.3067 38.5353 27.44 38.9886C26.56 39.4286 25.5533 39.6486 24.42 39.6486C23.3 39.6486 22.3067 39.4286 21.44 38.9886C20.5733 38.5353 19.9067 37.9286 19.44 37.1686C18.9733 36.3953 18.74 35.5353 18.74 34.5886ZM24.46 30.9286C23.78 30.9286 23.2 31.0619 22.72 31.3286C22.2267 31.5953 21.8533 31.9553 21.6 32.4086C21.3333 32.8619 21.2 33.3486 21.2 33.8686C21.2 34.3886 21.3267 34.8686 21.58 35.3086C21.8333 35.7486 22.2067 36.1086 22.7 36.3886C23.18 36.6553 23.7533 36.7886 24.42 36.7886C25.0867 36.7886 25.6733 36.6553 26.18 36.3886C26.6733 36.1086 27.0533 35.7486 27.32 35.3086C27.5867 34.8553 27.72 34.3753 27.72 33.8686C27.72 33.3486 27.5933 32.8619 27.34 32.4086C27.0733 31.9553 26.7 31.5953 26.22 31.3286C25.7267 31.0619 25.14 30.9286 24.46 30.9286ZM30.18 21.1339C30.18 22.0406 30.02 22.8539 29.7 23.5739C29.3667 24.2939 28.92 24.8672 28.36 25.2939C27.8 25.7072 27.18 25.9339 26.5 25.9739V23.1539C26.9267 23.1006 27.28 22.8939 27.56 22.5339C27.84 22.1606 27.98 21.7006 27.98 21.1539C27.98 20.6206 27.8733 20.2072 27.66 19.9139C27.4467 19.6072 27.1733 19.4539 26.84 19.4539C26.48 19.4539 26.2133 19.6406 26.04 20.0139C25.8533 20.3739 25.6533 20.9539 25.44 21.7539C25.24 22.5806 25.0333 23.2606 24.82 23.7939C24.6067 24.3139 24.28 24.7672 23.84 25.1539C23.4 25.5272 22.8067 25.7139 22.06 25.7139C21.4467 25.7139 20.8867 25.5406 20.38 25.1939C19.8733 24.8339 19.4733 24.3272 19.18 23.6739C18.8867 23.0072 18.74 22.2272 18.74 21.3339C18.74 20.0139 19.0733 18.9606 19.74 18.1739C20.3933 17.3872 21.28 16.9539 22.4 16.8739V19.5539C21.96 19.5939 21.6133 19.7806 21.36 20.1139C21.0933 20.4339 20.96 20.8672 20.96 21.4139C20.96 21.9206 21.0533 22.3139 21.24 22.5939C21.4267 22.8606 21.6867 22.9939 22.02 22.9939C22.3933 22.9939 22.68 22.8072 22.88 22.4339C23.0667 22.0606 23.26 21.4806 23.46 20.6939C23.66 19.8939 23.8667 19.2339 24.08 18.7139C24.2933 18.1939 24.6267 17.7472 25.08 17.3739C25.52 16.9872 26.1067 16.7872 26.84 16.7739C27.48 16.7739 28.0533 16.9539 28.56 17.3139C29.0667 17.6606 29.4667 18.1672 29.76 18.8339C30.04 19.4872 30.18 20.2539 30.18 21.1339Z" fill="black"/>
</svg>
