<svg width="225" height="56" viewBox="0 0 225 56" fill="none" xmlns="http://www.w3.org/2000/svg">
<rect x="1" y="1" width="223" height="54" rx="19" fill="#F5F1EC" stroke="black" stroke-width="2"/>
<rect x="1" y="1" width="223" height="54" rx="19" fill="#F5F1EC" stroke="black" stroke-width="2"/>
<mask id="path-3-inside-1_543_71" fill="white">
<path d="M93.2 35.14C92.2267 35.14 91.3467 34.9733 90.56 34.64C89.7867 34.3067 89.1733 33.8267 88.72 33.2C88.2667 32.5733 88.0333 31.8333 88.02 30.98H91.02C91.06 31.5533 91.26 32.0067 91.62 32.34C91.9933 32.6733 92.5 32.84 93.14 32.84C93.7933 32.84 94.3067 32.6867 94.68 32.38C95.0533 32.06 95.24 31.6467 95.24 31.14C95.24 30.7267 95.1133 30.3867 94.86 30.12C94.6067 29.8533 94.2867 29.6467 93.9 29.5C93.5267 29.34 93.0067 29.1667 92.34 28.98C91.4333 28.7133 90.6933 28.4533 90.12 28.2C89.56 27.9333 89.0733 27.54 88.66 27.02C88.26 26.4867 88.06 25.78 88.06 24.9C88.06 24.0733 88.2667 23.3533 88.68 22.74C89.0933 22.1267 89.6733 21.66 90.42 21.34C91.1667 21.0067 92.02 20.84 92.98 20.84C94.42 20.84 95.5867 21.1933 96.48 21.9C97.3867 22.5933 97.8867 23.5667 97.98 24.82H94.9C94.8733 24.34 94.6667 23.9467 94.28 23.64C93.9067 23.32 93.4067 23.16 92.78 23.16C92.2333 23.16 91.7933 23.3 91.46 23.58C91.14 23.86 90.98 24.2667 90.98 24.8C90.98 25.1733 91.1 25.4867 91.34 25.74C91.5933 25.98 91.9 26.18 92.26 26.34C92.6333 26.4867 93.1533 26.66 93.82 26.86C94.7267 27.1267 95.4667 27.3933 96.04 27.66C96.6133 27.9267 97.1067 28.3267 97.52 28.86C97.9333 29.3933 98.14 30.0933 98.14 30.96C98.14 31.7067 97.9467 32.4 97.56 33.04C97.1733 33.68 96.6067 34.1933 95.86 34.58C95.1133 34.9533 94.2267 35.14 93.2 35.14ZM99.8475 29.42C99.8475 28.3 100.067 27.3067 100.507 26.44C100.961 25.5733 101.568 24.9067 102.328 24.44C103.101 23.9733 103.961 23.74 104.908 23.74C105.734 23.74 106.454 23.9067 107.068 24.24C107.694 24.5733 108.194 24.9933 108.568 25.5V23.92H111.388V35H108.568V33.38C108.208 33.9 107.708 34.3333 107.068 34.68C106.441 35.0133 105.714 35.18 104.888 35.18C103.954 35.18 103.101 34.94 102.328 34.46C101.568 33.98 100.961 33.3067 100.507 32.44C100.067 31.56 99.8475 30.5533 99.8475 29.42ZM108.568 29.46C108.568 28.78 108.434 28.2 108.168 27.72C107.901 27.2267 107.541 26.8533 107.088 26.6C106.634 26.3333 106.148 26.2 105.628 26.2C105.108 26.2 104.628 26.3267 104.188 26.58C103.748 26.8333 103.388 27.2067 103.108 27.7C102.841 28.18 102.708 28.7533 102.708 29.42C102.708 30.0867 102.841 30.6733 103.108 31.18C103.388 31.6733 103.748 32.0533 104.188 32.32C104.641 32.5867 105.121 32.72 105.628 32.72C106.148 32.72 106.634 32.5933 107.088 32.34C107.541 32.0733 107.901 31.7 108.168 31.22C108.434 30.7267 108.568 30.14 108.568 29.46ZM118.742 32.42L121.542 23.92H124.522L120.422 35H117.022L112.942 23.92H115.942L118.742 32.42ZM136.395 29.22C136.395 29.62 136.368 29.98 136.315 30.3H128.215C128.282 31.1 128.562 31.7267 129.055 32.18C129.548 32.6333 130.155 32.86 130.875 32.86C131.915 32.86 132.655 32.4133 133.095 31.52H136.115C135.795 32.5867 135.182 33.4667 134.275 34.16C133.368 34.84 132.255 35.18 130.935 35.18C129.868 35.18 128.908 34.9467 128.055 34.48C127.215 34 126.555 33.3267 126.075 32.46C125.608 31.5933 125.375 30.5933 125.375 29.46C125.375 28.3133 125.608 27.3067 126.075 26.44C126.542 25.5733 127.195 24.9067 128.035 24.44C128.875 23.9733 129.842 23.74 130.935 23.74C131.988 23.74 132.928 23.9667 133.755 24.42C134.595 24.8733 135.242 25.52 135.695 26.36C136.162 27.1867 136.395 28.14 136.395 29.22ZM133.495 28.42C133.482 27.7 133.222 27.1267 132.715 26.7C132.208 26.26 131.588 26.04 130.855 26.04C130.162 26.04 129.575 26.2533 129.095 26.68C128.628 27.0933 128.342 27.6733 128.235 28.42H133.495Z"/>
</mask>
<path d="M93.2 35.14C92.2267 35.14 91.3467 34.9733 90.56 34.64C89.7867 34.3067 89.1733 33.8267 88.72 33.2C88.2667 32.5733 88.0333 31.8333 88.02 30.98H91.02C91.06 31.5533 91.26 32.0067 91.62 32.34C91.9933 32.6733 92.5 32.84 93.14 32.84C93.7933 32.84 94.3067 32.6867 94.68 32.38C95.0533 32.06 95.24 31.6467 95.24 31.14C95.24 30.7267 95.1133 30.3867 94.86 30.12C94.6067 29.8533 94.2867 29.6467 93.9 29.5C93.5267 29.34 93.0067 29.1667 92.34 28.98C91.4333 28.7133 90.6933 28.4533 90.12 28.2C89.56 27.9333 89.0733 27.54 88.66 27.02C88.26 26.4867 88.06 25.78 88.06 24.9C88.06 24.0733 88.2667 23.3533 88.68 22.74C89.0933 22.1267 89.6733 21.66 90.42 21.34C91.1667 21.0067 92.02 20.84 92.98 20.84C94.42 20.84 95.5867 21.1933 96.48 21.9C97.3867 22.5933 97.8867 23.5667 97.98 24.82H94.9C94.8733 24.34 94.6667 23.9467 94.28 23.64C93.9067 23.32 93.4067 23.16 92.78 23.16C92.2333 23.16 91.7933 23.3 91.46 23.58C91.14 23.86 90.98 24.2667 90.98 24.8C90.98 25.1733 91.1 25.4867 91.34 25.74C91.5933 25.98 91.9 26.18 92.26 26.34C92.6333 26.4867 93.1533 26.66 93.82 26.86C94.7267 27.1267 95.4667 27.3933 96.04 27.66C96.6133 27.9267 97.1067 28.3267 97.52 28.86C97.9333 29.3933 98.14 30.0933 98.14 30.96C98.14 31.7067 97.9467 32.4 97.56 33.04C97.1733 33.68 96.6067 34.1933 95.86 34.58C95.1133 34.9533 94.2267 35.14 93.2 35.14ZM99.8475 29.42C99.8475 28.3 100.067 27.3067 100.507 26.44C100.961 25.5733 101.568 24.9067 102.328 24.44C103.101 23.9733 103.961 23.74 104.908 23.74C105.734 23.74 106.454 23.9067 107.068 24.24C107.694 24.5733 108.194 24.9933 108.568 25.5V23.92H111.388V35H108.568V33.38C108.208 33.9 107.708 34.3333 107.068 34.68C106.441 35.0133 105.714 35.18 104.888 35.18C103.954 35.18 103.101 34.94 102.328 34.46C101.568 33.98 100.961 33.3067 100.507 32.44C100.067 31.56 99.8475 30.5533 99.8475 29.42ZM108.568 29.46C108.568 28.78 108.434 28.2 108.168 27.72C107.901 27.2267 107.541 26.8533 107.088 26.6C106.634 26.3333 106.148 26.2 105.628 26.2C105.108 26.2 104.628 26.3267 104.188 26.58C103.748 26.8333 103.388 27.2067 103.108 27.7C102.841 28.18 102.708 28.7533 102.708 29.42C102.708 30.0867 102.841 30.6733 103.108 31.18C103.388 31.6733 103.748 32.0533 104.188 32.32C104.641 32.5867 105.121 32.72 105.628 32.72C106.148 32.72 106.634 32.5933 107.088 32.34C107.541 32.0733 107.901 31.7 108.168 31.22C108.434 30.7267 108.568 30.14 108.568 29.46ZM118.742 32.42L121.542 23.92H124.522L120.422 35H117.022L112.942 23.92H115.942L118.742 32.42ZM136.395 29.22C136.395 29.62 136.368 29.98 136.315 30.3H128.215C128.282 31.1 128.562 31.7267 129.055 32.18C129.548 32.6333 130.155 32.86 130.875 32.86C131.915 32.86 132.655 32.4133 133.095 31.52H136.115C135.795 32.5867 135.182 33.4667 134.275 34.16C133.368 34.84 132.255 35.18 130.935 35.18C129.868 35.18 128.908 34.9467 128.055 34.48C127.215 34 126.555 33.3267 126.075 32.46C125.608 31.5933 125.375 30.5933 125.375 29.46C125.375 28.3133 125.608 27.3067 126.075 26.44C126.542 25.5733 127.195 24.9067 128.035 24.44C128.875 23.9733 129.842 23.74 130.935 23.74C131.988 23.74 132.928 23.9667 133.755 24.42C134.595 24.8733 135.242 25.52 135.695 26.36C136.162 27.1867 136.395 28.14 136.395 29.22ZM133.495 28.42C133.482 27.7 133.222 27.1267 132.715 26.7C132.208 26.26 131.588 26.04 130.855 26.04C130.162 26.04 129.575 26.2533 129.095 26.68C128.628 27.0933 128.342 27.6733 128.235 28.42H133.495Z" fill="black"/>
<path d="M90.56 34.64L89.7683 36.4767L89.7797 36.4815L90.56 34.64ZM88.72 33.2L87.0996 34.3722L87.0996 34.3722L88.72 33.2ZM88.02 30.98V28.98H85.9885L86.0202 31.0112L88.02 30.98ZM91.02 30.98L93.0152 30.8408L92.8853 28.98H91.02V30.98ZM91.62 32.34L90.2612 33.8075L90.2745 33.8198L90.288 33.8319L91.62 32.34ZM94.68 32.38L95.9495 33.9255L95.9657 33.9122L95.9816 33.8985L94.68 32.38ZM94.86 30.12L93.41 31.4975L93.41 31.4975L94.86 30.12ZM93.9 29.5L93.1122 31.3383L93.1511 31.355L93.1907 31.37L93.9 29.5ZM92.34 28.98L91.7757 30.8987L91.7882 30.9024L91.8007 30.9059L92.34 28.98ZM90.12 28.2L89.2601 30.0057L89.2857 30.0179L89.3117 30.0294L90.12 28.2ZM88.66 27.02L87.06 28.22L87.0769 28.2425L87.0944 28.2645L88.66 27.02ZM88.68 22.74L90.3385 23.8577L90.3385 23.8577L88.68 22.74ZM90.42 21.34L91.2078 23.1783L91.2216 23.1724L91.2353 23.1663L90.42 21.34ZM96.48 21.9L95.2392 23.4686L95.2521 23.4787L95.2651 23.4887L96.48 21.9ZM97.98 24.82V26.82H100.134L99.9745 24.6715L97.98 24.82ZM94.9 24.82L92.9031 24.9309L93.008 26.82H94.9V24.82ZM94.28 23.64L92.9784 25.1585L93.0074 25.1833L93.0372 25.207L94.28 23.64ZM91.46 23.58L90.1736 22.0486L90.1582 22.0616L90.143 22.0748L91.46 23.58ZM91.34 25.74L89.8881 27.1155L89.9253 27.1547L89.9645 27.1919L91.34 25.74ZM92.26 26.34L91.4477 28.1676L91.4878 28.1855L91.5287 28.2015L92.26 26.34ZM93.82 26.86L93.2453 28.7757L93.2557 28.7787L93.82 26.86ZM97.52 28.86L95.9392 30.0851L95.9392 30.0851L97.52 28.86ZM97.56 33.04L95.8482 32.0058L95.8482 32.0058L97.56 33.04ZM95.86 34.58L96.7544 36.3689L96.7671 36.3625L96.7797 36.356L95.86 34.58ZM93.2 33.14C92.4576 33.14 91.8481 33.0137 91.3403 32.7985L89.7797 36.4815C90.8453 36.933 91.9957 37.14 93.2 37.14V33.14ZM91.3517 32.8034C90.8791 32.5996 90.5639 32.3366 90.3404 32.0278L87.0996 34.3722C87.7828 35.3167 88.6943 36.0137 89.7683 36.4766L91.3517 32.8034ZM90.3404 32.0278C90.1524 31.7678 90.0274 31.4362 90.0198 30.9488L86.0202 31.0112C86.0393 32.2304 86.381 33.3789 87.0996 34.3722L90.3404 32.0278ZM88.02 32.98H91.02V28.98H88.02V32.98ZM89.0248 31.1192C89.0938 32.1072 89.4646 33.07 90.2612 33.8075L92.9788 30.8725C92.9877 30.8807 92.9986 30.8926 93.0093 30.9076C93.02 30.9226 93.0266 30.9353 93.0298 30.9427C93.0367 30.9584 93.0216 30.9331 93.0152 30.8408L89.0248 31.1192ZM90.288 33.8319C91.121 34.5756 92.1498 34.84 93.14 34.84V30.84C92.9912 30.84 92.9209 30.8204 92.905 30.8151C92.8976 30.8127 92.9016 30.8134 92.913 30.8198C92.9247 30.8265 92.9386 30.8361 92.952 30.8481L90.288 33.8319ZM93.14 34.84C94.0933 34.84 95.1099 34.6151 95.9495 33.9255L93.4105 30.8345C93.4505 30.8017 93.4724 30.7998 93.4426 30.8087C93.4071 30.8193 93.3137 30.84 93.14 30.84V34.84ZM95.9816 33.8985C96.8134 33.1855 97.24 32.2101 97.24 31.14H93.24C93.24 31.1429 93.2408 31.0877 93.2773 31.0068C93.3145 30.9244 93.3615 30.876 93.3784 30.8615L95.9816 33.8985ZM97.24 31.14C97.24 30.2827 96.9611 29.4279 96.31 28.7425L93.41 31.4975C93.3536 31.4381 93.303 31.3595 93.2708 31.2732C93.2402 31.191 93.24 31.1389 93.24 31.14H97.24ZM96.31 28.7425C95.8255 28.2325 95.2416 27.8698 94.6093 27.63L93.1907 31.37C93.3318 31.4235 93.3879 31.4742 93.41 31.4975L96.31 28.7425ZM94.6878 27.6617C94.1969 27.4513 93.5806 27.2504 92.8793 27.0541L91.8007 30.9059C92.4327 31.0829 92.8564 31.2287 93.1122 31.3383L94.6878 27.6617ZM92.9043 27.0613C92.0436 26.8081 91.3934 26.5761 90.9283 26.3706L89.3117 30.0294C89.9933 30.3305 90.823 30.6185 91.7757 30.8987L92.9043 27.0613ZM90.9799 26.3943C90.714 26.2677 90.4632 26.0744 90.2256 25.7755L87.0944 28.2645C87.6834 29.0056 88.406 29.599 89.2601 30.0057L90.9799 26.3943ZM90.26 25.82C90.1918 25.729 90.06 25.4853 90.06 24.9H86.06C86.06 26.0747 86.3282 27.2443 87.06 28.22L90.26 25.82ZM90.06 24.9C90.06 24.4229 90.1735 24.1026 90.3385 23.8577L87.0215 21.6223C86.3598 22.6041 86.06 23.7237 86.06 24.9H90.06ZM90.3385 23.8577C90.516 23.5944 90.7785 23.3623 91.2078 23.1783L89.6322 19.5017C88.5681 19.9577 87.6707 20.659 87.0215 21.6223L90.3385 23.8577ZM91.2353 23.1663C91.6847 22.9657 92.2526 22.84 92.98 22.84V18.84C91.7874 18.84 90.6487 19.0477 89.6047 19.5137L91.2353 23.1663ZM92.98 22.84C94.0908 22.84 94.7836 23.1082 95.2392 23.4686L97.7208 20.3314C96.3897 19.2785 94.7492 18.84 92.98 18.84V22.84ZM95.2651 23.4887C95.6693 23.7978 95.9298 24.2201 95.9855 24.9685L99.9745 24.6715C99.8435 22.9133 99.104 21.3888 97.6949 20.3113L95.2651 23.4887ZM97.98 22.82H94.9V26.82H97.98V22.82ZM96.8969 24.7091C96.8376 23.6411 96.3438 22.7242 95.5228 22.073L93.0372 25.207C93.0385 25.208 93.0276 25.1995 93.0106 25.1794C92.9932 25.1589 92.9731 25.1307 92.9545 25.0953C92.9139 25.0179 92.9043 24.9533 92.9031 24.9309L96.8969 24.7091ZM95.5816 22.1215C94.7553 21.4132 93.7496 21.16 92.78 21.16V25.16C92.9253 25.16 92.9964 25.1787 93.0154 25.1848C93.0287 25.1891 93.0078 25.1837 92.9784 25.1585L95.5816 22.1215ZM92.78 21.16C91.8865 21.16 90.9519 21.3949 90.1736 22.0486L92.7464 25.1114C92.7259 25.1287 92.7045 25.1429 92.6845 25.1538C92.6648 25.1645 92.651 25.1694 92.6464 25.1709C92.6381 25.1735 92.6757 25.16 92.78 25.16V21.16ZM90.143 22.0748C89.2827 22.8276 88.98 23.8481 88.98 24.8H92.98C92.98 24.7303 92.9907 24.7522 92.9611 24.8272C92.9275 24.9128 92.8644 25.0087 92.777 25.0852L90.143 22.0748ZM88.98 24.8C88.98 25.6458 89.2701 26.4631 89.8881 27.1155L92.7919 24.3645C92.8451 24.4207 92.9 24.5013 92.9377 24.5997C92.9745 24.6957 92.98 24.7696 92.98 24.8H88.98ZM89.9645 27.1919C90.4027 27.607 90.9065 27.9271 91.4477 28.1676L93.0723 24.5124C92.8935 24.4329 92.784 24.353 92.7155 24.2881L89.9645 27.1919ZM91.5287 28.2015C91.9774 28.3778 92.558 28.5695 93.2453 28.7757L94.3947 24.9443C93.7486 24.7505 93.2892 24.5955 92.9913 24.4785L91.5287 28.2015ZM93.2557 28.7787C94.1086 29.0296 94.7459 29.2638 95.1965 29.4734L96.8835 25.8466C96.1874 25.5228 95.3447 25.2237 94.3843 24.9413L93.2557 28.7787ZM95.1965 29.4734C95.4614 29.5966 95.7077 29.7865 95.9392 30.0851L99.1008 27.6349C98.5056 26.8668 97.7653 26.2567 96.8835 25.8466L95.1965 29.4734ZM95.9392 30.0851C96.0119 30.179 96.14 30.4095 96.14 30.96H100.14C100.14 29.7772 99.8548 28.6077 99.1008 27.6349L95.9392 30.0851ZM96.14 30.96C96.14 31.3415 96.0466 31.6773 95.8482 32.0058L99.2718 34.0742C99.8467 33.1227 100.14 32.0718 100.14 30.96H96.14ZM95.8482 32.0058C95.6751 32.2922 95.4014 32.5652 94.9403 32.804L96.7797 36.356C97.8119 35.8215 98.6716 35.0678 99.2718 34.0742L95.8482 32.0058ZM94.9656 32.7911C94.5532 32.9974 93.9863 33.14 93.2 33.14V37.14C94.4671 37.14 95.6735 36.9093 96.7544 36.3689L94.9656 32.7911ZM100.507 26.44L98.7353 25.513L98.7297 25.5238L98.7242 25.5346L100.507 26.44ZM102.328 24.44L101.294 22.7276L101.288 22.7316L101.281 22.7357L102.328 24.44ZM107.068 24.24L106.112 25.9972L106.12 26.0015L106.128 26.0057L107.068 24.24ZM108.568 25.5L106.957 26.6864L110.568 31.5858V25.5H108.568ZM108.568 23.92V21.92H106.568V23.92H108.568ZM111.388 23.92H113.388V21.92H111.388V23.92ZM111.388 35V37H113.388V35H111.388ZM108.568 35H106.568V37H108.568V35ZM108.568 33.38H110.568V26.9775L106.923 32.2416L108.568 33.38ZM107.068 34.68L108.007 36.4457L108.013 36.4422L108.02 36.4386L107.068 34.68ZM102.328 34.46L101.26 36.151L101.266 36.1552L101.273 36.1593L102.328 34.46ZM100.507 32.44L98.7186 33.3344L98.7268 33.3508L98.7353 33.367L100.507 32.44ZM108.168 27.72L106.408 28.671L106.414 28.6812L106.419 28.6913L108.168 27.72ZM107.088 26.6L106.073 28.3239L106.093 28.3351L106.112 28.3459L107.088 26.6ZM104.188 26.58L103.19 24.8468L103.19 24.8468L104.188 26.58ZM103.108 27.7L101.368 26.7128L101.364 26.7207L101.359 26.7287L103.108 27.7ZM103.108 31.18L101.338 32.1115L101.352 32.1396L101.368 32.1672L103.108 31.18ZM104.188 32.32L103.151 34.0304L103.162 34.0372L103.173 34.0439L104.188 32.32ZM107.088 32.34L108.063 34.0859L108.082 34.0751L108.102 34.0639L107.088 32.34ZM108.168 31.22L109.916 32.1913L109.921 32.1812L109.927 32.171L108.168 31.22ZM101.847 29.42C101.847 28.5666 102.014 27.8916 102.291 27.3454L98.7242 25.5346C98.1215 26.7218 97.8475 28.0334 97.8475 29.42H101.847ZM102.28 27.367C102.582 26.7883 102.951 26.4041 103.374 26.1443L101.281 22.7357C100.184 23.4092 99.3393 24.3584 98.7353 25.513L102.28 27.367ZM103.361 26.1524C103.807 25.8831 104.307 25.74 104.908 25.74V21.74C103.615 21.74 102.395 22.0635 101.294 22.7276L103.361 26.1524ZM104.908 25.74C105.462 25.74 105.842 25.8502 106.112 25.9972L108.023 22.4827C107.066 21.9631 106.006 21.74 104.908 21.74V25.74ZM106.128 26.0057C106.525 26.2166 106.783 26.4497 106.957 26.6864L110.178 24.3136C109.605 23.5369 108.864 22.93 108.007 22.4743L106.128 26.0057ZM110.568 25.5V23.92H106.568V25.5H110.568ZM108.568 25.92H111.388V21.92H108.568V25.92ZM109.388 23.92V35H113.388V23.92H109.388ZM111.388 33H108.568V37H111.388V33ZM110.568 35V33.38H106.568V35H110.568ZM106.923 32.2416C106.767 32.467 106.521 32.7017 106.115 32.9214L108.02 36.4386C108.894 35.965 109.648 35.333 110.212 34.5184L106.923 32.2416ZM106.128 32.9143C105.835 33.0702 105.441 33.18 104.888 33.18V37.18C105.988 37.18 107.047 36.9564 108.007 36.4457L106.128 32.9143ZM104.888 33.18C104.317 33.18 103.83 33.039 103.382 32.7607L101.273 36.1593C102.371 36.841 103.591 37.18 104.888 37.18V33.18ZM103.395 32.769C102.959 32.4936 102.585 32.0958 102.28 31.513L98.7353 33.367C99.3371 34.5176 100.176 35.4664 101.26 36.151L103.395 32.769ZM102.296 31.5456C102.015 30.9827 101.847 30.2901 101.847 29.42H97.8475C97.8475 30.8166 98.1201 32.1373 98.7186 33.3344L102.296 31.5456ZM110.568 29.46C110.568 28.5202 110.382 27.5887 109.916 26.7487L106.419 28.6913C106.486 28.8113 106.568 29.0398 106.568 29.46H110.568ZM109.927 26.769C109.495 25.9694 108.874 25.3075 108.063 24.8541L106.112 28.3459C106.207 28.3992 106.307 28.4839 106.408 28.671L109.927 26.769ZM108.102 24.8761C107.345 24.4308 106.508 24.2 105.628 24.2V28.2C105.787 28.2 105.924 28.2358 106.073 28.3239L108.102 24.8761ZM105.628 24.2C104.766 24.2 103.941 24.4143 103.19 24.8468L105.185 28.3132C105.314 28.2391 105.449 28.2 105.628 28.2V24.2ZM103.19 24.8468C102.405 25.2984 101.803 25.9464 101.368 26.7128L104.847 28.6872C104.972 28.467 105.09 28.3683 105.185 28.3132L103.19 24.8468ZM101.359 26.7287C100.896 27.5632 100.708 28.4858 100.708 29.42H104.708C104.708 29.0209 104.786 28.7968 104.856 28.6713L101.359 26.7287ZM100.708 29.42C100.708 30.3577 100.897 31.2737 101.338 32.1115L104.877 30.2485C104.785 30.0729 104.708 29.8156 104.708 29.42H100.708ZM101.368 32.1672C101.799 32.9265 102.39 33.5689 103.151 34.0304L105.224 30.6096C105.105 30.5377 104.976 30.4202 104.847 30.1928L101.368 32.1672ZM103.173 34.0439C103.922 34.4841 104.75 34.72 105.628 34.72V30.72C105.491 30.72 105.36 30.6892 105.202 30.5961L103.173 34.0439ZM105.628 34.72C106.489 34.72 107.311 34.5061 108.063 34.0859L106.112 30.5941C105.957 30.6806 105.806 30.72 105.628 30.72V34.72ZM108.102 34.0639C108.876 33.6082 109.484 32.9688 109.916 32.1913L106.419 30.2487C106.318 30.4312 106.205 30.5385 106.073 30.6161L108.102 34.0639ZM109.927 32.171C110.382 31.3296 110.568 30.402 110.568 29.46H106.568C106.568 29.878 106.487 30.1237 106.408 30.269L109.927 32.171ZM118.742 32.42L116.843 33.0457L118.742 38.8124L120.642 33.0457L118.742 32.42ZM121.542 23.92V21.92H120.095L119.643 23.2943L121.542 23.92ZM124.522 23.92L126.398 24.6141L127.395 21.92H124.522V23.92ZM120.422 35V37H121.815L122.298 35.6941L120.422 35ZM117.022 35L115.145 35.6911L115.627 37H117.022V35ZM112.942 23.92V21.92H110.074L111.065 24.6111L112.942 23.92ZM115.942 23.92L117.842 23.2943L117.389 21.92H115.942V23.92ZM120.642 33.0457L123.442 24.5457L119.643 23.2943L116.843 31.7943L120.642 33.0457ZM121.542 25.92H124.522V21.92H121.542V25.92ZM122.646 23.2259L118.546 34.3059L122.298 35.6941L126.398 24.6141L122.646 23.2259ZM120.422 33H117.022V37H120.422V33ZM118.899 34.3089L114.819 23.2289L111.065 24.6111L115.145 35.6911L118.899 34.3089ZM112.942 25.92H115.942V21.92H112.942V25.92ZM114.043 24.5457L116.843 33.0457L120.642 31.7943L117.842 23.2943L114.043 24.5457ZM136.315 30.3V32.3H138.009L138.288 30.6288L136.315 30.3ZM128.215 30.3V28.3H126.041L126.222 30.4661L128.215 30.3ZM129.055 32.18L127.702 33.6527L127.702 33.6527L129.055 32.18ZM133.095 31.52V29.52H131.85L131.301 30.6363L133.095 31.52ZM136.115 31.52L138.03 32.0947L138.803 29.52H136.115V31.52ZM134.275 34.16L135.475 35.76L135.482 35.7544L135.49 35.7487L134.275 34.16ZM128.055 34.48L127.063 36.2165L127.079 36.2258L127.095 36.2347L128.055 34.48ZM126.075 32.46L124.314 33.4082L124.32 33.4186L124.325 33.429L126.075 32.46ZM126.075 26.44L124.314 25.4918L124.314 25.4918L126.075 26.44ZM128.035 24.44L129.006 26.1883L129.006 26.1883L128.035 24.44ZM133.755 24.42L132.793 26.1737L132.805 26.18L133.755 24.42ZM135.695 26.36L133.935 27.3099L133.944 27.3266L133.953 27.3432L135.695 26.36ZM133.495 28.42V30.42H135.532L135.495 28.383L133.495 28.42ZM132.715 26.7L131.403 28.2101L131.415 28.22L131.427 28.2298L132.715 26.7ZM129.095 26.68L130.421 28.1772L130.424 28.1748L129.095 26.68ZM128.235 28.42L126.255 28.1372L125.929 30.42H128.235V28.42ZM134.395 29.22C134.395 29.5341 134.374 29.7815 134.342 29.9712L138.288 30.6288C138.363 30.1785 138.395 29.7059 138.395 29.22H134.395ZM136.315 28.3H128.215V32.3H136.315V28.3ZM126.222 30.4661C126.321 31.6616 126.768 32.7945 127.702 33.6527L130.408 30.7073C130.355 30.6588 130.242 30.5384 130.208 30.1339L126.222 30.4661ZM127.702 33.6527C128.593 34.4718 129.694 34.86 130.875 34.86V30.86C130.615 30.86 130.503 30.7949 130.408 30.7073L127.702 33.6527ZM130.875 34.86C131.685 34.86 132.503 34.6839 133.243 34.2373C133.988 33.7875 134.526 33.1402 134.889 32.4037L131.301 30.6363C131.26 30.7193 131.226 30.7637 131.208 30.7845C131.191 30.8038 131.181 30.8101 131.176 30.8127C131.176 30.8128 131.105 30.86 130.875 30.86V34.86ZM133.095 33.52H136.115V29.52H133.095V33.52ZM134.199 30.9453C134.003 31.598 133.641 32.1269 133.06 32.5713L135.49 35.7487C136.722 34.8064 137.586 33.5753 138.03 32.0947L134.199 30.9453ZM133.075 32.56C132.569 32.9392 131.896 33.18 130.935 33.18V37.18C132.614 37.18 134.167 36.7408 135.475 35.76L133.075 32.56ZM130.935 33.18C130.17 33.18 129.546 33.0158 129.014 32.7253L127.095 36.2347C128.271 36.8775 129.566 37.18 130.935 37.18V33.18ZM129.047 32.7435C128.533 32.4497 128.131 32.0454 127.824 31.491L124.325 33.429C124.978 34.6079 125.897 35.5503 127.063 36.2165L129.047 32.7435ZM127.836 31.5118C127.548 30.978 127.375 30.3129 127.375 29.46H123.375C123.375 30.8738 123.668 32.2087 124.314 33.4082L127.836 31.5118ZM127.375 29.46C127.375 28.5895 127.55 27.9187 127.836 27.3882L124.314 25.4918C123.666 26.6946 123.375 28.0372 123.375 29.46H127.375ZM127.836 27.3882C128.126 26.8496 128.509 26.4645 129.006 26.1883L127.064 22.6917C125.881 23.3488 124.957 24.2971 124.314 25.4918L127.836 27.3882ZM129.006 26.1883C129.51 25.9083 130.134 25.74 130.935 25.74V21.74C129.549 21.74 128.24 22.0383 127.064 22.6917L129.006 26.1883ZM130.935 25.74C131.692 25.74 132.295 25.9002 132.793 26.1736L134.717 22.6664C133.562 22.0331 132.284 21.74 130.935 21.74V25.74ZM132.805 26.18C133.302 26.4481 133.667 26.8132 133.935 27.3099L137.455 25.4101C136.816 24.2268 135.888 23.2986 134.705 22.66L132.805 26.18ZM133.953 27.3432C134.228 27.8305 134.395 28.4363 134.395 29.22H138.395C138.395 27.8437 138.095 26.5428 137.436 25.3768L133.953 27.3432ZM135.495 28.383C135.472 27.1427 134.993 26.0035 134.003 25.1702L131.427 28.2298C131.448 28.2481 131.458 28.2599 131.461 28.2644C131.465 28.2685 131.466 28.2716 131.468 28.276C131.471 28.2814 131.493 28.3304 131.495 28.457L135.495 28.383ZM134.026 25.1899C133.121 24.4037 132.022 24.04 130.855 24.04V28.04C131.155 28.04 131.295 28.1163 131.403 28.2101L134.026 25.1899ZM130.855 24.04C129.714 24.04 128.643 24.406 127.766 25.1852L130.424 28.1748C130.507 28.1006 130.609 28.04 130.855 28.04V24.04ZM127.769 25.1828C126.876 25.9732 126.414 27.0237 126.255 28.1372L130.215 28.7028C130.269 28.323 130.38 28.2135 130.421 28.1772L127.769 25.1828ZM128.235 30.42H133.495V26.42H128.235V30.42Z" fill="black" mask="url(#path-3-inside-1_543_71)"/>
</svg>
