<svg width="292" height="61" viewBox="0 0 292 61" fill="none" xmlns="http://www.w3.org/2000/svg">
<rect width="291.667" height="60.5415" rx="30.2707" fill="#406E3F"/>
<path d="M42.0306 37.9932C41.2026 37.9932 40.4586 37.8492 39.7986 37.5612C39.1506 37.2612 38.6406 36.8532 38.2686 36.3372C37.8966 35.8092 37.7046 35.2032 37.6926 34.5192H39.4386C39.4986 35.1072 39.7386 35.6052 40.1586 36.0132C40.5906 36.4092 41.2146 36.6072 42.0306 36.6072C42.8106 36.6072 43.4226 36.4152 43.8666 36.0312C44.3226 35.6352 44.5506 35.1312 44.5506 34.5192C44.5506 34.0392 44.4186 33.6492 44.1546 33.3492C43.8906 33.0492 43.5606 32.8212 43.1646 32.6652C42.7686 32.5092 42.2346 32.3412 41.5626 32.1612C40.7346 31.9452 40.0686 31.7292 39.5646 31.5132C39.0726 31.2972 38.6466 30.9612 38.2866 30.5052C37.9386 30.0372 37.7646 29.4132 37.7646 28.6332C37.7646 27.9492 37.9386 27.3432 38.2866 26.8152C38.6346 26.2872 39.1206 25.8792 39.7446 25.5912C40.3806 25.3032 41.1066 25.1592 41.9226 25.1592C43.0986 25.1592 44.0586 25.4532 44.8026 26.0412C45.5586 26.6292 45.9846 27.4092 46.0806 28.3812H44.2806C44.2206 27.9012 43.9686 27.4812 43.5246 27.1212C43.0806 26.7492 42.4926 26.5632 41.7606 26.5632C41.0766 26.5632 40.5186 26.7432 40.0866 27.1032C39.6546 27.4512 39.4386 27.9432 39.4386 28.5792C39.4386 29.0352 39.5646 29.4072 39.8166 29.6952C40.0806 29.9832 40.3986 30.2052 40.7706 30.3612C41.1546 30.5052 41.6886 30.6732 42.3726 30.8652C43.2006 31.0932 43.8666 31.3212 44.3706 31.5492C44.8746 31.7652 45.3066 32.1072 45.6666 32.5752C46.0266 33.0312 46.2066 33.6552 46.2066 34.4472C46.2066 35.0592 46.0446 35.6352 45.7206 36.1752C45.3966 36.7152 44.9166 37.1532 44.2806 37.4892C43.6446 37.8252 42.8946 37.9932 42.0306 37.9932ZM57.6171 32.5572C57.6171 32.8692 57.5991 33.1992 57.5631 33.5472H49.6791C49.7391 34.5192 50.0691 35.2812 50.6691 35.8332C51.2811 36.3732 52.0191 36.6432 52.8831 36.6432C53.5911 36.6432 54.1791 36.4812 54.6471 36.1572C55.1271 35.8212 55.4631 35.3772 55.6551 34.8252H57.4191C57.1551 35.7732 56.6271 36.5472 55.8351 37.1472C55.0431 37.7352 54.0591 38.0292 52.8831 38.0292C51.9471 38.0292 51.1071 37.8192 50.3631 37.3992C49.6311 36.9792 49.0551 36.3852 48.6351 35.6172C48.2151 34.8372 48.0051 33.9372 48.0051 32.9172C48.0051 31.8972 48.2091 31.0032 48.6171 30.2352C49.0251 29.4672 49.5951 28.8792 50.3271 28.4712C51.0711 28.0512 51.9231 27.8412 52.8831 27.8412C53.8191 27.8412 54.6471 28.0452 55.3671 28.4532C56.0871 28.8612 56.6391 29.4252 57.0231 30.1452C57.4191 30.8532 57.6171 31.6572 57.6171 32.5572ZM55.9251 32.2152C55.9251 31.5912 55.7871 31.0572 55.5111 30.6132C55.2351 30.1572 54.8571 29.8152 54.3771 29.5872C53.9091 29.3472 53.3871 29.2272 52.8111 29.2272C51.9831 29.2272 51.2751 29.4912 50.6871 30.0192C50.1111 30.5472 49.7811 31.2792 49.6971 32.2152H55.9251ZM68.7792 32.5572C68.7792 32.8692 68.7612 33.1992 68.7252 33.5472H60.8412C60.9012 34.5192 61.2312 35.2812 61.8312 35.8332C62.4432 36.3732 63.1812 36.6432 64.0452 36.6432C64.7532 36.6432 65.3412 36.4812 65.8092 36.1572C66.2892 35.8212 66.6252 35.3772 66.8172 34.8252H68.5812C68.3172 35.7732 67.7892 36.5472 66.9972 37.1472C66.2052 37.7352 65.2212 38.0292 64.0452 38.0292C63.1092 38.0292 62.2692 37.8192 61.5252 37.3992C60.7932 36.9792 60.2172 36.3852 59.7972 35.6172C59.3772 34.8372 59.1672 33.9372 59.1672 32.9172C59.1672 31.8972 59.3712 31.0032 59.7792 30.2352C60.1872 29.4672 60.7572 28.8792 61.4892 28.4712C62.2332 28.0512 63.0852 27.8412 64.0452 27.8412C64.9812 27.8412 65.8092 28.0452 66.5292 28.4532C67.2492 28.8612 67.8012 29.4252 68.1852 30.1452C68.5812 30.8532 68.7792 31.6572 68.7792 32.5572ZM67.0872 32.2152C67.0872 31.5912 66.9492 31.0572 66.6732 30.6132C66.3972 30.1572 66.0192 29.8152 65.5392 29.5872C65.0712 29.3472 64.5492 29.2272 63.9732 29.2272C63.1452 29.2272 62.4372 29.4912 61.8492 30.0192C61.2732 30.5472 60.9432 31.2792 60.8592 32.2152H67.0872ZM83.1561 35.0772H77.6841L76.6761 37.8672H74.9481L79.4841 25.3932H81.3741L85.8921 37.8672H84.1641L83.1561 35.0772ZM82.6881 33.7452L80.4201 27.4092L78.1521 33.7452H82.6881ZM89.507 24.5472V37.8672H87.869V24.5472H89.507ZM93.9367 24.5472V37.8672H92.2987V24.5472H93.9367ZM111.391 37.8672H109.753L103.165 27.8772V37.8672H101.527V25.3032H103.165L109.753 35.2752V25.3032H111.391V37.8672ZM123.183 32.5572C123.183 32.8692 123.165 33.1992 123.129 33.5472H115.245C115.305 34.5192 115.635 35.2812 116.235 35.8332C116.847 36.3732 117.585 36.6432 118.449 36.6432C119.157 36.6432 119.745 36.4812 120.213 36.1572C120.693 35.8212 121.029 35.3772 121.221 34.8252H122.985C122.721 35.7732 122.193 36.5472 121.401 37.1472C120.609 37.7352 119.625 38.0292 118.449 38.0292C117.513 38.0292 116.673 37.8192 115.929 37.3992C115.197 36.9792 114.621 36.3852 114.201 35.6172C113.781 34.8372 113.571 33.9372 113.571 32.9172C113.571 31.8972 113.775 31.0032 114.183 30.2352C114.591 29.4672 115.161 28.8792 115.893 28.4712C116.637 28.0512 117.489 27.8412 118.449 27.8412C119.385 27.8412 120.213 28.0452 120.933 28.4532C121.653 28.8612 122.205 29.4252 122.589 30.1452C122.985 30.8532 123.183 31.6572 123.183 32.5572ZM121.491 32.2152C121.491 31.5912 121.353 31.0572 121.077 30.6132C120.801 30.1572 120.423 29.8152 119.943 29.5872C119.475 29.3472 118.953 29.2272 118.377 29.2272C117.549 29.2272 116.841 29.4912 116.253 30.0192C115.677 30.5472 115.347 31.2792 115.263 32.2152H121.491ZM124.734 32.8992C124.734 31.8912 124.938 31.0092 125.346 30.2532C125.754 29.4852 126.312 28.8912 127.02 28.4712C127.74 28.0512 128.538 27.8412 129.414 27.8412C130.278 27.8412 131.028 28.0272 131.664 28.3992C132.3 28.7712 132.774 29.2392 133.086 29.8032V28.0032H134.742V37.8672H133.086V36.0312C132.762 36.6072 132.276 37.0872 131.628 37.4712C130.992 37.8432 130.248 38.0292 129.396 38.0292C128.52 38.0292 127.728 37.8132 127.02 37.3812C126.312 36.9492 125.754 36.3432 125.346 35.5632C124.938 34.7832 124.734 33.8952 124.734 32.8992ZM133.086 32.9172C133.086 32.1732 132.936 31.5252 132.636 30.9732C132.336 30.4212 131.928 30.0012 131.412 29.7132C130.908 29.4132 130.35 29.2632 129.738 29.2632C129.126 29.2632 128.568 29.4072 128.064 29.6952C127.56 29.9832 127.158 30.4032 126.858 30.9552C126.558 31.5072 126.408 32.1552 126.408 32.8992C126.408 33.6552 126.558 34.3152 126.858 34.8792C127.158 35.4312 127.56 35.8572 128.064 36.1572C128.568 36.4452 129.126 36.5892 129.738 36.5892C130.35 36.5892 130.908 36.4452 131.412 36.1572C131.928 35.8572 132.336 35.4312 132.636 34.8792C132.936 34.3152 133.086 33.6612 133.086 32.9172ZM139.148 29.6052C139.436 29.0412 139.844 28.6032 140.372 28.2912C140.912 27.9792 141.566 27.8232 142.334 27.8232V29.5152H141.902C140.066 29.5152 139.148 30.5112 139.148 32.5032V37.8672H137.51V28.0032H139.148V29.6052ZM145.863 29.8392C146.199 29.2512 146.691 28.7712 147.339 28.3992C147.987 28.0272 148.725 27.8412 149.553 27.8412C150.441 27.8412 151.239 28.0512 151.947 28.4712C152.655 28.8912 153.213 29.4852 153.621 30.2532C154.029 31.0092 154.233 31.8912 154.233 32.8992C154.233 33.8952 154.029 34.7832 153.621 35.5632C153.213 36.3432 152.649 36.9492 151.929 37.3812C151.221 37.8132 150.429 38.0292 149.553 38.0292C148.701 38.0292 147.951 37.8432 147.303 37.4712C146.667 37.0992 146.187 36.6252 145.863 36.0492V37.8672H144.225V24.5472H145.863V29.8392ZM152.559 32.8992C152.559 32.1552 152.409 31.5072 152.109 30.9552C151.809 30.4032 151.401 29.9832 150.885 29.6952C150.381 29.4072 149.823 29.2632 149.211 29.2632C148.611 29.2632 148.053 29.4132 147.537 29.7132C147.033 30.0012 146.625 30.4272 146.313 30.9912C146.013 31.5432 145.863 32.1852 145.863 32.9172C145.863 33.6612 146.013 34.3152 146.313 34.8792C146.625 35.4312 147.033 35.8572 147.537 36.1572C148.053 36.4452 148.611 36.5892 149.211 36.5892C149.823 36.5892 150.381 36.4452 150.885 36.1572C151.401 35.8572 151.809 35.4312 152.109 34.8792C152.409 34.3152 152.559 33.6552 152.559 32.8992ZM164.885 28.0032L158.945 42.5112H157.253L159.197 37.7592L155.219 28.0032H157.037L160.133 35.9952L163.193 28.0032H164.885ZM170.718 31.5852C170.718 30.3612 170.994 29.2632 171.546 28.2912C172.098 27.3072 172.848 26.5392 173.796 25.9872C174.756 25.4352 175.818 25.1592 176.982 25.1592C178.35 25.1592 179.544 25.4892 180.564 26.1492C181.584 26.8092 182.328 27.7452 182.796 28.9572H180.834C180.486 28.2012 179.982 27.6192 179.322 27.2112C178.674 26.8032 177.894 26.5992 176.982 26.5992C176.106 26.5992 175.32 26.8032 174.624 27.2112C173.928 27.6192 173.382 28.2012 172.986 28.9572C172.59 29.7012 172.392 30.5772 172.392 31.5852C172.392 32.5812 172.59 33.4572 172.986 34.2132C173.382 34.9572 173.928 35.5332 174.624 35.9412C175.32 36.3492 176.106 36.5532 176.982 36.5532C177.894 36.5532 178.674 36.3552 179.322 35.9592C179.982 35.5512 180.486 34.9692 180.834 34.2132H182.796C182.328 35.4132 181.584 36.3432 180.564 37.0032C179.544 37.6512 178.35 37.9752 176.982 37.9752C175.818 37.9752 174.756 37.7052 173.796 37.1652C172.848 36.6132 172.098 35.8512 171.546 34.8792C170.994 33.9072 170.718 32.8092 170.718 31.5852ZM184.622 32.8992C184.622 31.8912 184.826 31.0092 185.234 30.2532C185.642 29.4852 186.2 28.8912 186.908 28.4712C187.628 28.0512 188.426 27.8412 189.302 27.8412C190.166 27.8412 190.916 28.0272 191.552 28.3992C192.188 28.7712 192.662 29.2392 192.974 29.8032V28.0032H194.63V37.8672H192.974V36.0312C192.65 36.6072 192.164 37.0872 191.516 37.4712C190.88 37.8432 190.136 38.0292 189.284 38.0292C188.408 38.0292 187.616 37.8132 186.908 37.3812C186.2 36.9492 185.642 36.3432 185.234 35.5632C184.826 34.7832 184.622 33.8952 184.622 32.8992ZM192.974 32.9172C192.974 32.1732 192.824 31.5252 192.524 30.9732C192.224 30.4212 191.816 30.0012 191.3 29.7132C190.796 29.4132 190.238 29.2632 189.626 29.2632C189.014 29.2632 188.456 29.4072 187.952 29.6952C187.448 29.9832 187.046 30.4032 186.746 30.9552C186.446 31.5072 186.296 32.1552 186.296 32.8992C186.296 33.6552 186.446 34.3152 186.746 34.8792C187.046 35.4312 187.448 35.8572 187.952 36.1572C188.456 36.4452 189.014 36.5892 189.626 36.5892C190.238 36.5892 190.796 36.4452 191.3 36.1572C191.816 35.8572 192.224 35.4312 192.524 34.8792C192.824 34.3152 192.974 33.6612 192.974 32.9172ZM199.036 29.6052C199.324 29.0412 199.732 28.6032 200.26 28.2912C200.8 27.9792 201.454 27.8232 202.222 27.8232V29.5152H201.79C199.954 29.5152 199.036 30.5112 199.036 32.5032V37.8672H197.398V28.0032H199.036V29.6052ZM217.3 28.9932C217.3 30.0372 216.94 30.9072 216.22 31.6032C215.512 32.2872 214.426 32.6292 212.962 32.6292H210.55V37.8672H208.912V25.3212H212.962C214.378 25.3212 215.452 25.6632 216.184 26.3472C216.928 27.0312 217.3 27.9132 217.3 28.9932ZM212.962 31.2792C213.874 31.2792 214.546 31.0812 214.978 30.6852C215.41 30.2892 215.626 29.7252 215.626 28.9932C215.626 27.4452 214.738 26.6712 212.962 26.6712H210.55V31.2792H212.962ZM218.724 32.8992C218.724 31.8912 218.928 31.0092 219.336 30.2532C219.744 29.4852 220.302 28.8912 221.01 28.4712C221.73 28.0512 222.528 27.8412 223.404 27.8412C224.268 27.8412 225.018 28.0272 225.654 28.3992C226.29 28.7712 226.764 29.2392 227.076 29.8032V28.0032H228.732V37.8672H227.076V36.0312C226.752 36.6072 226.266 37.0872 225.618 37.4712C224.982 37.8432 224.238 38.0292 223.386 38.0292C222.51 38.0292 221.718 37.8132 221.01 37.3812C220.302 36.9492 219.744 36.3432 219.336 35.5632C218.928 34.7832 218.724 33.8952 218.724 32.8992ZM227.076 32.9172C227.076 32.1732 226.926 31.5252 226.626 30.9732C226.326 30.4212 225.918 30.0012 225.402 29.7132C224.898 29.4132 224.34 29.2632 223.728 29.2632C223.116 29.2632 222.558 29.4072 222.054 29.6952C221.55 29.9832 221.148 30.4032 220.848 30.9552C220.548 31.5072 220.398 32.1552 220.398 32.8992C220.398 33.6552 220.548 34.3152 220.848 34.8792C221.148 35.4312 221.55 35.8572 222.054 36.1572C222.558 36.4452 223.116 36.5892 223.728 36.5892C224.34 36.5892 224.898 36.4452 225.402 36.1572C225.918 35.8572 226.326 35.4312 226.626 34.8792C226.926 34.3152 227.076 33.6612 227.076 32.9172ZM233.138 29.6052C233.426 29.0412 233.834 28.6032 234.362 28.2912C234.902 27.9792 235.556 27.8232 236.324 27.8232V29.5152H235.892C234.056 29.5152 233.138 30.5112 233.138 32.5032V37.8672H231.5V28.0032H233.138V29.6052ZM243.723 37.8672L239.853 33.5112V37.8672H238.215V24.5472H239.853V32.3772L243.651 28.0032H245.937L241.293 32.9172L245.955 37.8672H243.723ZM250.97 38.0292C250.214 38.0292 249.536 37.9032 248.936 37.6512C248.336 37.3872 247.862 37.0272 247.514 36.5712C247.166 36.1032 246.974 35.5692 246.938 34.9692H248.63C248.678 35.4612 248.906 35.8632 249.314 36.1752C249.734 36.4872 250.28 36.6432 250.952 36.6432C251.576 36.6432 252.068 36.5052 252.428 36.2292C252.788 35.9532 252.968 35.6052 252.968 35.1852C252.968 34.7532 252.776 34.4352 252.392 34.2312C252.008 34.0152 251.414 33.8052 250.61 33.6012C249.878 33.4092 249.278 33.2172 248.81 33.0252C248.354 32.8212 247.958 32.5272 247.622 32.1432C247.298 31.7472 247.136 31.2312 247.136 30.5952C247.136 30.0912 247.286 29.6292 247.586 29.2092C247.886 28.7892 248.312 28.4592 248.864 28.2192C249.416 27.9672 250.046 27.8412 250.754 27.8412C251.846 27.8412 252.728 28.1172 253.4 28.6692C254.072 29.2212 254.432 29.9772 254.48 30.9372H252.842C252.806 30.4212 252.596 30.0072 252.212 29.6952C251.84 29.3832 251.336 29.2272 250.7 29.2272C250.112 29.2272 249.644 29.3532 249.296 29.6052C248.948 29.8572 248.774 30.1872 248.774 30.5952C248.774 30.9192 248.876 31.1892 249.08 31.4052C249.296 31.6092 249.56 31.7772 249.872 31.9092C250.196 32.0292 250.64 32.1672 251.204 32.3232C251.912 32.5152 252.488 32.7072 252.932 32.8992C253.376 33.0792 253.754 33.3552 254.066 33.7272C254.39 34.0992 254.558 34.5852 254.57 35.1852C254.57 35.7252 254.42 36.2112 254.12 36.6432C253.82 37.0752 253.394 37.4172 252.842 37.6692C252.302 37.9092 251.678 38.0292 250.97 38.0292Z" fill="white"/>
</svg>
