<svg width="41" height="40" viewBox="0 0 41 40" fill="none" xmlns="http://www.w3.org/2000/svg">
<path d="M33.6182 25.1818C33.3822 25.7028 33.3118 26.2807 33.4161 26.841C33.5204 27.4013 33.7945 27.9184 34.2032 28.3255L34.3095 28.4291C34.6392 28.7499 34.9007 29.1309 35.0791 29.5503C35.2575 29.9697 35.3494 30.4192 35.3494 30.8732C35.3494 31.3272 35.2575 31.7767 35.0791 32.1961C34.9007 32.6154 34.6392 32.9964 34.3095 33.3173C33.9803 33.6385 33.5892 33.8933 33.1588 34.0671C32.7284 34.241 32.2671 34.3304 31.8011 34.3304C31.3352 34.3304 30.8738 34.241 30.4434 34.0671C30.013 33.8933 29.622 33.6385 29.2927 33.3173L29.1864 33.2136C28.7686 32.8154 28.2379 32.5483 27.6629 32.4467C27.0878 32.3451 26.4947 32.4137 25.96 32.6436C25.4357 32.8626 24.9885 33.2262 24.6735 33.6896C24.3586 34.153 24.1895 34.696 24.1873 35.2518V35.5455C24.1873 36.4617 23.8137 37.3403 23.1488 37.9882C22.4839 38.636 21.5821 39 20.6418 39C19.7015 39 18.7997 38.636 18.1348 37.9882C17.4699 37.3403 17.0964 36.4617 17.0964 35.5455V35.39C17.0826 34.8183 16.8927 34.2638 16.5513 33.7987C16.2098 33.3335 15.7327 32.9792 15.1818 32.7818C14.6471 32.5519 14.054 32.4833 13.479 32.5849C12.9039 32.6865 12.3732 32.9536 11.9555 33.3518L11.8491 33.4555C11.5198 33.7766 11.1288 34.0314 10.6984 34.2053C10.268 34.3791 9.80661 34.4686 9.34068 34.4686C8.87475 34.4686 8.4134 34.3791 7.98298 34.2053C7.55257 34.0314 7.16155 33.7766 6.83227 33.4555C6.50263 33.1346 6.24112 32.7536 6.0627 32.3342C5.88427 31.9149 5.79244 31.4653 5.79244 31.0114C5.79244 30.5574 5.88427 30.1079 6.0627 29.6885C6.24112 29.2691 6.50263 28.8881 6.83227 28.5673L6.93864 28.4636C7.34731 28.0566 7.62147 27.5395 7.72574 26.9792C7.83001 26.4189 7.75961 25.841 7.52364 25.32C7.29892 24.8091 6.92579 24.3734 6.45019 24.0665C5.97458 23.7596 5.41726 23.5949 4.84682 23.5927H4.54545C3.60514 23.5927 2.70334 23.2288 2.03844 22.5809C1.37354 21.9331 1 21.0544 1 20.1382C1 19.222 1.37354 18.3433 2.03844 17.6954C2.70334 17.0476 3.60514 16.6836 4.54545 16.6836H4.705C5.29176 16.6703 5.86083 16.4852 6.33821 16.1525C6.8156 15.8198 7.17922 15.3549 7.38182 14.8182C7.61779 14.2972 7.68819 13.7193 7.58392 13.159C7.47965 12.5987 7.2055 12.0816 6.79682 11.6745L6.69045 11.5709C6.36081 11.2501 6.0993 10.8691 5.92088 10.4497C5.74246 10.0303 5.65062 9.5808 5.65062 9.12682C5.65062 8.67284 5.74246 8.22331 5.92088 7.80393C6.0993 7.38456 6.36081 7.00356 6.69045 6.68273C7.01973 6.36154 7.41075 6.10673 7.84117 5.93288C8.27158 5.75904 8.73294 5.66956 9.19886 5.66956C9.66479 5.66956 10.1261 5.75904 10.5566 5.93288C10.987 6.10673 11.378 6.36154 11.7073 6.68273L11.8136 6.78636C12.2314 7.18456 12.7621 7.45168 13.3371 7.55328C13.9122 7.65488 14.5053 7.58629 15.04 7.35636H15.1818C15.7061 7.13741 16.1533 6.77385 16.4683 6.31044C16.7832 5.84703 16.9523 5.304 16.9545 4.74818V4.45455C16.9545 3.53834 17.3281 2.65967 17.993 2.01181C18.6579 1.36396 19.5597 1 20.5 1C21.4403 1 22.3421 1.36396 23.007 2.01181C23.6719 2.65967 24.0455 3.53834 24.0455 4.45455V4.61C24.0477 5.16581 24.2168 5.70885 24.5317 6.17226C24.8467 6.63567 25.2939 6.99923 25.8182 7.21818C26.3529 7.44811 26.946 7.5167 27.521 7.4151C28.0961 7.3135 28.6267 7.04638 29.0445 6.64818L29.1509 6.54455C29.4802 6.22335 29.8712 5.96855 30.3016 5.7947C30.732 5.62086 31.1934 5.53137 31.6593 5.53137C32.1252 5.53137 32.5866 5.62086 33.017 5.7947C33.4474 5.96855 33.8384 6.22335 34.1677 6.54455C34.4974 6.86538 34.7589 7.24638 34.9373 7.66575C35.1157 8.08513 35.2076 8.53466 35.2076 8.98864C35.2076 9.44262 35.1157 9.89215 34.9373 10.3115C34.7589 10.7309 34.4974 11.1119 34.1677 11.4327L34.0614 11.5364C33.6527 11.9434 33.3785 12.4605 33.2743 13.0208C33.17 13.5811 33.2404 14.159 33.4764 14.68V14.8182C33.7011 15.3291 34.0742 15.7648 34.5498 16.0717C35.0254 16.3785 35.5827 16.5432 36.1532 16.5455H36.4545C37.3949 16.5455 38.2967 16.9094 38.9616 17.5573C39.6265 18.2051 40 19.0838 40 20C40 20.9162 39.6265 21.7949 38.9616 22.4427C38.2967 23.0906 37.3949 23.4545 36.4545 23.4545H36.295C35.7246 23.4568 35.1672 23.6215 34.6916 23.9283C34.216 24.2352 33.8429 24.6709 33.6182 25.1818Z" fill="black" stroke="black" stroke-width="2" stroke-linecap="round" stroke-linejoin="round"/>
<path d="M21 29C25.4183 29 29 25.4183 29 21C29 16.5817 25.4183 13 21 13C16.5817 13 13 16.5817 13 21C13 25.4183 16.5817 29 21 29Z" fill="white" stroke="black" stroke-width="2" stroke-linecap="round" stroke-linejoin="round"/>
</svg>
