<svg width="928" height="56" viewBox="0 0 928 56" fill="none" xmlns="http://www.w3.org/2000/svg">
<rect x="0.5" y="0.5" width="927" height="55" rx="19.5" fill="black" stroke="black"/>
<path d="M426.01 35.14C425.036 35.14 424.156 34.9733 423.37 34.64C422.596 34.3067 421.983 33.8267 421.53 33.2C421.076 32.5733 420.843 31.8333 420.83 30.98H423.83C423.87 31.5533 424.07 32.0067 424.43 32.34C424.803 32.6733 425.31 32.84 425.95 32.84C426.603 32.84 427.116 32.6867 427.49 32.38C427.863 32.06 428.05 31.6467 428.05 31.14C428.05 30.7267 427.923 30.3867 427.67 30.12C427.416 29.8533 427.096 29.6467 426.71 29.5C426.336 29.34 425.816 29.1667 425.15 28.98C424.243 28.7133 423.503 28.4533 422.93 28.2C422.37 27.9333 421.883 27.54 421.47 27.02C421.07 26.4867 420.87 25.78 420.87 24.9C420.87 24.0733 421.076 23.3533 421.49 22.74C421.903 22.1267 422.483 21.66 423.23 21.34C423.976 21.0067 424.83 20.84 425.79 20.84C427.23 20.84 428.396 21.1933 429.29 21.9C430.196 22.5933 430.696 23.5667 430.79 24.82H427.71C427.683 24.34 427.476 23.9467 427.09 23.64C426.716 23.32 426.216 23.16 425.59 23.16C425.043 23.16 424.603 23.3 424.27 23.58C423.95 23.86 423.79 24.2667 423.79 24.8C423.79 25.1733 423.91 25.4867 424.15 25.74C424.403 25.98 424.71 26.18 425.07 26.34C425.443 26.4867 425.963 26.66 426.63 26.86C427.536 27.1267 428.276 27.3933 428.85 27.66C429.423 27.9267 429.916 28.3267 430.33 28.86C430.743 29.3933 430.95 30.0933 430.95 30.96C430.95 31.7067 430.756 32.4 430.37 33.04C429.983 33.68 429.416 34.1933 428.67 34.58C427.923 34.9533 427.036 35.14 426.01 35.14ZM434.797 22.6C434.304 22.6 433.89 22.4467 433.557 22.14C433.237 21.82 433.077 21.4267 433.077 20.96C433.077 20.4933 433.237 20.1067 433.557 19.8C433.89 19.48 434.304 19.32 434.797 19.32C435.29 19.32 435.697 19.48 436.017 19.8C436.35 20.1067 436.517 20.4933 436.517 20.96C436.517 21.4267 436.35 21.82 436.017 22.14C435.697 22.4467 435.29 22.6 434.797 22.6ZM436.177 23.92V35H433.377V23.92H436.177ZM443.283 23.74C444.11 23.74 444.837 23.9067 445.463 24.24C446.09 24.56 446.583 24.98 446.943 25.5V23.92H449.763V35.08C449.763 36.1067 449.557 37.02 449.143 37.82C448.73 38.6333 448.11 39.2733 447.283 39.74C446.457 40.22 445.457 40.46 444.283 40.46C442.71 40.46 441.417 40.0933 440.403 39.36C439.403 38.6267 438.837 37.6267 438.703 36.36H441.483C441.63 36.8667 441.943 37.2667 442.423 37.56C442.917 37.8667 443.51 38.02 444.203 38.02C445.017 38.02 445.677 37.7733 446.183 37.28C446.69 36.8 446.943 36.0667 446.943 35.08V33.36C446.583 33.88 446.083 34.3133 445.443 34.66C444.817 35.0067 444.097 35.18 443.283 35.18C442.35 35.18 441.497 34.94 440.723 34.46C439.95 33.98 439.337 33.3067 438.883 32.44C438.443 31.56 438.223 30.5533 438.223 29.42C438.223 28.3 438.443 27.3067 438.883 26.44C439.337 25.5733 439.943 24.9067 440.703 24.44C441.477 23.9733 442.337 23.74 443.283 23.74ZM446.943 29.46C446.943 28.78 446.81 28.2 446.543 27.72C446.277 27.2267 445.917 26.8533 445.463 26.6C445.01 26.3333 444.523 26.2 444.003 26.2C443.483 26.2 443.003 26.3267 442.563 26.58C442.123 26.8333 441.763 27.2067 441.483 27.7C441.217 28.18 441.083 28.7533 441.083 29.42C441.083 30.0867 441.217 30.6733 441.483 31.18C441.763 31.6733 442.123 32.0533 442.563 32.32C443.017 32.5867 443.497 32.72 444.003 32.72C444.523 32.72 445.01 32.5933 445.463 32.34C445.917 32.0733 446.277 31.7 446.543 31.22C446.81 30.7267 446.943 30.14 446.943 29.46ZM458.638 23.76C459.958 23.76 461.025 24.18 461.838 25.02C462.651 25.8467 463.058 27.0067 463.058 28.5V35H460.258V28.88C460.258 28 460.038 27.3267 459.598 26.86C459.158 26.38 458.558 26.14 457.798 26.14C457.025 26.14 456.411 26.38 455.958 26.86C455.518 27.3267 455.298 28 455.298 28.88V35H452.498V23.92H455.298V25.3C455.671 24.82 456.145 24.4467 456.718 24.18C457.305 23.9 457.945 23.76 458.638 23.76ZM471.906 22.6C471.413 22.6 471 22.4467 470.666 22.14C470.346 21.82 470.186 21.4267 470.186 20.96C470.186 20.4933 470.346 20.1067 470.666 19.8C471 19.48 471.413 19.32 471.906 19.32C472.4 19.32 472.806 19.48 473.126 19.8C473.46 20.1067 473.626 20.4933 473.626 20.96C473.626 21.4267 473.46 21.82 473.126 22.14C472.806 22.4467 472.4 22.6 471.906 22.6ZM473.286 23.92V35H470.486V23.92H473.286ZM482.193 23.76C483.513 23.76 484.58 24.18 485.393 25.02C486.206 25.8467 486.613 27.0067 486.613 28.5V35H483.813V28.88C483.813 28 483.593 27.3267 483.153 26.86C482.713 26.38 482.113 26.14 481.353 26.14C480.58 26.14 479.966 26.38 479.513 26.86C479.073 27.3267 478.853 28 478.853 28.88V35H476.053V23.92H478.853V25.3C479.226 24.82 479.7 24.4467 480.273 24.18C480.86 23.9 481.5 23.76 482.193 23.76Z" fill="white"/>
</svg>
