<svg width="928" height="56" viewBox="0 0 928 56" fill="none" xmlns="http://www.w3.org/2000/svg">
<rect x="0.5" y="0.5" width="927" height="55" rx="19.5" fill="black" stroke="black"/>
<path d="M432.2 35.14C431.227 35.14 430.347 34.9733 429.56 34.64C428.787 34.3067 428.173 33.8267 427.72 33.2C427.267 32.5733 427.033 31.8333 427.02 30.98H430.02C430.06 31.5533 430.26 32.0067 430.62 32.34C430.993 32.6733 431.5 32.84 432.14 32.84C432.793 32.84 433.307 32.6867 433.68 32.38C434.053 32.06 434.24 31.6467 434.24 31.14C434.24 30.7267 434.113 30.3867 433.86 30.12C433.607 29.8533 433.287 29.6467 432.9 29.5C432.527 29.34 432.007 29.1667 431.34 28.98C430.433 28.7133 429.693 28.4533 429.12 28.2C428.56 27.9333 428.073 27.54 427.66 27.02C427.26 26.4867 427.06 25.78 427.06 24.9C427.06 24.0733 427.267 23.3533 427.68 22.74C428.093 22.1267 428.673 21.66 429.42 21.34C430.167 21.0067 431.02 20.84 431.98 20.84C433.42 20.84 434.587 21.1933 435.48 21.9C436.387 22.5933 436.887 23.5667 436.98 24.82H433.9C433.873 24.34 433.667 23.9467 433.28 23.64C432.907 23.32 432.407 23.16 431.78 23.16C431.233 23.16 430.793 23.3 430.46 23.58C430.14 23.86 429.98 24.2667 429.98 24.8C429.98 25.1733 430.1 25.4867 430.34 25.74C430.593 25.98 430.9 26.18 431.26 26.34C431.633 26.4867 432.153 26.66 432.82 26.86C433.727 27.1267 434.467 27.3933 435.04 27.66C435.613 27.9267 436.107 28.3267 436.52 28.86C436.933 29.3933 437.14 30.0933 437.14 30.96C437.14 31.7067 436.947 32.4 436.56 33.04C436.173 33.68 435.607 34.1933 434.86 34.58C434.113 34.9533 433.227 35.14 432.2 35.14ZM440.988 22.6C440.494 22.6 440.081 22.4467 439.748 22.14C439.428 21.82 439.268 21.4267 439.268 20.96C439.268 20.4933 439.428 20.1067 439.748 19.8C440.081 19.48 440.494 19.32 440.988 19.32C441.481 19.32 441.888 19.48 442.208 19.8C442.541 20.1067 442.708 20.4933 442.708 20.96C442.708 21.4267 442.541 21.82 442.208 22.14C441.888 22.4467 441.481 22.6 440.988 22.6ZM442.368 23.92V35H439.568V23.92H442.368ZM449.474 23.74C450.301 23.74 451.027 23.9067 451.654 24.24C452.281 24.56 452.774 24.98 453.134 25.5V23.92H455.954V35.08C455.954 36.1067 455.747 37.02 455.334 37.82C454.921 38.6333 454.301 39.2733 453.474 39.74C452.647 40.22 451.647 40.46 450.474 40.46C448.901 40.46 447.607 40.0933 446.594 39.36C445.594 38.6267 445.027 37.6267 444.894 36.36H447.674C447.821 36.8667 448.134 37.2667 448.614 37.56C449.107 37.8667 449.701 38.02 450.394 38.02C451.207 38.02 451.867 37.7733 452.374 37.28C452.881 36.8 453.134 36.0667 453.134 35.08V33.36C452.774 33.88 452.274 34.3133 451.634 34.66C451.007 35.0067 450.287 35.18 449.474 35.18C448.541 35.18 447.687 34.94 446.914 34.46C446.141 33.98 445.527 33.3067 445.074 32.44C444.634 31.56 444.414 30.5533 444.414 29.42C444.414 28.3 444.634 27.3067 445.074 26.44C445.527 25.5733 446.134 24.9067 446.894 24.44C447.667 23.9733 448.527 23.74 449.474 23.74ZM453.134 29.46C453.134 28.78 453.001 28.2 452.734 27.72C452.467 27.2267 452.107 26.8533 451.654 26.6C451.201 26.3333 450.714 26.2 450.194 26.2C449.674 26.2 449.194 26.3267 448.754 26.58C448.314 26.8333 447.954 27.2067 447.674 27.7C447.407 28.18 447.274 28.7533 447.274 29.42C447.274 30.0867 447.407 30.6733 447.674 31.18C447.954 31.6733 448.314 32.0533 448.754 32.32C449.207 32.5867 449.687 32.72 450.194 32.72C450.714 32.72 451.201 32.5933 451.654 32.34C452.107 32.0733 452.467 31.7 452.734 31.22C453.001 30.7267 453.134 30.14 453.134 29.46ZM464.829 23.76C466.149 23.76 467.215 24.18 468.029 25.02C468.842 25.8467 469.249 27.0067 469.249 28.5V35H466.449V28.88C466.449 28 466.229 27.3267 465.789 26.86C465.349 26.38 464.749 26.14 463.989 26.14C463.215 26.14 462.602 26.38 462.149 26.86C461.709 27.3267 461.489 28 461.489 28.88V35H458.689V23.92H461.489V25.3C461.862 24.82 462.335 24.4467 462.909 24.18C463.495 23.9 464.135 23.76 464.829 23.76ZM487.137 23.92V35H484.317V33.6C483.957 34.08 483.484 34.46 482.897 34.74C482.324 35.0067 481.697 35.14 481.017 35.14C480.15 35.14 479.384 34.96 478.717 34.6C478.05 34.2267 477.524 33.6867 477.137 32.98C476.764 32.26 476.577 31.4067 476.577 30.42V23.92H479.377V30.02C479.377 30.9 479.597 31.58 480.037 32.06C480.477 32.5267 481.077 32.76 481.837 32.76C482.61 32.76 483.217 32.5267 483.657 32.06C484.097 31.58 484.317 30.9 484.317 30.02V23.92H487.137ZM492.7 25.52C493.06 25.0133 493.553 24.5933 494.18 24.26C494.82 23.9133 495.546 23.74 496.36 23.74C497.306 23.74 498.16 23.9733 498.92 24.44C499.693 24.9067 500.3 25.5733 500.74 26.44C501.193 27.2933 501.42 28.2867 501.42 29.42C501.42 30.5533 501.193 31.56 500.74 32.44C500.3 33.3067 499.693 33.98 498.92 34.46C498.16 34.94 497.306 35.18 496.36 35.18C495.546 35.18 494.826 35.0133 494.2 34.68C493.586 34.3467 493.086 33.9267 492.7 33.42V40.28H489.9V23.92H492.7V25.52ZM498.56 29.42C498.56 28.7533 498.42 28.18 498.14 27.7C497.873 27.2067 497.513 26.8333 497.06 26.58C496.62 26.3267 496.14 26.2 495.62 26.2C495.113 26.2 494.633 26.3333 494.18 26.6C493.74 26.8533 493.38 27.2267 493.1 27.72C492.833 28.2133 492.7 28.7933 492.7 29.46C492.7 30.1267 492.833 30.7067 493.1 31.2C493.38 31.6933 493.74 32.0733 494.18 32.34C494.633 32.5933 495.113 32.72 495.62 32.72C496.14 32.72 496.62 32.5867 497.06 32.32C497.513 32.0533 497.873 31.6733 498.14 31.18C498.42 30.6867 498.56 30.1 498.56 29.42Z" fill="white"/>
</svg>
