<svg width="110" height="45" viewBox="0 0 110 45" fill="none" xmlns="http://www.w3.org/2000/svg">
<path d="M0 20C0 8.9543 8.95431 0 20 0H90C101.046 0 110 8.95431 110 20V25C110 36.0457 101.046 45 90 45H20C8.95431 45 0 36.0457 0 25V20Z" fill="#4F723D"/>
<path d="M34.08 28.14C33.1467 28.14 32.3067 27.98 31.56 27.66C30.8133 27.3267 30.2267 26.86 29.8 26.26C29.3733 25.66 29.16 24.96 29.16 24.16H31.6C31.6533 24.76 31.8867 25.2533 32.3 25.64C32.7267 26.0267 33.32 26.22 34.08 26.22C34.8667 26.22 35.48 26.0333 35.92 25.66C36.36 25.2733 36.58 24.78 36.58 24.18C36.58 23.7133 36.44 23.3333 36.16 23.04C35.8933 22.7467 35.5533 22.52 35.14 22.36C34.74 22.2 34.18 22.0267 33.46 21.84C32.5533 21.6 31.8133 21.36 31.24 21.12C30.68 20.8667 30.2 20.48 29.8 19.96C29.4 19.44 29.2 18.7467 29.2 17.88C29.2 17.08 29.4 16.38 29.8 15.78C30.2 15.18 30.76 14.72 31.48 14.4C32.2 14.08 33.0333 13.92 33.98 13.92C35.3267 13.92 36.4267 14.26 37.28 14.94C38.1467 15.6067 38.6267 16.5267 38.72 17.7H36.2C36.16 17.1933 35.92 16.76 35.48 16.4C35.04 16.04 34.46 15.86 33.74 15.86C33.0867 15.86 32.5533 16.0267 32.14 16.36C31.7267 16.6933 31.52 17.1733 31.52 17.8C31.52 18.2267 31.6467 18.58 31.9 18.86C32.1667 19.1267 32.5 19.34 32.9 19.5C33.3 19.66 33.8467 19.8333 34.54 20.02C35.46 20.2733 36.2067 20.5267 36.78 20.78C37.3667 21.0333 37.86 21.4267 38.26 21.96C38.6733 22.48 38.88 23.18 38.88 24.06C38.88 24.7667 38.6867 25.4333 38.3 26.06C37.9267 26.6867 37.3733 27.1933 36.64 27.58C35.92 27.9533 35.0667 28.14 34.08 28.14ZM44.2303 18.84V24.94C44.2303 25.3533 44.3236 25.6533 44.5103 25.84C44.7103 26.0133 45.0436 26.1 45.5103 26.1H46.9103V28H45.1103C44.0836 28 43.297 27.76 42.7503 27.28C42.2036 26.8 41.9303 26.02 41.9303 24.94V18.84H40.6303V16.98H41.9303V14.24H44.2303V16.98H46.9103V18.84H44.2303ZM48.2517 22.44C48.2517 21.3333 48.4784 20.3533 48.9317 19.5C49.3984 18.6467 50.0251 17.9867 50.8117 17.52C51.6117 17.04 52.4917 16.8 53.4517 16.8C54.3184 16.8 55.0717 16.9733 55.7117 17.32C56.3651 17.6533 56.8851 18.0733 57.2717 18.58V16.98H59.5717V28H57.2717V26.36C56.8851 26.88 56.3584 27.3133 55.6917 27.66C55.0251 28.0067 54.2651 28.18 53.4117 28.18C52.4651 28.18 51.5984 27.94 50.8117 27.46C50.0251 26.9667 49.3984 26.2867 48.9317 25.42C48.4784 24.54 48.2517 23.5467 48.2517 22.44ZM57.2717 22.48C57.2717 21.72 57.1117 21.06 56.7917 20.5C56.4851 19.94 56.0784 19.5133 55.5717 19.22C55.0651 18.9267 54.5184 18.78 53.9317 18.78C53.3451 18.78 52.7984 18.9267 52.2917 19.22C51.7851 19.5 51.3717 19.92 51.0517 20.48C50.7451 21.0267 50.5917 21.68 50.5917 22.44C50.5917 23.2 50.7451 23.8667 51.0517 24.44C51.3717 25.0133 51.7851 25.4533 52.2917 25.76C52.8117 26.0533 53.3584 26.2 53.9317 26.2C54.5184 26.2 55.0651 26.0533 55.5717 25.76C56.0784 25.4667 56.4851 25.04 56.7917 24.48C57.1117 23.9067 57.2717 23.24 57.2717 22.48ZM64.8464 18.58C65.1797 18.02 65.6197 17.5867 66.1664 17.28C66.7264 16.96 67.3864 16.8 68.1464 16.8V19.16H67.5664C66.6731 19.16 65.9931 19.3867 65.5264 19.84C65.0731 20.2933 64.8464 21.08 64.8464 22.2V28H62.5664V16.98H64.8464V18.58ZM72.9022 18.84V24.94C72.9022 25.3533 72.9955 25.6533 73.1822 25.84C73.3822 26.0133 73.7155 26.1 74.1822 26.1H75.5822V28H73.7822C72.7555 28 71.9689 27.76 71.4222 27.28C70.8755 26.8 70.6022 26.02 70.6022 24.94V18.84H69.3022V16.98H70.6022V14.24H72.9022V16.98H75.5822V18.84H72.9022ZM80.5436 14.1L80.2836 23.8H78.3836L78.1236 14.1H80.5436ZM79.4036 28.14C78.9903 28.14 78.6436 28 78.3636 27.72C78.0836 27.44 77.9436 27.0933 77.9436 26.68C77.9436 26.2667 78.0836 25.92 78.3636 25.64C78.6436 25.36 78.9903 25.22 79.4036 25.22C79.8036 25.22 80.1436 25.36 80.4236 25.64C80.7036 25.92 80.8436 26.2667 80.8436 26.68C80.8436 27.0933 80.7036 27.44 80.4236 27.72C80.1436 28 79.8036 28.14 79.4036 28.14Z" fill="white"/>
</svg>
