<svg width="29" height="29" viewBox="6 0 26 34"
 fill="none" xmlns="http://www.w3.org/2000/svg">
<path d="M15.8333 4.62501C15.3847 4.62501 15.0089 4.477 14.706 4.181C14.4031 3.885 14.2511 3.51912 14.25 3.08334C14.2489 2.64756 14.4009 2.28167 14.706 1.98567C15.0111 1.68967 15.3868 1.54167 15.8333 1.54167H22.1667C22.6153 1.54167 22.9916 1.68967 23.2956 1.98567C23.5996 2.28167 23.7511 2.64756 23.75 3.08334C23.7489 3.51912 23.5969 3.88552 23.294 4.18255C22.9911 4.47957 22.6153 4.62706 22.1667 4.62501H15.8333ZM19 21.5833C19.4486 21.5833 19.8249 21.4353 20.1289 21.1393C20.4329 20.8433 20.5844 20.4774 20.5833 20.0417V13.875C20.5833 13.4382 20.4313 13.0723 20.1273 12.7773C19.8233 12.4824 19.4476 12.3344 19 12.3333C18.5524 12.3323 18.1767 12.4803 17.8727 12.7773C17.5687 13.0744 17.4167 13.4403 17.4167 13.875V20.0417C17.4167 20.4785 17.5687 20.8449 17.8727 21.1409C18.1767 21.4369 18.5524 21.5844 19 21.5833ZM19 33.9167C17.0472 33.9167 15.2063 33.5508 13.4773 32.819C11.7483 32.0872 10.2378 31.0913 8.94583 29.8313C7.65383 28.5712 6.63153 27.0999 5.87892 25.4175C5.12631 23.735 4.75 21.9431 4.75 20.0417C4.75 18.1403 5.12631 16.3478 5.87892 14.6643C6.63153 12.9808 7.65383 11.5101 8.94583 10.2521C10.2378 8.99409 11.7489 7.99869 13.4789 7.26588C15.209 6.53307 17.0493 6.16667 19 6.16667C20.6361 6.16667 22.2063 6.42362 23.7104 6.9375C25.2146 7.45139 26.6264 8.19653 27.9458 9.17292L29.0542 8.09375C29.3444 7.81112 29.7139 7.6698 30.1625 7.6698C30.6111 7.6698 30.9806 7.81112 31.2708 8.09375C31.5611 8.37639 31.7062 8.73612 31.7062 9.17292C31.7062 9.60973 31.5611 9.96945 31.2708 10.2521L30.1625 11.3313C31.1653 12.616 31.9306 13.9906 32.4583 15.4552C32.9861 16.9198 33.25 18.4486 33.25 20.0417C33.25 21.9431 32.8737 23.7355 32.1211 25.419C31.3685 27.1025 30.3462 28.5733 29.0542 29.8313C27.7622 31.0893 26.2511 32.0852 24.5211 32.819C22.791 33.5528 20.9507 33.9187 19 33.9167ZM19 30.8333C22.0611 30.8333 24.6736 29.7799 26.8375 27.6729C29.0014 25.566 30.0833 23.0222 30.0833 20.0417C30.0833 17.0611 29.0014 14.5174 26.8375 12.4104C24.6736 10.3035 22.0611 9.25 19 9.25C15.9389 9.25 13.3264 10.3035 11.1625 12.4104C8.99861 14.5174 7.91667 17.0611 7.91667 20.0417C7.91667 23.0222 8.99861 25.566 11.1625 27.6729C13.3264 29.7799 15.9389 30.8333 19 30.8333Z" fill="black"/>
</svg>
