<svg width="155" height="155" viewBox="0 0 155 155" fill="none" xmlns="http://www.w3.org/2000/svg">
<path fill-rule="evenodd" clip-rule="evenodd" d="M77.5 25.8333C48.9653 25.8333 25.8334 48.9653 25.8334 77.5C25.8334 91.0568 31.0521 103.397 39.6025 112.619C39.9253 111.551 40.3546 110.502 40.9147 109.5C42.8134 106.105 45.2086 102.966 48.0506 100.191C50.9027 97.4049 54.1205 95.067 57.5912 93.22C52.3052 88.1601 49.0004 81.0886 49.0004 73.1944C49.0004 57.5955 61.9045 45.2083 77.5 45.2083C93.0956 45.2083 106 57.5955 106 73.1944C106 81.0886 102.695 88.1601 97.4089 93.22C100.88 95.067 104.097 97.4049 106.949 100.191C109.791 102.966 112.187 106.105 114.085 109.5C114.645 110.502 115.075 111.551 115.398 112.619C123.948 103.397 129.167 91.0568 129.167 77.5C129.167 48.9653 106.035 25.8333 77.5 25.8333ZM102.953 122.474C103.204 121.184 103.33 119.973 103.333 118.9C103.339 117.127 103.015 116.168 102.812 115.805C101.517 113.49 99.8782 111.339 97.9242 109.431C92.5328 104.165 85.1888 101.181 77.5 101.181C69.8113 101.181 62.4672 104.165 57.0758 109.431C55.1219 111.339 53.4832 113.49 52.1879 115.805C51.9853 116.168 51.6606 117.127 51.6668 118.9C51.6705 119.973 51.7962 121.184 52.0469 122.474C59.5556 126.734 68.2355 129.167 77.5 129.167C86.7645 129.167 95.4444 126.734 102.953 122.474ZM77.5 88.2639C86.2506 88.2639 93.0829 81.3744 93.0829 73.1944C93.0829 65.0145 86.2506 58.125 77.5 58.125C68.7495 58.125 61.9171 65.0145 61.9171 73.1944C61.9171 81.3744 68.7495 88.2639 77.5 88.2639ZM12.9167 77.5C12.9167 41.8316 41.8316 12.9167 77.5 12.9167C113.168 12.9167 142.083 41.8316 142.083 77.5C142.083 100.474 130.083 120.641 112.039 132.08C102.046 138.416 90.1916 142.083 77.5 142.083C64.8085 142.083 52.9537 138.416 42.961 132.08C24.9171 120.641 12.9167 100.474 12.9167 77.5Z" fill="black"/>
</svg>
