<svg width="282" height="48" viewBox="0 0 282 48" fill="none" xmlns="http://www.w3.org/2000/svg">
<rect width="282" height="48" rx="24" fill="#92A2C7"/>
<path d="M40.48 17.1L35.26 31H32.62L27.38 17.1H29.82L33.94 28.66L38.08 17.1H40.48ZM43.5467 18.52C43.1334 18.52 42.7867 18.38 42.5067 18.1C42.2267 17.82 42.0867 17.4733 42.0867 17.06C42.0867 16.6467 42.2267 16.3 42.5067 16.02C42.7867 15.74 43.1334 15.6 43.5467 15.6C43.9467 15.6 44.2867 15.74 44.5667 16.02C44.8467 16.3 44.9867 16.6467 44.9867 17.06C44.9867 17.4733 44.8467 17.82 44.5667 18.1C44.2867 18.38 43.9467 18.52 43.5467 18.52ZM44.6667 19.98V31H42.3867V19.98H44.6667ZM57.7602 25.22C57.7602 25.6333 57.7335 26.0067 57.6802 26.34H49.2602C49.3268 27.22 49.6535 27.9267 50.2402 28.46C50.8268 28.9933 51.5468 29.26 52.4002 29.26C53.6268 29.26 54.4935 28.7467 55.0002 27.72H57.4602C57.1268 28.7333 56.5202 29.5667 55.6402 30.22C54.7735 30.86 53.6935 31.18 52.4002 31.18C51.3468 31.18 50.4002 30.9467 49.5602 30.48C48.7335 30 48.0802 29.3333 47.6002 28.48C47.1335 27.6133 46.9002 26.6133 46.9002 25.48C46.9002 24.3467 47.1268 23.3533 47.5802 22.5C48.0468 21.6333 48.6935 20.9667 49.5202 20.5C50.3602 20.0333 51.3202 19.8 52.4002 19.8C53.4402 19.8 54.3668 20.0267 55.1802 20.48C55.9935 20.9333 56.6268 21.5733 57.0802 22.4C57.5335 23.2133 57.7602 24.1533 57.7602 25.22ZM55.3802 24.5C55.3668 23.66 55.0668 22.9867 54.4802 22.48C53.8935 21.9733 53.1668 21.72 52.3002 21.72C51.5135 21.72 50.8402 21.9733 50.2802 22.48C49.7202 22.9733 49.3868 23.6467 49.2802 24.5H55.3802ZM74.8039 19.98L71.3839 31H68.9839L66.7639 22.86L64.5439 31H62.1439L58.7039 19.98H61.0239L63.3239 28.84L65.6639 19.98H68.0439L70.2839 28.8L72.5639 19.98H74.8039ZM93.1231 31H90.8431L83.9831 20.62V31H81.7031V17.08H83.9831L90.8431 27.44V17.08H93.1231V31ZM106.217 25.22C106.217 25.6333 106.191 26.0067 106.137 26.34H97.7172C97.7839 27.22 98.1105 27.9267 98.6972 28.46C99.2839 28.9933 100.004 29.26 100.857 29.26C102.084 29.26 102.951 28.7467 103.457 27.72H105.917C105.584 28.7333 104.977 29.5667 104.097 30.22C103.231 30.86 102.151 31.18 100.857 31.18C99.8039 31.18 98.8572 30.9467 98.0172 30.48C97.1905 30 96.5372 29.3333 96.0572 28.48C95.5905 27.6133 95.3572 26.6133 95.3572 25.48C95.3572 24.3467 95.5839 23.3533 96.0372 22.5C96.5039 21.6333 97.1505 20.9667 97.9772 20.5C98.8172 20.0333 99.7772 19.8 100.857 19.8C101.897 19.8 102.824 20.0267 103.637 20.48C104.451 20.9333 105.084 21.5733 105.537 22.4C105.991 23.2133 106.217 24.1533 106.217 25.22ZM103.837 24.5C103.824 23.66 103.524 22.9867 102.937 22.48C102.351 21.9733 101.624 21.72 100.757 21.72C99.9705 21.72 99.2972 21.9733 98.7372 22.48C98.1772 22.9733 97.8439 23.6467 97.7372 24.5H103.837ZM107.701 25.44C107.701 24.3333 107.928 23.3533 108.381 22.5C108.848 21.6467 109.474 20.9867 110.261 20.52C111.061 20.04 111.941 19.8 112.901 19.8C113.768 19.8 114.521 19.9733 115.161 20.32C115.814 20.6533 116.334 21.0733 116.721 21.58V19.98H119.021V31H116.721V29.36C116.334 29.88 115.808 30.3133 115.141 30.66C114.474 31.0067 113.714 31.18 112.861 31.18C111.914 31.18 111.048 30.94 110.261 30.46C109.474 29.9667 108.848 29.2867 108.381 28.42C107.928 27.54 107.701 26.5467 107.701 25.44ZM116.721 25.48C116.721 24.72 116.561 24.06 116.241 23.5C115.934 22.94 115.528 22.5133 115.021 22.22C114.514 21.9267 113.968 21.78 113.381 21.78C112.794 21.78 112.248 21.9267 111.741 22.22C111.234 22.5 110.821 22.92 110.501 23.48C110.194 24.0267 110.041 24.68 110.041 25.44C110.041 26.2 110.194 26.8667 110.501 27.44C110.821 28.0133 111.234 28.4533 111.741 28.76C112.261 29.0533 112.808 29.2 113.381 29.2C113.968 29.2 114.514 29.0533 115.021 28.76C115.528 28.4667 115.934 28.04 116.241 27.48C116.561 26.9067 116.721 26.24 116.721 25.48ZM124.296 21.58C124.629 21.02 125.069 20.5867 125.616 20.28C126.176 19.96 126.836 19.8 127.596 19.8V22.16H127.016C126.122 22.16 125.442 22.3867 124.976 22.84C124.522 23.2933 124.296 24.08 124.296 25.2V31H122.016V19.98H124.296V21.58ZM131.971 21.62C132.358 21.0867 132.885 20.6533 133.551 20.32C134.231 19.9733 134.985 19.8 135.811 19.8C136.785 19.8 137.665 20.0333 138.451 20.5C139.238 20.9667 139.858 21.6333 140.311 22.5C140.765 23.3533 140.991 24.3333 140.991 25.44C140.991 26.5467 140.765 27.54 140.311 28.42C139.858 29.2867 139.231 29.9667 138.431 30.46C137.645 30.94 136.771 31.18 135.811 31.18C134.958 31.18 134.198 31.0133 133.531 30.68C132.878 30.3467 132.358 29.92 131.971 29.4V31H129.691V16.2H131.971V21.62ZM138.671 25.44C138.671 24.68 138.511 24.0267 138.191 23.48C137.885 22.92 137.471 22.5 136.951 22.22C136.445 21.9267 135.898 21.78 135.311 21.78C134.738 21.78 134.191 21.9267 133.671 22.22C133.165 22.5133 132.751 22.94 132.431 23.5C132.125 24.06 131.971 24.72 131.971 25.48C131.971 26.24 132.125 26.9067 132.431 27.48C132.751 28.04 133.165 28.4667 133.671 28.76C134.191 29.0533 134.738 29.2 135.311 29.2C135.898 29.2 136.445 29.0533 136.951 28.76C137.471 28.4533 137.885 28.0133 138.191 27.44C138.511 26.8667 138.671 26.2 138.671 25.44ZM153.166 19.98L146.406 36.18H144.046L146.286 30.82L141.946 19.98H144.486L147.586 28.38L150.806 19.98H153.166ZM159.322 24.02C159.322 22.66 159.635 21.44 160.262 20.36C160.902 19.28 161.762 18.44 162.842 17.84C163.935 17.2267 165.129 16.92 166.422 16.92C167.902 16.92 169.215 17.2867 170.362 18.02C171.522 18.74 172.362 19.7667 172.882 21.1H170.142C169.782 20.3667 169.282 19.82 168.642 19.46C168.002 19.1 167.262 18.92 166.422 18.92C165.502 18.92 164.682 19.1267 163.962 19.54C163.242 19.9533 162.675 20.5467 162.262 21.32C161.862 22.0933 161.662 22.9933 161.662 24.02C161.662 25.0467 161.862 25.9467 162.262 26.72C162.675 27.4933 163.242 28.0933 163.962 28.52C164.682 28.9333 165.502 29.14 166.422 29.14C167.262 29.14 168.002 28.96 168.642 28.6C169.282 28.24 169.782 27.6933 170.142 26.96H172.882C172.362 28.2933 171.522 29.32 170.362 30.04C169.215 30.76 167.902 31.12 166.422 31.12C165.115 31.12 163.922 30.82 162.842 30.22C161.762 29.6067 160.902 28.76 160.262 27.68C159.635 26.6 159.322 25.38 159.322 24.02ZM174.791 25.44C174.791 24.3333 175.017 23.3533 175.471 22.5C175.937 21.6467 176.564 20.9867 177.351 20.52C178.151 20.04 179.031 19.8 179.991 19.8C180.857 19.8 181.611 19.9733 182.251 20.32C182.904 20.6533 183.424 21.0733 183.811 21.58V19.98H186.111V31H183.811V29.36C183.424 29.88 182.897 30.3133 182.231 30.66C181.564 31.0067 180.804 31.18 179.951 31.18C179.004 31.18 178.137 30.94 177.351 30.46C176.564 29.9667 175.937 29.2867 175.471 28.42C175.017 27.54 174.791 26.5467 174.791 25.44ZM183.811 25.48C183.811 24.72 183.651 24.06 183.331 23.5C183.024 22.94 182.617 22.5133 182.111 22.22C181.604 21.9267 181.057 21.78 180.471 21.78C179.884 21.78 179.337 21.9267 178.831 22.22C178.324 22.5 177.911 22.92 177.591 23.48C177.284 24.0267 177.131 24.68 177.131 25.44C177.131 26.2 177.284 26.8667 177.591 27.44C177.911 28.0133 178.324 28.4533 178.831 28.76C179.351 29.0533 179.897 29.2 180.471 29.2C181.057 29.2 181.604 29.0533 182.111 28.76C182.617 28.4667 183.024 28.04 183.331 27.48C183.651 26.9067 183.811 26.24 183.811 25.48ZM191.385 21.58C191.719 21.02 192.159 20.5867 192.705 20.28C193.265 19.96 193.925 19.8 194.685 19.8V22.16H194.105C193.212 22.16 192.532 22.3867 192.065 22.84C191.612 23.2933 191.385 24.08 191.385 25.2V31H189.105V19.98H191.385V21.58ZM211.697 21.24C211.697 21.9467 211.53 22.6133 211.197 23.24C210.863 23.8667 210.33 24.38 209.597 24.78C208.863 25.1667 207.923 25.36 206.777 25.36H204.257V31H201.977V17.1H206.777C207.843 17.1 208.743 17.2867 209.477 17.66C210.223 18.02 210.777 18.5133 211.137 19.14C211.51 19.7667 211.697 20.4667 211.697 21.24ZM206.777 23.5C207.643 23.5 208.29 23.3067 208.717 22.92C209.143 22.52 209.357 21.96 209.357 21.24C209.357 19.72 208.497 18.96 206.777 18.96H204.257V23.5H206.777ZM213.111 25.44C213.111 24.3333 213.338 23.3533 213.791 22.5C214.258 21.6467 214.884 20.9867 215.671 20.52C216.471 20.04 217.351 19.8 218.311 19.8C219.178 19.8 219.931 19.9733 220.571 20.32C221.224 20.6533 221.744 21.0733 222.131 21.58V19.98H224.431V31H222.131V29.36C221.744 29.88 221.218 30.3133 220.551 30.66C219.884 31.0067 219.124 31.18 218.271 31.18C217.324 31.18 216.458 30.94 215.671 30.46C214.884 29.9667 214.258 29.2867 213.791 28.42C213.338 27.54 213.111 26.5467 213.111 25.44ZM222.131 25.48C222.131 24.72 221.971 24.06 221.651 23.5C221.344 22.94 220.938 22.5133 220.431 22.22C219.924 21.9267 219.378 21.78 218.791 21.78C218.204 21.78 217.658 21.9267 217.151 22.22C216.644 22.5 216.231 22.92 215.911 23.48C215.604 24.0267 215.451 24.68 215.451 25.44C215.451 26.2 215.604 26.8667 215.911 27.44C216.231 28.0133 216.644 28.4533 217.151 28.76C217.671 29.0533 218.218 29.2 218.791 29.2C219.378 29.2 219.924 29.0533 220.431 28.76C220.938 28.4667 221.344 28.04 221.651 27.48C221.971 26.9067 222.131 26.24 222.131 25.48ZM229.706 21.58C230.039 21.02 230.479 20.5867 231.026 20.28C231.586 19.96 232.246 19.8 233.006 19.8V22.16H232.426C231.532 22.16 230.852 22.3867 230.386 22.84C229.932 23.2933 229.706 24.08 229.706 25.2V31H227.426V19.98H229.706V21.58ZM239.462 25.5L244.542 31H241.462L237.382 26.26V31H235.102V16.2H237.382V24.8L241.382 19.98H244.542L239.462 25.5ZM250.176 31.18C249.309 31.18 248.529 31.0267 247.836 30.72C247.156 30.4 246.616 29.9733 246.216 29.44C245.816 28.8933 245.602 28.2867 245.576 27.62H247.936C247.976 28.0867 248.196 28.48 248.596 28.8C249.009 29.1067 249.522 29.26 250.136 29.26C250.776 29.26 251.269 29.14 251.616 28.9C251.976 28.6467 252.156 28.3267 252.156 27.94C252.156 27.5267 251.956 27.22 251.556 27.02C251.169 26.82 250.549 26.6 249.696 26.36C248.869 26.1333 248.196 25.9133 247.676 25.7C247.156 25.4867 246.702 25.16 246.316 24.72C245.942 24.28 245.756 23.7 245.756 22.98C245.756 22.3933 245.929 21.86 246.276 21.38C246.622 20.8867 247.116 20.5 247.756 20.22C248.409 19.94 249.156 19.8 249.996 19.8C251.249 19.8 252.256 20.12 253.016 20.76C253.789 21.3867 254.202 22.2467 254.256 23.34H251.976C251.936 22.8467 251.736 22.4533 251.376 22.16C251.016 21.8667 250.529 21.72 249.916 21.72C249.316 21.72 248.856 21.8333 248.536 22.06C248.216 22.2867 248.056 22.5867 248.056 22.96C248.056 23.2533 248.162 23.5 248.376 23.7C248.589 23.9 248.849 24.06 249.156 24.18C249.462 24.2867 249.916 24.4267 250.516 24.6C251.316 24.8133 251.969 25.0333 252.476 25.26C252.996 25.4733 253.442 25.7933 253.816 26.22C254.189 26.6467 254.382 27.2133 254.396 27.92C254.396 28.5467 254.222 29.1067 253.876 29.6C253.529 30.0933 253.036 30.48 252.396 30.76C251.769 31.04 251.029 31.18 250.176 31.18Z" fill="white"/>
</svg>
