<svg width="85" height="38" viewBox="0 0 85 38" fill="none" xmlns="http://www.w3.org/2000/svg">
<path d="M0 18.7785C0 8.40741 8.40741 0 18.7785 0H66.1698C76.5409 0 84.9483 8.40741 84.9483 18.7785C84.9483 29.1495 76.5409 37.557 66.1698 37.557H18.7785C8.40743 37.557 0 29.1495 0 18.7785Z" fill="#4F723D"/>
<path d="M30.8205 11.7583L25.6005 25.6583H22.9605L17.7205 11.7583H20.1605L24.2805 23.3183L28.4205 11.7583H30.8205ZM33.8872 13.1783C33.4738 13.1783 33.1272 13.0383 32.8472 12.7583C32.5672 12.4783 32.4272 12.1316 32.4272 11.7183C32.4272 11.3049 32.5672 10.9583 32.8472 10.6783C33.1272 10.3983 33.4738 10.2583 33.8872 10.2583C34.2872 10.2583 34.6272 10.3983 34.9072 10.6783C35.1872 10.9583 35.3272 11.3049 35.3272 11.7183C35.3272 12.1316 35.1872 12.4783 34.9072 12.7583C34.6272 13.0383 34.2872 13.1783 33.8872 13.1783ZM35.0072 14.6383V25.6583H32.7272V14.6383H35.0072ZM48.1006 19.8783C48.1006 20.2916 48.0739 20.6649 48.0206 20.9983H39.6006C39.6673 21.8783 39.9939 22.5849 40.5806 23.1183C41.1673 23.6516 41.8873 23.9183 42.7406 23.9183C43.9673 23.9183 44.8339 23.4049 45.3406 22.3783H47.8006C47.4673 23.3916 46.8606 24.2249 45.9806 24.8783C45.1139 25.5183 44.0339 25.8383 42.7406 25.8383C41.6873 25.8383 40.7406 25.6049 39.9006 25.1383C39.0739 24.6583 38.4206 23.9916 37.9406 23.1383C37.4739 22.2716 37.2406 21.2716 37.2406 20.1383C37.2406 19.0049 37.4673 18.0116 37.9206 17.1583C38.3873 16.2916 39.0339 15.6249 39.8606 15.1583C40.7006 14.6916 41.6606 14.4583 42.7406 14.4583C43.7806 14.4583 44.7073 14.6849 45.5206 15.1383C46.3339 15.5916 46.9673 16.2316 47.4206 17.0583C47.8739 17.8716 48.1006 18.8116 48.1006 19.8783ZM45.7206 19.1583C45.7073 18.3183 45.4073 17.6449 44.8206 17.1383C44.2339 16.6316 43.5073 16.3783 42.6406 16.3783C41.8539 16.3783 41.1806 16.6316 40.6206 17.1383C40.0606 17.6316 39.7273 18.3049 39.6206 19.1583H45.7206ZM65.1444 14.6383L61.7244 25.6583H59.3244L57.1044 17.5183L54.8844 25.6583H52.4844L49.0444 14.6383H51.3644L53.6644 23.4983L56.0044 14.6383H58.3844L60.6244 23.4583L62.9044 14.6383H65.1444Z" fill="white"/>
</svg>
