<svg width="285" height="62" viewBox="0 0 285 62" fill="none" xmlns="http://www.w3.org/2000/svg">
<rect width="285" height="62" rx="30" fill="#92A2C7"/>
<path d="M41.48 24.1L36.26 38H33.62L28.38 24.1H30.82L34.94 35.66L39.08 24.1H41.48ZM44.5467 25.52C44.1334 25.52 43.7867 25.38 43.5067 25.1C43.2267 24.82 43.0867 24.4733 43.0867 24.06C43.0867 23.6467 43.2267 23.3 43.5067 23.02C43.7867 22.74 44.1334 22.6 44.5467 22.6C44.9467 22.6 45.2867 22.74 45.5667 23.02C45.8467 23.3 45.9867 23.6467 45.9867 24.06C45.9867 24.4733 45.8467 24.82 45.5667 25.1C45.2867 25.38 44.9467 25.52 44.5467 25.52ZM45.6667 26.98V38H43.3867V26.98H45.6667ZM58.7602 32.22C58.7602 32.6333 58.7335 33.0067 58.6802 33.34H50.2602C50.3268 34.22 50.6535 34.9267 51.2402 35.46C51.8268 35.9933 52.5468 36.26 53.4002 36.26C54.6268 36.26 55.4935 35.7467 56.0002 34.72H58.4602C58.1268 35.7333 57.5202 36.5667 56.6402 37.22C55.7735 37.86 54.6935 38.18 53.4002 38.18C52.3468 38.18 51.4002 37.9467 50.5602 37.48C49.7335 37 49.0802 36.3333 48.6002 35.48C48.1335 34.6133 47.9002 33.6133 47.9002 32.48C47.9002 31.3467 48.1268 30.3533 48.5802 29.5C49.0468 28.6333 49.6935 27.9667 50.5202 27.5C51.3602 27.0333 52.3202 26.8 53.4002 26.8C54.4402 26.8 55.3668 27.0267 56.1802 27.48C56.9935 27.9333 57.6268 28.5733 58.0802 29.4C58.5335 30.2133 58.7602 31.1533 58.7602 32.22ZM56.3802 31.5C56.3668 30.66 56.0668 29.9867 55.4802 29.48C54.8935 28.9733 54.1668 28.72 53.3002 28.72C52.5135 28.72 51.8402 28.9733 51.2802 29.48C50.7202 29.9733 50.3868 30.6467 50.2802 31.5H56.3802ZM75.8039 26.98L72.3839 38H69.9839L67.7639 29.86L65.5439 38H63.1439L59.7039 26.98H62.0239L64.3239 35.84L66.6639 26.98H69.0439L71.2839 35.8L73.5639 26.98H75.8039ZM94.1231 38H91.8431L84.9831 27.62V38H82.7031V24.08H84.9831L91.8431 34.44V24.08H94.1231V38ZM107.217 32.22C107.217 32.6333 107.191 33.0067 107.137 33.34H98.7172C98.7839 34.22 99.1105 34.9267 99.6972 35.46C100.284 35.9933 101.004 36.26 101.857 36.26C103.084 36.26 103.951 35.7467 104.457 34.72H106.917C106.584 35.7333 105.977 36.5667 105.097 37.22C104.231 37.86 103.151 38.18 101.857 38.18C100.804 38.18 99.8572 37.9467 99.0172 37.48C98.1905 37 97.5372 36.3333 97.0572 35.48C96.5905 34.6133 96.3572 33.6133 96.3572 32.48C96.3572 31.3467 96.5839 30.3533 97.0372 29.5C97.5039 28.6333 98.1505 27.9667 98.9772 27.5C99.8172 27.0333 100.777 26.8 101.857 26.8C102.897 26.8 103.824 27.0267 104.637 27.48C105.451 27.9333 106.084 28.5733 106.537 29.4C106.991 30.2133 107.217 31.1533 107.217 32.22ZM104.837 31.5C104.824 30.66 104.524 29.9867 103.937 29.48C103.351 28.9733 102.624 28.72 101.757 28.72C100.971 28.72 100.297 28.9733 99.7372 29.48C99.1772 29.9733 98.8439 30.6467 98.7372 31.5H104.837ZM108.701 32.44C108.701 31.3333 108.928 30.3533 109.381 29.5C109.848 28.6467 110.474 27.9867 111.261 27.52C112.061 27.04 112.941 26.8 113.901 26.8C114.768 26.8 115.521 26.9733 116.161 27.32C116.814 27.6533 117.334 28.0733 117.721 28.58V26.98H120.021V38H117.721V36.36C117.334 36.88 116.808 37.3133 116.141 37.66C115.474 38.0067 114.714 38.18 113.861 38.18C112.914 38.18 112.048 37.94 111.261 37.46C110.474 36.9667 109.848 36.2867 109.381 35.42C108.928 34.54 108.701 33.5467 108.701 32.44ZM117.721 32.48C117.721 31.72 117.561 31.06 117.241 30.5C116.934 29.94 116.528 29.5133 116.021 29.22C115.514 28.9267 114.968 28.78 114.381 28.78C113.794 28.78 113.248 28.9267 112.741 29.22C112.234 29.5 111.821 29.92 111.501 30.48C111.194 31.0267 111.041 31.68 111.041 32.44C111.041 33.2 111.194 33.8667 111.501 34.44C111.821 35.0133 112.234 35.4533 112.741 35.76C113.261 36.0533 113.808 36.2 114.381 36.2C114.968 36.2 115.514 36.0533 116.021 35.76C116.528 35.4667 116.934 35.04 117.241 34.48C117.561 33.9067 117.721 33.24 117.721 32.48ZM125.296 28.58C125.629 28.02 126.069 27.5867 126.616 27.28C127.176 26.96 127.836 26.8 128.596 26.8V29.16H128.016C127.122 29.16 126.442 29.3867 125.976 29.84C125.522 30.2933 125.296 31.08 125.296 32.2V38H123.016V26.98H125.296V28.58ZM132.971 28.62C133.358 28.0867 133.885 27.6533 134.551 27.32C135.231 26.9733 135.985 26.8 136.811 26.8C137.785 26.8 138.665 27.0333 139.451 27.5C140.238 27.9667 140.858 28.6333 141.311 29.5C141.765 30.3533 141.991 31.3333 141.991 32.44C141.991 33.5467 141.765 34.54 141.311 35.42C140.858 36.2867 140.231 36.9667 139.431 37.46C138.645 37.94 137.771 38.18 136.811 38.18C135.958 38.18 135.198 38.0133 134.531 37.68C133.878 37.3467 133.358 36.92 132.971 36.4V38H130.691V23.2H132.971V28.62ZM139.671 32.44C139.671 31.68 139.511 31.0267 139.191 30.48C138.885 29.92 138.471 29.5 137.951 29.22C137.445 28.9267 136.898 28.78 136.311 28.78C135.738 28.78 135.191 28.9267 134.671 29.22C134.165 29.5133 133.751 29.94 133.431 30.5C133.125 31.06 132.971 31.72 132.971 32.48C132.971 33.24 133.125 33.9067 133.431 34.48C133.751 35.04 134.165 35.4667 134.671 35.76C135.191 36.0533 135.738 36.2 136.311 36.2C136.898 36.2 137.445 36.0533 137.951 35.76C138.471 35.4533 138.885 35.0133 139.191 34.44C139.511 33.8667 139.671 33.2 139.671 32.44ZM154.166 26.98L147.406 43.18H145.046L147.286 37.82L142.946 26.98H145.486L148.586 35.38L151.806 26.98H154.166ZM160.322 31.02C160.322 29.66 160.635 28.44 161.262 27.36C161.902 26.28 162.762 25.44 163.842 24.84C164.935 24.2267 166.129 23.92 167.422 23.92C168.902 23.92 170.215 24.2867 171.362 25.02C172.522 25.74 173.362 26.7667 173.882 28.1H171.142C170.782 27.3667 170.282 26.82 169.642 26.46C169.002 26.1 168.262 25.92 167.422 25.92C166.502 25.92 165.682 26.1267 164.962 26.54C164.242 26.9533 163.675 27.5467 163.262 28.32C162.862 29.0933 162.662 29.9933 162.662 31.02C162.662 32.0467 162.862 32.9467 163.262 33.72C163.675 34.4933 164.242 35.0933 164.962 35.52C165.682 35.9333 166.502 36.14 167.422 36.14C168.262 36.14 169.002 35.96 169.642 35.6C170.282 35.24 170.782 34.6933 171.142 33.96H173.882C173.362 35.2933 172.522 36.32 171.362 37.04C170.215 37.76 168.902 38.12 167.422 38.12C166.115 38.12 164.922 37.82 163.842 37.22C162.762 36.6067 161.902 35.76 161.262 34.68C160.635 33.6 160.322 32.38 160.322 31.02ZM175.791 32.44C175.791 31.3333 176.017 30.3533 176.471 29.5C176.937 28.6467 177.564 27.9867 178.351 27.52C179.151 27.04 180.031 26.8 180.991 26.8C181.857 26.8 182.611 26.9733 183.251 27.32C183.904 27.6533 184.424 28.0733 184.811 28.58V26.98H187.111V38H184.811V36.36C184.424 36.88 183.897 37.3133 183.231 37.66C182.564 38.0067 181.804 38.18 180.951 38.18C180.004 38.18 179.137 37.94 178.351 37.46C177.564 36.9667 176.937 36.2867 176.471 35.42C176.017 34.54 175.791 33.5467 175.791 32.44ZM184.811 32.48C184.811 31.72 184.651 31.06 184.331 30.5C184.024 29.94 183.617 29.5133 183.111 29.22C182.604 28.9267 182.057 28.78 181.471 28.78C180.884 28.78 180.337 28.9267 179.831 29.22C179.324 29.5 178.911 29.92 178.591 30.48C178.284 31.0267 178.131 31.68 178.131 32.44C178.131 33.2 178.284 33.8667 178.591 34.44C178.911 35.0133 179.324 35.4533 179.831 35.76C180.351 36.0533 180.897 36.2 181.471 36.2C182.057 36.2 182.604 36.0533 183.111 35.76C183.617 35.4667 184.024 35.04 184.331 34.48C184.651 33.9067 184.811 33.24 184.811 32.48ZM192.385 28.58C192.719 28.02 193.159 27.5867 193.705 27.28C194.265 26.96 194.925 26.8 195.685 26.8V29.16H195.105C194.212 29.16 193.532 29.3867 193.065 29.84C192.612 30.2933 192.385 31.08 192.385 32.2V38H190.105V26.98H192.385V28.58ZM212.697 28.24C212.697 28.9467 212.53 29.6133 212.197 30.24C211.863 30.8667 211.33 31.38 210.597 31.78C209.863 32.1667 208.923 32.36 207.777 32.36H205.257V38H202.977V24.1H207.777C208.843 24.1 209.743 24.2867 210.477 24.66C211.223 25.02 211.777 25.5133 212.137 26.14C212.51 26.7667 212.697 27.4667 212.697 28.24ZM207.777 30.5C208.643 30.5 209.29 30.3067 209.717 29.92C210.143 29.52 210.357 28.96 210.357 28.24C210.357 26.72 209.497 25.96 207.777 25.96H205.257V30.5H207.777ZM214.111 32.44C214.111 31.3333 214.338 30.3533 214.791 29.5C215.258 28.6467 215.884 27.9867 216.671 27.52C217.471 27.04 218.351 26.8 219.311 26.8C220.178 26.8 220.931 26.9733 221.571 27.32C222.224 27.6533 222.744 28.0733 223.131 28.58V26.98H225.431V38H223.131V36.36C222.744 36.88 222.218 37.3133 221.551 37.66C220.884 38.0067 220.124 38.18 219.271 38.18C218.324 38.18 217.458 37.94 216.671 37.46C215.884 36.9667 215.258 36.2867 214.791 35.42C214.338 34.54 214.111 33.5467 214.111 32.44ZM223.131 32.48C223.131 31.72 222.971 31.06 222.651 30.5C222.344 29.94 221.938 29.5133 221.431 29.22C220.924 28.9267 220.378 28.78 219.791 28.78C219.204 28.78 218.658 28.9267 218.151 29.22C217.644 29.5 217.231 29.92 216.911 30.48C216.604 31.0267 216.451 31.68 216.451 32.44C216.451 33.2 216.604 33.8667 216.911 34.44C217.231 35.0133 217.644 35.4533 218.151 35.76C218.671 36.0533 219.218 36.2 219.791 36.2C220.378 36.2 220.924 36.0533 221.431 35.76C221.938 35.4667 222.344 35.04 222.651 34.48C222.971 33.9067 223.131 33.24 223.131 32.48ZM230.706 28.58C231.039 28.02 231.479 27.5867 232.026 27.28C232.586 26.96 233.246 26.8 234.006 26.8V29.16H233.426C232.532 29.16 231.852 29.3867 231.386 29.84C230.932 30.2933 230.706 31.08 230.706 32.2V38H228.426V26.98H230.706V28.58ZM240.462 32.5L245.542 38H242.462L238.382 33.26V38H236.102V23.2H238.382V31.8L242.382 26.98H245.542L240.462 32.5ZM251.176 38.18C250.309 38.18 249.529 38.0267 248.836 37.72C248.156 37.4 247.616 36.9733 247.216 36.44C246.816 35.8933 246.602 35.2867 246.576 34.62H248.936C248.976 35.0867 249.196 35.48 249.596 35.8C250.009 36.1067 250.522 36.26 251.136 36.26C251.776 36.26 252.269 36.14 252.616 35.9C252.976 35.6467 253.156 35.3267 253.156 34.94C253.156 34.5267 252.956 34.22 252.556 34.02C252.169 33.82 251.549 33.6 250.696 33.36C249.869 33.1333 249.196 32.9133 248.676 32.7C248.156 32.4867 247.702 32.16 247.316 31.72C246.942 31.28 246.756 30.7 246.756 29.98C246.756 29.3933 246.929 28.86 247.276 28.38C247.622 27.8867 248.116 27.5 248.756 27.22C249.409 26.94 250.156 26.8 250.996 26.8C252.249 26.8 253.256 27.12 254.016 27.76C254.789 28.3867 255.202 29.2467 255.256 30.34H252.976C252.936 29.8467 252.736 29.4533 252.376 29.16C252.016 28.8667 251.529 28.72 250.916 28.72C250.316 28.72 249.856 28.8333 249.536 29.06C249.216 29.2867 249.056 29.5867 249.056 29.96C249.056 30.2533 249.162 30.5 249.376 30.7C249.589 30.9 249.849 31.06 250.156 31.18C250.462 31.2867 250.916 31.4267 251.516 31.6C252.316 31.8133 252.969 32.0333 253.476 32.26C253.996 32.4733 254.442 32.7933 254.816 33.22C255.189 33.6467 255.382 34.2133 255.396 34.92C255.396 35.5467 255.222 36.1067 254.876 36.6C254.529 37.0933 254.036 37.48 253.396 37.76C252.769 38.04 252.029 38.18 251.176 38.18Z" fill="white"/>
</svg>
