<svg width="264" height="61" viewBox="0 0 264 61" fill="none" xmlns="http://www.w3.org/2000/svg">
<rect width="263.667" height="60.5415" rx="30.2707" fill="#92A2C7"/>
<path d="M60.754 24.454L56.02 37H54.13L49.396 24.454H51.142L55.084 35.272L59.026 24.454H60.754ZM63.3961 25.534C63.0841 25.534 62.8201 25.426 62.6041 25.21C62.3881 24.994 62.2801 24.73 62.2801 24.418C62.2801 24.106 62.3881 23.842 62.6041 23.626C62.8201 23.41 63.0841 23.302 63.3961 23.302C63.6961 23.302 63.9481 23.41 64.1521 23.626C64.3681 23.842 64.4761 24.106 64.4761 24.418C64.4761 24.73 64.3681 24.994 64.1521 25.21C63.9481 25.426 63.6961 25.534 63.3961 25.534ZM64.1881 27.136V37H62.5501V27.136H64.1881ZM75.9798 31.69C75.9798 32.002 75.9618 32.332 75.9258 32.68H68.0418C68.1018 33.652 68.4318 34.414 69.0318 34.966C69.6438 35.506 70.3818 35.776 71.2458 35.776C71.9538 35.776 72.5418 35.614 73.0098 35.29C73.4898 34.954 73.8258 34.51 74.0178 33.958H75.7818C75.5178 34.906 74.9898 35.68 74.1978 36.28C73.4058 36.868 72.4218 37.162 71.2458 37.162C70.3098 37.162 69.4698 36.952 68.7258 36.532C67.9938 36.112 67.4178 35.518 66.9978 34.75C66.5778 33.97 66.3678 33.07 66.3678 32.05C66.3678 31.03 66.5718 30.136 66.9798 29.368C67.3878 28.6 67.9578 28.012 68.6898 27.604C69.4338 27.184 70.2858 26.974 71.2458 26.974C72.1818 26.974 73.0098 27.178 73.7298 27.586C74.4498 27.994 75.0018 28.558 75.3858 29.278C75.7818 29.986 75.9798 30.79 75.9798 31.69ZM74.2878 31.348C74.2878 30.724 74.1498 30.19 73.8738 29.746C73.5978 29.29 73.2198 28.948 72.7398 28.72C72.2718 28.48 71.7498 28.36 71.1738 28.36C70.3458 28.36 69.6378 28.624 69.0498 29.152C68.4738 29.68 68.1438 30.412 68.0598 31.348H74.2878ZM91.2819 27.136L88.2039 37H86.5119L84.1359 29.17L81.7599 37H80.0679L76.9719 27.136H78.6459L80.9139 35.416L83.3619 27.136H85.0359L87.4299 35.434L89.6619 27.136H91.2819ZM101.612 24.454C102.98 24.454 104.162 24.712 105.158 25.228C106.166 25.732 106.934 26.458 107.462 27.406C108.002 28.354 108.272 29.47 108.272 30.754C108.272 32.038 108.002 33.154 107.462 34.102C106.934 35.038 106.166 35.758 105.158 36.262C104.162 36.754 102.98 37 101.612 37H97.7063V24.454H101.612ZM101.612 35.65C103.232 35.65 104.468 35.224 105.32 34.372C106.172 33.508 106.598 32.302 106.598 30.754C106.598 29.194 106.166 27.976 105.302 27.1C104.45 26.224 103.22 25.786 101.612 25.786H99.3443V35.65H101.612ZM112.071 28.738C112.359 28.174 112.767 27.736 113.295 27.424C113.835 27.112 114.489 26.956 115.257 26.956V28.648H114.825C112.989 28.648 112.071 29.644 112.071 31.636V37H110.433V27.136H112.071V28.738ZM117.994 25.534C117.682 25.534 117.418 25.426 117.202 25.21C116.986 24.994 116.878 24.73 116.878 24.418C116.878 24.106 116.986 23.842 117.202 23.626C117.418 23.41 117.682 23.302 117.994 23.302C118.294 23.302 118.546 23.41 118.75 23.626C118.966 23.842 119.074 24.106 119.074 24.418C119.074 24.73 118.966 24.994 118.75 25.21C118.546 25.426 118.294 25.534 117.994 25.534ZM118.786 27.136V37H117.148V27.136H118.786ZM125.249 35.488L128.309 27.136H130.055L126.185 37H124.277L120.407 27.136H122.171L125.249 35.488ZM132.513 25.534C132.201 25.534 131.937 25.426 131.721 25.21C131.505 24.994 131.397 24.73 131.397 24.418C131.397 24.106 131.505 23.842 131.721 23.626C131.937 23.41 132.201 23.302 132.513 23.302C132.813 23.302 133.065 23.41 133.269 23.626C133.485 23.842 133.593 24.106 133.593 24.418C133.593 24.73 133.485 24.994 133.269 25.21C133.065 25.426 132.813 25.534 132.513 25.534ZM133.305 27.136V37H131.667V27.136H133.305ZM140.903 26.956C142.103 26.956 143.075 27.322 143.819 28.054C144.563 28.774 144.935 29.818 144.935 31.186V37H143.315V31.42C143.315 30.436 143.069 29.686 142.577 29.17C142.085 28.642 141.413 28.378 140.561 28.378C139.697 28.378 139.007 28.648 138.491 29.188C137.987 29.728 137.735 30.514 137.735 31.546V37H136.097V27.136H137.735V28.54C138.059 28.036 138.497 27.646 139.049 27.37C139.613 27.094 140.231 26.956 140.903 26.956ZM151.679 26.974C152.531 26.974 153.275 27.16 153.911 27.532C154.559 27.904 155.039 28.372 155.351 28.936V27.136H157.007V37.216C157.007 38.116 156.815 38.914 156.431 39.61C156.047 40.318 155.495 40.87 154.775 41.266C154.067 41.662 153.239 41.86 152.291 41.86C150.995 41.86 149.915 41.554 149.051 40.942C148.187 40.33 147.677 39.496 147.521 38.44H149.141C149.321 39.04 149.693 39.52 150.257 39.88C150.821 40.252 151.499 40.438 152.291 40.438C153.191 40.438 153.923 40.156 154.487 39.592C155.063 39.028 155.351 38.236 155.351 37.216V35.146C155.027 35.722 154.547 36.202 153.911 36.586C153.275 36.97 152.531 37.162 151.679 37.162C150.803 37.162 150.005 36.946 149.285 36.514C148.577 36.082 148.019 35.476 147.611 34.696C147.203 33.916 146.999 33.028 146.999 32.032C146.999 31.024 147.203 30.142 147.611 29.386C148.019 28.618 148.577 28.024 149.285 27.604C150.005 27.184 150.803 26.974 151.679 26.974ZM155.351 32.05C155.351 31.306 155.201 30.658 154.901 30.106C154.601 29.554 154.193 29.134 153.677 28.846C153.173 28.546 152.615 28.396 152.003 28.396C151.391 28.396 150.833 28.54 150.329 28.828C149.825 29.116 149.423 29.536 149.123 30.088C148.823 30.64 148.673 31.288 148.673 32.032C148.673 32.788 148.823 33.448 149.123 34.012C149.423 34.564 149.825 34.99 150.329 35.29C150.833 35.578 151.391 35.722 152.003 35.722C152.615 35.722 153.173 35.578 153.677 35.29C154.193 34.99 154.601 34.564 154.901 34.012C155.201 33.448 155.351 32.794 155.351 32.05ZM171.18 37L168.192 31.87H166.212V37H164.574V24.454H168.624C169.572 24.454 170.37 24.616 171.018 24.94C171.678 25.264 172.17 25.702 172.494 26.254C172.818 26.806 172.98 27.436 172.98 28.144C172.98 29.008 172.728 29.77 172.224 30.43C171.732 31.09 170.988 31.528 169.992 31.744L173.142 37H171.18ZM166.212 30.556H168.624C169.512 30.556 170.178 30.34 170.622 29.908C171.066 29.464 171.288 28.876 171.288 28.144C171.288 27.4 171.066 26.824 170.622 26.416C170.19 26.008 169.524 25.804 168.624 25.804H166.212V30.556ZM179.827 37.162C178.903 37.162 178.063 36.952 177.307 36.532C176.563 36.112 175.975 35.518 175.543 34.75C175.123 33.97 174.913 33.07 174.913 32.05C174.913 31.042 175.129 30.154 175.561 29.386C176.005 28.606 176.605 28.012 177.361 27.604C178.117 27.184 178.963 26.974 179.899 26.974C180.835 26.974 181.681 27.184 182.437 27.604C183.193 28.012 183.787 28.6 184.219 29.368C184.663 30.136 184.885 31.03 184.885 32.05C184.885 33.07 184.657 33.97 184.201 34.75C183.757 35.518 183.151 36.112 182.383 36.532C181.615 36.952 180.763 37.162 179.827 37.162ZM179.827 35.722C180.415 35.722 180.967 35.584 181.483 35.308C181.999 35.032 182.413 34.618 182.725 34.066C183.049 33.514 183.211 32.842 183.211 32.05C183.211 31.258 183.055 30.586 182.743 30.034C182.431 29.482 182.023 29.074 181.519 28.81C181.015 28.534 180.469 28.396 179.881 28.396C179.281 28.396 178.729 28.534 178.225 28.81C177.733 29.074 177.337 29.482 177.037 30.034C176.737 30.586 176.587 31.258 176.587 32.05C176.587 32.854 176.731 33.532 177.019 34.084C177.319 34.636 177.715 35.05 178.207 35.326C178.699 35.59 179.239 35.722 179.827 35.722ZM195.786 27.136V37H194.148V35.542C193.836 36.046 193.398 36.442 192.834 36.73C192.282 37.006 191.67 37.144 190.998 37.144C190.23 37.144 189.54 36.988 188.928 36.676C188.316 36.352 187.83 35.872 187.47 35.236C187.122 34.6 186.948 33.826 186.948 32.914V27.136H188.568V32.698C188.568 33.67 188.814 34.42 189.306 34.948C189.798 35.464 190.47 35.722 191.322 35.722C192.198 35.722 192.888 35.452 193.392 34.912C193.896 34.372 194.148 33.586 194.148 32.554V27.136H195.786ZM200.55 28.486V34.3C200.55 34.78 200.652 35.122 200.856 35.326C201.06 35.518 201.414 35.614 201.918 35.614H203.124V37H201.648C200.736 37 200.052 36.79 199.596 36.37C199.14 35.95 198.912 35.26 198.912 34.3V28.486H197.634V27.136H198.912V24.652H200.55V27.136H203.124V28.486H200.55ZM214.109 31.69C214.109 32.002 214.091 32.332 214.055 32.68H206.171C206.231 33.652 206.561 34.414 207.161 34.966C207.773 35.506 208.511 35.776 209.375 35.776C210.083 35.776 210.671 35.614 211.139 35.29C211.619 34.954 211.955 34.51 212.147 33.958H213.911C213.647 34.906 213.119 35.68 212.327 36.28C211.535 36.868 210.551 37.162 209.375 37.162C208.439 37.162 207.599 36.952 206.855 36.532C206.123 36.112 205.547 35.518 205.127 34.75C204.707 33.97 204.497 33.07 204.497 32.05C204.497 31.03 204.701 30.136 205.109 29.368C205.517 28.6 206.087 28.012 206.819 27.604C207.563 27.184 208.415 26.974 209.375 26.974C210.311 26.974 211.139 27.178 211.859 27.586C212.579 27.994 213.131 28.558 213.515 29.278C213.911 29.986 214.109 30.79 214.109 31.69ZM212.417 31.348C212.417 30.724 212.279 30.19 212.003 29.746C211.727 29.29 211.349 28.948 210.869 28.72C210.401 28.48 209.879 28.36 209.303 28.36C208.475 28.36 207.767 28.624 207.179 29.152C206.603 29.68 206.273 30.412 206.189 31.348H212.417Z" fill="white"/>
</svg>
