<svg width="15" height="20" viewBox="-10 0 32 32"

 fill="none" xmlns="http://www.w3.org/2000/svg">
<path d="M10.8602 3.37893C10.8602 2.64056 11.1892 1.93243 11.7749 1.41033C12.3606 0.888225 13.155 0.59491 13.9833 0.59491C14.8116 0.59491 15.6059 0.888225 16.1916 1.41033C16.7773 1.93243 17.1064 2.64056 17.1064 3.37893C17.1064 4.1173 16.7773 4.82542 16.1916 5.34753C15.6059 5.86963 14.8116 6.16295 13.9833 6.16295C13.155 6.16295 12.3606 5.86963 11.7749 5.34753C11.1892 4.82542 10.8602 4.1173 10.8602 3.37893ZM8.6805 12.1544C8.61543 12.1776 8.55687 12.2008 8.49181 12.224L7.97129 12.427C6.90423 12.8504 6.08442 13.6566 5.71355 14.6426L5.54438 15.095C5.18002 16.0694 4.00235 16.5914 2.90927 16.2666C1.81618 15.9418 1.2306 14.892 1.59496 13.9176L1.76413 13.4652C2.50587 11.4874 4.14549 9.87497 6.27961 9.02817L6.80013 8.82517C8.15347 8.29156 9.61742 8.01316 11.1009 8.01316C14.0028 8.01316 16.6184 9.56757 17.731 11.9514L18.733 14.0916L20.1254 14.7122C21.1534 15.1704 21.5698 16.284 21.0558 17.2004C20.5418 18.1168 19.2925 18.488 18.2645 18.0298L16.5208 17.2584C15.8506 16.9568 15.3236 16.458 15.0373 15.8374L14.4127 14.5034L13.1569 18.3024L16.3776 21.4345C16.729 21.7767 16.9762 22.1885 17.1064 22.6409L18.6028 27.9827C18.8826 28.9745 18.2059 29.9837 17.0868 30.2331C15.9677 30.4825 14.8421 29.8793 14.5623 28.8817L13.1309 23.7719L8.53085 19.3C7.56789 18.3662 7.21004 17.0612 7.5744 15.8374L8.67399 12.1544H8.6805ZM4.91976 23.6791L6.54638 20.0598C6.68301 20.2338 6.83917 20.3962 7.00183 20.5586L9.64996 23.1339L8.70652 25.2335C8.55037 25.5815 8.31613 25.9005 8.01684 26.1673L4.00235 29.7459C3.18904 30.4709 1.86823 30.4709 1.05493 29.7459C0.241619 29.0209 0.241619 27.8435 1.05493 27.1185L4.91976 23.6791Z" fill="black"/>
</svg>
