<svg width="371" height="62" viewBox="0 0 371 62" fill="none" xmlns="http://www.w3.org/2000/svg">
<rect width="371" height="62" rx="20" fill="#F1F1F1"/>
<path d="M35.625 27.75C35.625 37.375 22.5 45.625 22.5 45.625C22.5 45.625 9.375 37.375 9.375 27.75C9.375 24.4679 10.7578 21.3203 13.2192 18.9996C15.6806 16.6788 19.019 15.375 22.5 15.375C25.981 15.375 29.3194 16.6788 31.7808 18.9996C34.2422 21.3203 35.625 24.4679 35.625 27.75Z" fill="#406E3F" stroke="#406E3F" stroke-width="2" stroke-linecap="round" stroke-linejoin="round"/>
<path d="M35.625 27.75C35.625 37.375 22.5 45.625 22.5 45.625C22.5 45.625 9.375 37.375 9.375 27.75C9.375 24.4679 10.7578 21.3203 13.2192 18.9996C15.6806 16.6788 19.019 15.375 22.5 15.375C25.981 15.375 29.3194 16.6788 31.7808 18.9996C34.2422 21.3203 35.625 24.4679 35.625 27.75Z" fill="#406E3F" stroke="#406E3F" stroke-width="2" stroke-linecap="round" stroke-linejoin="round"/>
<path d="M22.5 31.875C24.9162 31.875 26.875 30.0282 26.875 27.75C26.875 25.4718 24.9162 23.625 22.5 23.625C20.0838 23.625 18.125 25.4718 18.125 27.75C18.125 30.0282 20.0838 31.875 22.5 31.875Z" fill="#D9D9D9" stroke="#406E3F" stroke-width="2" stroke-linecap="round" stroke-linejoin="round"/>
</svg>
