<svg xmlns="http://www.w3.org/2000/svg" width="102" height="111" viewBox="-3 4 110 100"


 fill="none">
  <path d="M17 71.6875V27.75C17 23.6646 17.9747 20.407 19.924 17.9773C21.8733 15.5477 24.4403 13.6977 27.625 12.4273C30.8097 11.157 34.4406 10.3091 38.5178 9.8836C42.5949 9.4581 46.7557 9.24689 51 9.24997C55.675 9.24997 60.0851 9.46272 64.2303 9.88822C68.3754 10.3137 71.9879 11.1616 75.0678 12.432C78.1476 13.7023 80.5729 15.5523 82.3438 17.982C84.1146 20.4116 85 23.6676 85 27.75V71.6875C85 76.2354 83.5663 80.0711 80.699 83.1945C77.8317 86.3179 74.307 87.8781 70.125 87.875L76.5 94.8125V97.125H68L59.5 87.875H42.5L34 97.125H25.5V94.8125L31.875 87.875C27.6958 87.875 24.1712 86.3148 21.301 83.1945C18.4308 80.0742 16.9972 76.2385 17 71.6875ZM25.5 46.25H46.75V32.375H25.5V46.25ZM55.25 46.25H76.5V32.375H55.25V46.25ZM36.125 74C37.9667 74 39.4896 73.3448 40.6938 72.0344C41.8979 70.7239 42.5 69.0666 42.5 67.0625C42.5 65.0583 41.8979 63.401 40.6938 62.0906C39.4896 60.7802 37.9667 60.125 36.125 60.125C34.2833 60.125 32.7604 60.7802 31.5563 62.0906C30.3521 63.401 29.75 65.0583 29.75 67.0625C29.75 69.0666 30.3521 70.7239 31.5563 72.0344C32.7604 73.3448 34.2833 74 36.125 74ZM65.875 74C67.7167 74 69.2396 73.3448 70.4438 72.0344C71.6479 70.7239 72.25 69.0666 72.25 67.0625C72.25 65.0583 71.6479 63.401 70.4438 62.0906C69.2396 60.7802 67.7167 60.125 65.875 60.125C64.0333 60.125 62.5104 60.7802 61.3063 62.0906C60.1021 63.401 59.5 65.0583 59.5 67.0625C59.5 69.0666 60.1021 70.7239 61.3063 72.0344C62.5104 73.3448 64.0333 74 65.875 74Z" fill="black"/>
</svg>